<svg id="Layer_1" data-name="Layer 1" xmlns="http://www.w3.org/2000/svg" viewBox="0 0 755.91 697.85"><defs><style>.cls-1{fill:#f2f2f2;}.cls-2{fill:#9e616a;}.cls-3{fill:#3f3d56;}.cls-4{fill:#fff;}.cls-5{fill:#2f2e41;}.cls-6{fill:#ffb6b6;}.cls-7{fill:#ff4040;}.cls-8{fill:#ffb8b8;}.cls-9{fill:#e6e6e6;}</style></defs><path class="cls-1" d="M554.46,216a79.83,79.83,0,1,1-79.68-80h0a79.61,79.61,0,0,1,79.68,79.56Z" transform="translate(0 0)"/><path class="cls-2" d="M687.32,262.52l11.23-21.43c-10.07-12.15-43.09-26.89-43.09-26.89l-44.7-40.69a10.68,10.68,0,1,0-13.12,13l48.29,57.92Z" transform="translate(0 0)"/><path class="cls-3" d="M681.88,261l15.85,5a54.4,54.4,0,0,0,35.3-.79h0a19.62,19.62,0,0,0,12.68-16.39h0A19.59,19.59,0,0,0,729.4,227.7c-14.86-2.44-34-3.65-40.85,4.48l-.06.09Z" transform="translate(0 0)"/><circle class="cls-4" cx="567.89" cy="246.83" r="79.83"/><path class="cls-5" d="M535.31,215.6A75.63,75.63,0,0,1,530,232.68c-14.09,29.79,26,20.08,40.35,20.08,15.67,0,30.66,8.24,28.37-28.37C597.7,208.75,586,196,570.31,196,556.92,196,538.11,202,535.31,215.6Z" transform="translate(0 0)"/><circle class="cls-6" cx="567.96" cy="229.7" r="23.05"/><path class="cls-5" d="M552.3,206.2a26.4,26.4,0,0,1,40.15,23.05c-11.74,2.95-24.09,5.2-36.61.7l-3-7.24L551.13,230c-3.81,1.56-7.64,2.88-11.46,0A27,27,0,0,1,552.3,206.2Z" transform="translate(0 0)"/><path class="cls-7" d="M630,299.91A79.81,79.81,0,0,1,518.27,308l6.85-19.11a20.54,20.54,0,0,1,17.45-12l4.36-.27,10.38-9s28-1,27.57-1.47l17,10.19,0-.07,6.67.41a20.54,20.54,0,0,1,17.45,12Z" transform="translate(0 0)"/><path class="cls-1" d="M560.88,628.84l-2-27.58a89.25,89.25,0,0,0-41.9-9.4c20.43,15.79,18.8,47.36,33,69a53.65,53.65,0,0,0,40,23.72l17,9.78A90,90,0,0,0,586,622a87,87,0,0,0-16.37-14.4C566,618.25,560.88,628.84,560.88,628.84Z" transform="translate(0 0)"/><path class="cls-1" d="M43.88,139.84l-2-27.58A89.25,89.25,0,0,0,0,102.86c20.43,15.79,18.8,47.36,33,69a53.65,53.65,0,0,0,40,23.72l17,9.78A90,90,0,0,0,69,133a87,87,0,0,0-16.37-14.4C49,129.25,43.88,139.84,43.88,139.84Z" transform="translate(0 0)"/><polygon class="cls-2" points="635.27 685 622 685 615.69 633.84 635.27 633.84 635.27 685"/><path class="cls-5" d="M638.65,697.85H595.88v-.54a16.65,16.65,0,0,1,16.65-16.64h0l7.81-5.93,14.58,5.93h3.73Z" transform="translate(0 0)"/><polygon class="cls-2" points="752.16 685 738.9 685 732.59 633.84 752.17 633.84 752.16 685"/><path class="cls-5" d="M755.55,697.85H712.78v-.54a16.64,16.64,0,0,1,16.65-16.64h0l7.81-5.93,14.58,5.93h3.73Z" transform="translate(0 0)"/><path class="cls-5" d="M732,411.19l11.16,106S758,623.28,755.21,637.93s.7,16.73.7,16.73l-25.45-1.81s.7-9.07-3.49-13.25-2.09-16.73-2.09-16.73L675.52,450.23l-30,90.64S640.65,640.58,640,642s-2.79,20.22-2.79,20.22h-25.8s3.49-11.15-1.4-14.64-9.06-.7-4.88-7,5.58-14,4.19-17.43-1.4-17.43-1.4-17.43,2.09-188.26,14-194.53S732,411.19,732,411.19Z" transform="translate(0 0)"/><circle class="cls-2" cx="679.16" cy="169.16" r="27.44"/><path class="cls-3" d="M741.47,422.74c-53.13,11-123.55-7.9-123.55-7.9l18.78-81.43L630,248.2c-.81-10.42,5.12-20.19,14.36-23.65l12.75-4.78,10.54-15.09,30.1,1,12,15.84,9.5,5,20.59,10.92.09,0v.05l-6.46,62.67L729.62,338s11.84,42.5,9.41,48.13-.32,2.91.27,5.92,2.39,3.2,2.66,9.13S741.47,422.74,741.47,422.74Z" transform="translate(0 0)"/><path class="cls-5" d="M677.83,195.28a85.14,85.14,0,0,0,14.34-1.37c4.69-1.08,15-9.08,17.85-13.8h0c2.09-3.51,3.35-8.94,4-12.88a37.76,37.76,0,0,0-7.38-29.81,12,12,0,0,0-4.92-4l-.54-.16a14.81,14.81,0,0,1-7.44-4.34,10.29,10.29,0,0,0-1.25-1.22,18.12,18.12,0,0,0-7.66-3.61c-4.53-1.09-11,.28-19.25,4.06-4.15,1.89-8.74,1.37-12.29.69a1.18,1.18,0,0,0-1.08.4,8.11,8.11,0,0,1-5.47,2.35c-1.26.09-2.54,1.87-4.08,4.18-.34.53-.75,1.14-1.05,1.52l-.06-.71-.69.81a9.89,9.89,0,0,0,4.88,16,19.57,19.57,0,0,0,3.89.52c.79,0,1.61.1,2.4.21a14.92,14.92,0,0,1,11.32,9.38,3.9,3.9,0,0,0,5,2.23,3.67,3.67,0,0,0,.89-.49,6.47,6.47,0,0,1,5.84-1.22,4.31,4.31,0,0,1,1.94,2.1,5.58,5.58,0,0,0,2.18,2.41c3.23,1.56,3.64,8.85,2.65,15-.95,5.89-3,10.18-5,10.44-1.55.2-1.72.32-1.83.6l-.09.25.18.22A6.34,6.34,0,0,0,677.83,195.28Z" transform="translate(0 0)"/><path class="cls-3" d="M567.89,327.66a80.83,80.83,0,1,1,80.82-80.83h0A80.92,80.92,0,0,1,567.89,327.66Zm0-159.66a78.83,78.83,0,1,0,78.82,78.83h0A78.91,78.91,0,0,0,567.89,168Z" transform="translate(0 0)"/><circle class="cls-4" cx="288.89" cy="80.83" r="79.83"/><circle class="cls-8" cx="292.58" cy="62.94" r="26.03"/><path id="f183d98d-beca-4def-af6d-fbe16b93cf6a-193" class="cls-5" d="M315.5,45.74s6.78-13-8.13-14.13c0,0-12.71-11.53-25.67-2.11,0,0-7.07,0-10.93,8,0,0-5.56-2.11-6.78,3.53,0,0-4.07,11.78,0,22.38s5.42,11.78,5.42,11.78S266.55,62,282.82,60.86,314,49.49,315.37,62.45s2.84,7.1,2.84,7.1S331.09,51,315.5,45.74Z" transform="translate(0 0)"/><path class="cls-7" d="M348.92,133.91A79.8,79.8,0,0,1,237.24,142l6.84-19.11a20.57,20.57,0,0,1,17.45-12l4.36-.27,10.39-9s28-1,27.57-1.47l16.95,10.19v-.07l6.66.41a20.53,20.53,0,0,1,17.45,12Z" transform="translate(0 0)"/><path class="cls-3" d="M288.89,161.66a80.83,80.83,0,1,1,80.82-80.83h0A80.92,80.92,0,0,1,288.89,161.66ZM288.89,2a78.83,78.83,0,1,0,78.82,78.83h0A78.91,78.91,0,0,0,288.89,2Z" transform="translate(0 0)"/><circle class="cls-4" cx="102.56" cy="206.83" r="79.83"/><path class="cls-5" d="M65.56,180.86c3.3-10.52,10.81-20.17,21.19-23.72s25.58,1.86,33.39,9.63c14.27,14.23,17.76,63.11,8,78.56-2-.11-8.68-.18-10.66-.26l-2.79-9.31V245c-3.15-.1-6.32-.16-9.51-.2a41.4,41.4,0,0,1-40.87-40.37C64,194.16,64.26,185,65.56,180.86Z" transform="translate(0 0)"/><circle class="cls-2" cx="101.38" cy="192.97" r="22.75"/><path class="cls-5" d="M81.74,173l26.2-13.11h0a32.89,32.89,0,0,1,19.28,27.28l.66,7.82-11-2.8-1.2-10-1.87,9.22-5.06-1.28,0-15.53-5.07,15.51L85.68,186Z" transform="translate(0 0)"/><path class="cls-7" d="M161.8,259.65a79.79,79.79,0,0,1-111.68,8.08L57,248.62a20.57,20.57,0,0,1,17.45-12l4.36-.27,10.39-9s28-1,27.57-1.48l17,10.2v-.07l6.66.41a20.52,20.52,0,0,1,17.45,12Z" transform="translate(0 0)"/><path class="cls-3" d="M102.56,287.66a80.83,80.83,0,1,1,80.83-80.83h0A80.93,80.93,0,0,1,102.56,287.66Zm0-159.66a78.83,78.83,0,1,0,78.83,78.83h0A78.92,78.92,0,0,0,102.56,128Z" transform="translate(0 0)"/><path class="cls-2" d="M641.61,288.24l-12.08-21c-15.66,2-45.8,22-45.8,22l-58.29,15.95a10.68,10.68,0,1,0,4,18.05l74.77-9.75Z" transform="translate(0 0)"/><path class="cls-3" d="M637.45,292l27.06-22.66,3.94-18.24a19.64,19.64,0,0,0-7.06-19.5h0a19.59,19.59,0,0,0-26.64,2.41c-10,11.25-21.3,26.77-18.1,36.9l0,.1Z" transform="translate(0 0)"/><path class="cls-9" d="M222.75,370.77H121.08a10.3,10.3,0,0,1-10.28-10.28V297.88a10.3,10.3,0,0,1,10.28-10.28H222.75A10.28,10.28,0,0,1,233,297.88v62.61A10.28,10.28,0,0,1,222.75,370.77Z" transform="translate(0 0)"/><path class="cls-4" d="M182.35,362.7H128.23a9.63,9.63,0,0,1-9.63-9.62V305.29a9.63,9.63,0,0,1,9.63-9.62H215.6a9.62,9.62,0,0,1,9.62,9.62v14.54A42.9,42.9,0,0,1,182.35,362.7Z" transform="translate(0 0)"/><path class="cls-7" d="M206.88,321.83H136.94a2.28,2.28,0,0,1,0-4.56h69.94a2.28,2.28,0,1,1,0,4.56Z" transform="translate(0 0)"/><path class="cls-7" d="M147.88,330.85H136.94a2.28,2.28,0,0,1,0-4.56h10.94a2.28,2.28,0,1,1,0,4.56Z" transform="translate(0 0)"/><path class="cls-7" d="M167.26,339.86H136.94a2.28,2.28,0,0,1,0-4.56h30.32a2.28,2.28,0,0,1,0,4.56Z" transform="translate(0 0)"/><circle class="cls-3" cx="107.26" cy="286.35" r="21.51"/><path class="cls-9" d="M486.75,86.77H385.08A10.3,10.3,0,0,1,374.8,76.49V13.88A10.3,10.3,0,0,1,385.08,3.6H486.75A10.28,10.28,0,0,1,497,13.88V76.49A10.28,10.28,0,0,1,486.75,86.77Z" transform="translate(0 0)"/><path class="cls-4" d="M446.35,78.7H392.23a9.63,9.63,0,0,1-9.63-9.62V21.29a9.63,9.63,0,0,1,9.63-9.62H479.6a9.62,9.62,0,0,1,9.62,9.62V35.83A42.9,42.9,0,0,1,446.35,78.7Z" transform="translate(0 0)"/><path class="cls-7" d="M470.88,37.83H400.94a2.26,2.26,0,0,1-2.28-2.27,2.29,2.29,0,0,1,2.28-2.29h69.94a2.28,2.28,0,1,1,0,4.56Z" transform="translate(0 0)"/><path class="cls-7" d="M411.88,46.85H400.94a2.28,2.28,0,1,1,0-4.56h10.94a2.28,2.28,0,1,1,0,4.56Z" transform="translate(0 0)"/><path class="cls-7" d="M431.26,55.86H400.94a2.28,2.28,0,0,1,0-4.56h30.32a2.28,2.28,0,1,1,0,4.56Z" transform="translate(0 0)"/><circle class="cls-3" cx="371.26" cy="77.35" r="21.51"/></svg>