<svg id="Layer_1" data-name="Layer 1" xmlns="http://www.w3.org/2000/svg" viewBox="0 0 670.85 675"><defs><style>.cls-1{fill:#f2f2f2;}.cls-2{fill:#ffb6b6;}.cls-3{fill:#2f2e41;}.cls-4{fill:#a0616a;}.cls-5{fill:#ff4040;}.cls-6{fill:#e6e6e6;}.cls-7{fill:#f0f0f0;opacity:0.3;isolation:isolate;}</style></defs><path class="cls-1" d="M169.25,648.4a3.55,3.55,0,0,1-2.6-6.2,3.78,3.78,0,0,0,.2-1,9.78,9.78,0,0,0-12.6-5.5,10,10,0,0,0-5.4,5.3c-4.3,10-9.8,20.4-7.1,31.4-18.2-38.6-12-86.6,14.9-119.6,7.4-4.1,13.5-11.4,15-19.8-3.7,1.2-8.3-1.7-5.5-5.6,1.2-1.5,2.4-3,3.6-4.4-14-14.9-30.6,8.5-15.3,28.6a113.91,113.91,0,0,0-13,20.4,49.57,49.57,0,0,0-2.9-22.6c-2.8-6.7-8-12.4-12.6-18.2-5.6-7.1-17.1-3.8-17.8,5.2,5.2,1.7,5.8,9.1-.1,10.2,1.5,16.7,12.5,32,27.5,39.4a118.06,118.06,0,0,0-6.4,48.6c-2.7-19.2-23.3-23.9-37.8-31.6a5.63,5.63,0,0,0-8.6,5.7,30.7,30.7,0,0,1,5.7,3,4.86,4.86,0,0,1,1.34,6.74l0,.06a4.71,4.71,0,0,1-3.6,2.1c7.3,18,26.1,30.1,45.4,30a119.25,119.25,0,0,0,8,23.4h28.7c.1-.3.2-.6.3-1a29.51,29.51,0,0,1-7.9-.5c7.2-8.2,12.7-12.5,8.6-24.1Z" transform="translate(0)"/><path class="cls-1" d="M425.05,648.4a3.55,3.55,0,0,0,2.6-6.2,3.78,3.78,0,0,1-.2-1,9.78,9.78,0,0,1,12.6-5.5,10,10,0,0,1,5.4,5.3c4.3,10,9.8,20.4,7.1,31.4,18.2-38.6,12-86.6-14.9-119.6-7.4-4.1-13.5-11.4-15-19.8,3.7,1.2,8.3-1.7,5.5-5.6-1.2-1.5-2.4-3-3.6-4.4,14-14.9,30.6,8.5,15.3,28.6a113.91,113.91,0,0,1,13,20.4,49.57,49.57,0,0,1,2.9-22.6c2.8-6.7,8-12.4,12.6-18.2,5.6-7.1,17.1-3.8,17.8,5.2-5.2,1.7-5.8,9.1.1,10.2-1.5,16.7-12.5,32-27.5,39.4a118.06,118.06,0,0,1,6.4,48.6c2.7-19.2,23.3-23.9,37.8-31.6a5.63,5.63,0,0,1,8.6,5.7,30.7,30.7,0,0,0-5.7,3,4.86,4.86,0,0,0-1.34,6.74l0,.06a4.71,4.71,0,0,0,3.6,2.1c-7.3,18-26.1,30.1-45.4,30a119.25,119.25,0,0,1-8,23.4h-28.7c-.1-.3-.2-.6-.3-1a29.51,29.51,0,0,0,7.9-.5c-7.3-8.2-12.7-12.5-8.6-24.1Z" transform="translate(0)"/><polygon class="cls-2" points="435.65 652.7 423.35 655.5 406.55 609.2 424.85 605 435.65 652.7"/><path class="cls-3" d="M439.05,665.5l-38,8.6-.1-.5a15.22,15.22,0,0,1,11.4-18.2h0l5.7-6.8,14.1,2.3,3.3-.8Z" transform="translate(0)"/><polygon class="cls-2" points="634.95 426.9 641.75 437.6 603.75 468.9 593.75 453.1 634.95 426.9"/><path class="cls-3" d="M646,419.4l20.9,32.9-.4.3A15.11,15.11,0,0,1,645.6,448l-.05-.08h0l-8.4-3.1-2.6-14.1-1.8-2.9Z" transform="translate(0)"/><path class="cls-4" d="M241.15,312.5l-3.1-17.7,46.4-21,10-17.7a8.63,8.63,0,0,1,16.9-3.5,8.39,8.39,0,0,1-4.2,9.2l-16.5,25.5Z" transform="translate(0)"/><polygon class="cls-5" points="227.05 298.1 247.95 287.4 253.45 308.1 238.95 318.9 227.05 298.1"/><polygon class="cls-4" points="180.15 651.1 192.75 651.1 198.75 602.3 180.15 602.3 180.15 651.1"/><path class="cls-3" d="M197,652.2v-8.6l-3.3.2-13.5.8-3.1.2-2.4,28.7-.1,1.5h9l.3-1.5,1.3-6.9,3.4,6.9.7,1.5h23.8a5.36,5.36,0,0,0,5.3-5.4C219.25,665,199.45,654.9,197,652.2Z" transform="translate(0)"/><polygon class="cls-4" points="30.15 457.7 27.25 470 73.25 487.2 77.55 469 30.15 457.7"/><path class="cls-3" d="M26.15,473.8l8.3,2,.6-3.3,2.4-13.3.5-3.1-27.3-9-1.5-.5-2.1,8.7,1.4.6,6.4,2.9-7.5,1.7-1.7.4L.15,484a5.29,5.29,0,0,0,3.91,6.38l.09,0C8.45,492.5,23,475.6,26.15,473.8Z" transform="translate(0)"/><path class="cls-4" d="M199.65,335.7l-16.3-7.6L151,367.3l-19.8,5a8.63,8.63,0,1,0,2.2,13.8l28.9-9.2Z" transform="translate(0)"/><path class="cls-6" d="M484.54,116.55a17.4,17.4,0,1,1,17.4-17.4h0A17.41,17.41,0,0,1,484.54,116.55Zm0-32.8a15.4,15.4,0,1,0,15.4,15.4h0A15.42,15.42,0,0,0,484.54,83.75Z" transform="translate(0)"/><path class="cls-6" d="M483.24,105.75h-.1a2.09,2.09,0,0,1-1.6-.8l-2.7-3.5a2.1,2.1,0,0,1,.34-3l.06,0h0l.1-.1a2.1,2.1,0,0,1,3,.34l0,.06h0a1.58,1.58,0,0,0,2.2.3c.1,0,.1-.1.2-.2l5.6-5.9a2.08,2.08,0,0,1,3-.14l0,0,.1.1a2.08,2.08,0,0,1,.14,3l0,0h0l-8.7,9.1A2.35,2.35,0,0,1,483.24,105.75Z" transform="translate(0)"/><path class="cls-6" d="M343.25,401.4a17.4,17.4,0,1,1,17.4-17.4h0A17.41,17.41,0,0,1,343.25,401.4Zm0-32.8a15.4,15.4,0,1,0,15.4,15.4h0A15.42,15.42,0,0,0,343.25,368.6Z" transform="translate(0)"/><path class="cls-6" d="M342,390.6h-.1a2.09,2.09,0,0,1-1.6-.8l-2.7-3.5a2.1,2.1,0,0,1,.34-2.95l.06-.05h0l.1-.1a2.1,2.1,0,0,1,2.95.34l.05.06h0a1.58,1.58,0,0,0,2.2.3c.1,0,.1-.1.2-.2l5.6-5.9a2.08,2.08,0,0,1,2.95-.14l.05,0,.1.1a2.08,2.08,0,0,1,.14,2.95l0,.05h0l-8.7,9.1A2.35,2.35,0,0,1,342,390.6Z" transform="translate(0)"/><path class="cls-6" d="M152.25,166.4a17.4,17.4,0,1,1,17.4-17.4A17.4,17.4,0,0,1,152.25,166.4Zm0-32.8a15.4,15.4,0,1,0,15.4,15.4h0a15.42,15.42,0,0,0-15.4-15.4Z" transform="translate(0)"/><path class="cls-6" d="M151,155.6h-.1a2.09,2.09,0,0,1-1.6-.8l-2.7-3.5a2.1,2.1,0,0,1,.34-3l.06,0h0l.1-.1a2.1,2.1,0,0,1,2.95.34l.05.06h0a1.58,1.58,0,0,0,2.2.3c.1,0,.1-.1.2-.2l5.6-5.9a2.08,2.08,0,0,1,2.95-.14l.05,0,.1.1a2.08,2.08,0,0,1,.14,2.95l0,.05h0l-8.7,9.1A2.35,2.35,0,0,1,151,155.6Z" transform="translate(0)"/><path class="cls-1" d="M291.75,466.2c-40.4,0-86.9-44.8-127.9-23.5-124.4,64.5-107.3-43.4-143-83.6l1.2-2.4c39.4,35.4,88.7,64.1,142.4,83.2C213,457.1,262,465.1,305.85,463l.1,2.8C301.15,466.1,296.45,466.2,291.75,466.2Z" transform="translate(0)"/><path class="cls-6" d="M333.85,339.7c-3.9,2.6-7.8-3.6-3.9-6C333.85,331.1,337.85,337.3,333.85,339.7Z" transform="translate(0)"/><path class="cls-7" d="M350.15,182.8,412.75,0l-68.7,180.6a3.38,3.38,0,0,0,.52,4.74l.08.06a3.46,3.46,0,0,0,4.8-.6A4,4,0,0,0,350.15,182.8Z" transform="translate(0)"/><circle class="cls-1" cx="286.95" cy="394.8" r="10.7"/><path class="cls-3" d="M183.25,398.9s-26.7,17.4-19.6,28.9c.2.4-31.9,42.8-31.9,42.8l-60.6-3.8-2.1,20.3,54,15.6s13.2,9.7,23.4-1,44.2-43.4,44.2-43.4l1.6,66.1L175.15,616l25.5-1.6,24.8-91.9,9.1-104.1Z" transform="translate(0)"/><path class="cls-5" d="M202.25,294.6l-11.2,8.5-12.8,27.3,12.3,16.7s10.3,17.9-6.2,35.3-29.3,35.9-16,35.2,66.9,26.6,67.3,4.3,1.1-39.5,1.1-39.5l14.1-35.7s8.4-21.3,2.5-27.7-13.8-14.5-13.8-14.5l-14.3-14.3h-12.9Z" transform="translate(0)"/><path class="cls-4" d="M223.25,242.2c25.2,14.3,4.5,52.1-21.1,38.7C177,266.5,197.55,228.7,223.25,242.2Z" transform="translate(0)"/><path class="cls-3" d="M236.65,250.1c-1.8,2.3-5.4,1.2-12.7,2.9a36.59,36.59,0,0,0-.8-7.3,21.16,21.16,0,0,1-3.4,8.2c-6.3.7,1.4,19.7-1.8,33.7-4.1-29.5-12.8-21.8-8.4-15.9,2.8,3.7.9,15-7.5,9.4-13.9,6.6-33.7-26.2-11.8-41.7-.4-8.3,8.9-9.6,14.6-7.1C218.65,222,234.45,235.2,236.65,250.1Z" transform="translate(0)"/><path class="cls-3" d="M172.15,228.6c-5.6,34.5-35.6-6.3-49.8,27.6-4.4,12.3,3.2,21.1,8,31.3,1.1,8.4-9.8,12.6-10.9,20.3-.3,17.7,28.2,16.6,36.2,5.4,8.2-11.7-1.6-27.3,3.3-39.9,6.9-17.4,35.1-17.5,37.5-37.8C191.65,228.8,179,221.1,172.15,228.6Z" transform="translate(0)"/><path class="cls-3" d="M194.85,232a1.69,1.69,0,0,1-.5.2h0c-.2.1-.3.2-.5.2h0l-.6-.6a2.72,2.72,0,0,0,0,.9v.1l.6.6c.2-.1.4-.3.6-.4a1.31,1.31,0,0,1,.4-.3A.85.85,0,0,1,194.85,232Zm5.8-10.8c-4.3-1-5.7,4.6-6.1,7.4-1.6-9.8-8.1-6.7-5.8,0a14.15,14.15,0,0,0,3.3,5.3,4.63,4.63,0,0,0,.7.7c-.3,1.4,1.1,1,2.8-.2a21.87,21.87,0,0,0,3.6-3.2C202.65,227.4,205.35,222.5,200.65,221.2Zm.1,5.6a32.63,32.63,0,0,1-4.4,4.7,10,10,0,0,1-1.6,1.3v.2c0,.1-.1.2-.1.3-.5,1-1.1.4-1.4-.4a.09.09,0,0,0-.1-.1h0a16.8,16.8,0,0,1-2-2.6c-4-6.9,2.4-11.6,2.1,1.3-.1.1-.1.2-.1.4a2.72,2.72,0,0,0,0,.9v.1l.6.6c.2-.1.4-.3.6-.4a1.31,1.31,0,0,1,.4-.3,3,3,0,0,1,.1-.9h0c.3-2.6.9-7.2,2.2-8.5C199.75,221.3,203.35,223.6,200.75,226.8Zm-5.9,5.2a1.69,1.69,0,0,1-.5.2h0c-.2.1-.3.2-.5.2h0l-.6-.6a2.72,2.72,0,0,0,0,.9v.1l.6.6c.2-.1.4-.3.6-.4a1.31,1.31,0,0,1,.4-.3A.85.85,0,0,1,194.85,232Z" transform="translate(0)"/><path class="cls-3" d="M427.45,421.9l-9.3,24.2-43.6,86,38.3,100.1,19.8-5.2-16.3-94.8,46.8-56.8,55.5,37.7s24.6,19.2,34,1,70-57,70-57l-15-16-69.8,32.7L489.65,406Z" transform="translate(0)"/><path class="cls-5" d="M474.35,307.6l-15.3-16.5-26.2-3.6L400.65,310l.3,24.9,15.9,58.7s-6.1,42.2,10.9,41.8,26.1-8.9,33-7.1,36.2,9,38,1.4,11.7-2.2,11.3-9.4-26.7-59.4-26.7-59.4l6.5-52.2Z" transform="translate(0)"/><path class="cls-2" d="M571.25,231.9a9.41,9.41,0,0,1-8.4,10.3,4.85,4.85,0,0,1-1.7,0l-35.1,66.9-9.4-14.5,36-63.2a9.36,9.36,0,0,1,18.6.5Z" transform="translate(0)"/><path class="cls-5" d="M460.45,320s-1.4,11.9,12,14.9,50.5-18.3,56.6-21.5c1.9-1,4.5-6,7.1-12.3,1.2-2.9,2.4-6,3.6-9.2.7-1.8,3.9-2.3,4.5-4.2s-1.3-4.9-.8-6.7c2.7-8.1,4.6-14.5,4.6-14.5l-8.9-16.7c-12.4,6.6-18.8,21-23.5,37.7Z" transform="translate(0)"/><path class="cls-2" d="M304,247.3a9.34,9.34,0,0,0,10.67,7.8,9,9,0,0,0,1.63-.4l50.8,56,5.5-16.4L322,242.1a9.43,9.43,0,0,0-18,5.2Z" transform="translate(0)"/><path class="cls-5" d="M433.25,304.8s4.3,11.2-7.9,17.4-53.5-5-60.2-6.7c-2.1-.5-5.8-4.7-10-10.2-1.9-2.5-3.8-5.2-5.7-8-1.1-1.6-4.4-1.3-5.4-2.9s0-5.1-.9-6.6c-4.7-7.2-8.1-12.9-8.1-12.9l4.4-18.4c13.7,3.2,23.5,15.7,32.2,30.6Z" transform="translate(0)"/><circle class="cls-2" cx="446.45" cy="258.4" r="25"/><path class="cls-3" d="M475,244.1c-2.6-4.1-7.6-6.8-12.3-6a16.76,16.76,0,0,0-19-14.22l-.14,0a16.53,16.53,0,0,0-9.1,4.4,4.94,4.94,0,0,0-5.1-.5,11.21,11.21,0,0,0-4.2,3.3,24.26,24.26,0,0,0-3.4,24.7c-.6-2.1,1.5-4.1,3.7-4.6s4.4,0,6.6-.3c2.8-.4,5.3-2,8.1-2.4a18.26,18.26,0,0,1,7,.9,18.46,18.46,0,0,0,7,.9c2.4-.3,5.4,8.6,5.3,14.9,0,1.2.2,2.7,1.4,3,1.4.3,2.3-1.7,3.6-2.2a2.55,2.55,0,0,1,3.1,1.6,4.12,4.12,0,0,1-.8,3.7,12,12,0,0,1-2.9,2.6l.6.5a3.22,3.22,0,0,0,4.2.5,9.23,9.23,0,0,0,3-3.5,43.21,43.21,0,0,0,5.6-13.3C478.15,253.3,477.55,248.1,475,244.1Z" transform="translate(0)"/><path class="cls-1" d="M659.75,342.6c-32.2,24.4-96.3,16.7-116.2,58.5-60.2,126.5-111.8,30.1-164.5,19.7l-.5-2.6c52.8,4.4,109.4-2.4,163.8-19.6,49.1-15.6,92.9-38.7,126.7-67l1.8,2.2C667.15,336.8,663.55,339.7,659.75,342.6Z" transform="translate(0)"/><circle class="cls-1" cx="240.25" cy="155.66" r="10.7"/><circle class="cls-1" cx="412.75" cy="144.96" r="10.7"/><circle class="cls-1" cx="311.55" cy="83.75" r="10.7"/></svg>