<svg id="Layer_1" data-name="Layer 1" xmlns="http://www.w3.org/2000/svg" viewBox="0 0 233.12711 251.98001">
  <defs>
    <style>
      .cls-1 {
        fill: #a0ebff;
      }

      .cls-16, .cls-17, .cls-2, .cls-39, .cls-4, .cls-40, .cls-41 {
        fill: none;
      }

      .cls-2 {
        stroke: #41b4e6;
        stroke-width: 1.39902px;
      }

      .cls-16, .cls-17, .cls-2, .cls-39, .cls-40, .cls-41 {
        stroke-miterlimit: 10;
      }

      .cls-3 {
        fill: #b9d1f0;
      }

      .cls-5 {
        fill: #e1faff;
      }

      .cls-6 {
        fill: #73c8f0;
      }

      .cls-7 {
        fill: #fa968c;
      }

      .cls-8 {
        fill: #96dbbf;
      }

      .cls-9 {
        fill: #fab9af;
      }

      .cls-10 {
        fill: #695a6e;
      }

      .cls-11 {
        fill: #0091c8;
      }

      .cls-12 {
        fill: #5c4f61;
      }

      .cls-13 {
        fill: #828291;
      }

      .cls-14 {
        fill: #55c7a6;
      }

      .cls-15 {
        fill: #cd5014;
      }

      .cls-16 {
        stroke: #82c8e6;
      }

      .cls-16, .cls-17 {
        stroke-linecap: round;
        stroke-width: 2.20251px;
      }

      .cls-17 {
        stroke: #fff;
      }

      .cls-18 {
        fill: #46738c;
      }

      .cls-19 {
        fill: #3c5a73;
      }

      .cls-20 {
        fill: #c8e6eb;
      }

      .cls-21 {
        fill: #6c9baa;
      }

      .cls-22 {
        fill: #ff8291;
      }

      .cls-23 {
        opacity: 0.09;
      }

      .cls-24 {
        fill: #fff;
      }

      .cls-25 {
        fill: #965028;
      }

      .cls-26 {
        fill: #ffdc64;
      }

      .cls-27 {
        fill: #0073aa;
      }

      .cls-28 {
        fill: #195fa0;
      }

      .cls-29 {
        fill: #fac855;
      }

      .cls-30 {
        fill: #1e2d64;
      }

      .cls-31 {
        fill: #6544aa;
      }

      .cls-32 {
        fill: #57388c;
      }

      .cls-33 {
        fill: #7450c8;
      }

      .cls-34 {
        fill: #fa735f;
      }

      .cls-35 {
        fill: #ffdcd7;
      }

      .cls-36 {
        fill: #ffebb4;
      }

      .cls-37 {
        fill: #ffdc8c;
      }

      .cls-38 {
        fill: #fffad7;
      }

      .cls-39 {
        stroke: #0091c8;
        stroke-width: 1.1594px;
      }

      .cls-40 {
        stroke: #c8e6eb;
        stroke-width: 1.27294px;
      }

      .cls-41 {
        stroke: #87afb9;
        stroke-width: 2.54589px;
      }

      .cls-42 {
        fill: #a5c8cd;
      }

      .cls-43 {
        fill: #87afb9;
      }

      .cls-44 {
        fill: #dcbe82;
      }

      .cls-45 {
        fill: #c8a06e;
      }

      .cls-46 {
        fill: #e6ca93;
      }

      .cls-47 {
        fill: #6ee1ff;
      }
    </style>
  </defs>
  <title>register</title>
  <g>
    <path class="cls-1" d="M226.64283,177.71c0,28.46-29.2699,51.53-65.36,51.53a80.64436,80.64436,0,0,1-24.58008-3.76,53.755,53.755,0,0,0-36.34986,1.4,71.64948,71.64948,0,0,1-26.38012,4.84c-28.21,0-51.09-15.09-51.09-33.7a25.20875,25.20875,0,0,1,6.26-16.18,54.70326,54.70326,0,0,0,12.8-38.38q-.09-1.455-.09-2.94A48.62012,48.62012,0,0,1,48.894,115.49486a6.76306,6.76306,0,0,0-1.46469-8.5544L47.38282,106.9c-21.25-18.56-28.56-44.97-16.31994-58.99a24.76263,24.76263,0,0,1,13.91-7.8A68.92479,68.92479,0,0,0,82.96278,17.3c.06006-.08.13012-.15.20007-.23,21.12-24.19995,62.72-22.46,92.91,3.89,21.74,18.97,31.62988,45.53,27.56994,67.96-1.86,10.29-6.36,30.06,4.78524,49.75594C209.42238,140.4331,226.64283,164.815,226.64283,177.71Z" transform="translate(-0.07554 0)"/>
    <g>
      <path class="cls-2" d="M150.03048,57.15074c-.47,0-.9366.01176-1.40135.02919a19.74538,19.74538,0,0,0,.59742-4.80311c0-12.36938-11.48149-22.39681-25.64463-22.39681-13.96939,0-25.32183,9.7567-25.63015,21.89228C87.42394,56.60953,80.14933,66.73152,80.14933,78.456c0,16.26251,13.99366,29.4459,31.25593,29.4459a32.31938,32.31938,0,0,0,19.70818-6.59557,34.42626,34.42626,0,0,0,18.917,5.4598c16.70077,0,30.23951-11.10676,30.23951-24.80761S166.73125,57.15074,150.03048,57.15074Z" transform="translate(-0.07554 0)"/>
      <line class="cls-2" x1="131.00587" y1="68.94094" x2="131.00587" y2="134.17656"/>
      <polyline class="cls-2" points="100.975 78.722 131.006 93.355 155.704 79.539"/>
      <polyline class="cls-2" points="116.995 52.818 131.006 78.722 142.356 67.639"/>
    </g>
    <rect class="cls-3" y="247.65348" width="93.06545" height="2.19403"/>
    <rect class="cls-4" x="27.81088" y="249.78598" width="51.60365" height="2.19403"/>
    <rect class="cls-3" x="173.10806" y="248.24794" width="50.86891" height="2.19396"/>
    <g>
      <g>
        <path class="cls-2" d="M232.50309,195.38251c.02428,13.13613-7.84194,23.79966-17.56972,23.81759S197.3,208.58375,197.27572,195.44769s17.55258-33.07231,17.55258-33.07231S232.47874,182.24645,232.50309,195.38251Z" transform="translate(-0.07554 0)"/>
        <line class="cls-2" x1="214.75276" y1="162.37538" x2="214.87689" y2="229.49308"/>
        <polyline class="cls-2" points="226.218 201.713 214.847 213.126 203.433 201.755"/>
        <polyline class="cls-2" points="226.428 190.368 214.826 202.013 203.181 190.411"/>
        <polyline class="cls-2" points="224.356 180.52 214.804 190.107 205.217 180.555"/>
        <polyline class="cls-2" points="219.65 173.364 214.782 178.25 209.896 173.382"/>
      </g>
      <rect class="cls-2" x="203.06441" y="229.24488" width="23.49891" height="4.94626"/>
      <polygon class="cls-2" points="221.552 247.946 208.594 247.946 205.483 234.191 224.144 234.191 221.552 247.946"/>
    </g>
  </g>
  <g>
    <g>
      <path class="cls-5" d="M54.32377,88.11538h53.13295a3.20938,3.20938,0,0,1,3.20938,3.20938V112.6387a3.20929,3.20929,0,0,1-3.20929,3.20929h-53.133a3.20927,3.20927,0,0,1-3.20927-3.20927V91.32463a3.20925,3.20925,0,0,1,3.20925-3.20925Z" transform="translate(-14.07625 12.8795) rotate(-8.38115)"/>
      <rect class="cls-6" x="55.43386" y="96.40357" width="13.63583" height="16.09789" transform="translate(-14.63586 10.18951) rotate(-8.3814)"/>
      <rect class="cls-6" x="72.42339" y="93.50272" width="17.96896" height="1.54423" transform="translate(-12.94762 12.87289) rotate(-8.38131)"/>
      <rect class="cls-6" x="73.06815" y="97.5291" width="27.51494" height="1.5442" transform="translate(-13.4764 13.7053) rotate(-8.38114)"/>
      <rect class="cls-6" x="73.76384" y="102.25115" width="27.51494" height="1.5442" transform="translate(-14.15746 13.85737) rotate(-8.38128)"/>
      <rect class="cls-6" x="74.45955" y="106.97319" width="27.51497" height="1.5442" transform="translate(-14.83806 14.00893) rotate(-8.38112)"/>
    </g>
    <g>
      <path class="cls-7" d="M56.55228,113.30276c.373.25164.56051.41766,1.18217-.25151,3.49974-3.61487,6.12711-18.91261,5.99782-18.25085a.83658.83658,0,0,1,1.65581.19308c-1.281,32.63572-13.27343,25.37963-19.045,12.33938a2.917,2.917,0,1,1,5.41208-2.16849C52.59768,107.49868,54.71635,112.05574,56.55228,113.30276Z" transform="translate(-0.07554 0)"/>
      <path class="cls-8" d="M55.11978,111.22936l-.01509-.02111c-.66777-.97758-1.28711-1.999-1.85855-3.04636a33.61022,33.61022,0,0,1-1.54683-3.12436l-.02-.04837q-.04884-.11572-.10839-.229a2.91857,2.91857,0,1,0-5.16522,2.719,36.46446,36.46446,0,0,0,2.16492,3.58338c.5269.75988,1.08769,1.49714,1.66521,2.22314C50.666,112.82654,54.09218,111.59772,55.11978,111.22936Z" transform="translate(-0.07554 0)"/>
      <path class="cls-9" d="M52.26141,131.49949C49.72218,134.413,35.065,135.62923,35.065,135.62923c-1.08166-1.25543.49971-6.9619.881-12.75414.41237-6.263.64985-13.17563.75863-16.91047a2.847,2.847,0,0,1,2.8487-2.76414h9.30124a2.74954,2.74954,0,0,1,2.74515,2.52269c.244,2.95729.66858,8.09736,1.08749,13.13626C53.11228,123.97231,54.45637,128.981,52.26141,131.49949Z" transform="translate(-0.07554 0)"/>
      <path class="cls-7" d="M43.806,180.19078l.02118,5.76471-.50064,2.80761a.80555.80555,0,0,0,.76657.95092c2.35992.07239,8.40293.23172,8.56478-.03011.75982-1.229-2.67475-1.70213-5.18738-2.67475s-.77888-10.51292-.77888-10.51292Z" transform="translate(-0.07554 0)"/>
      <path class="cls-10" d="M47.47052,187.00916c-.01344-.00522-.02508-.01416-.03831-.01985a5.75306,5.75306,0,0,1-2.03192.35493,5.90709,5.90709,0,0,1-1.77426-.26084l-.29948,1.6797a.80558.80558,0,0,0,.76657.95092c2.35992.07239,8.40286.23172,8.56478-.03017C53.41772,188.45489,49.98322,187.98178,47.47052,187.00916Z" transform="translate(-0.07554 0)"/>
      <path class="cls-11" d="M52.25764,133.60049c.09092,4.00679-1.48509,29.42745-4.598,29.49805S41.07582,137.863,40.9849,133.85623s2.35892-7.3122,5.47178-7.3828S52.16679,129.59369,52.25764,133.60049Z" transform="translate(-0.07554 0)"/>
      <path class="cls-10" d="M43.36017,157.81793a231.69331,231.69331,0,0,0,.13743,23.51586h2.83382c1.52175-6.96383,3.14832-20.46011,3.45031-22.61636.00384-.02759.00543-.05446.009-.082,1.69353-7.492,2.53394-22.08045,2.46691-25.035-.09085-4.0068-2.68811-7.19773-5.801-7.12706s-5.5627,3.376-5.47178,7.3828C41.04194,136.37164,43.50647,156.77345,43.36017,157.81793Z" transform="translate(-0.07554 0)"/>
      <path class="cls-12" d="M48.438,139.9189a19.01111,19.01111,0,0,1,3.70474-3.5947l.06107-.059c.04777-1.19779.0661-2.12634.05386-2.66469-.09092-4.0068-2.68812-7.19773-5.801-7.12706s-5.56263,3.37594-5.47178,7.3828c.02944,1.297.69881,7.34906,1.32047,13.0515A53.69349,53.69349,0,0,1,48.438,139.9189Z" transform="translate(-0.07554 0)"/>
      <path class="cls-7" d="M37.0049,180.19078l.02111,5.76471-.50063,2.80761a.80558.80558,0,0,0,.76656.95092c2.36.07239,8.40293.23172,8.56485-.03011.75982-1.229-2.67475-1.70213-5.18738-2.67475s-.779-10.51292-.779-10.51292Z" transform="translate(-0.07554 0)"/>
      <path class="cls-10" d="M40.66941,187.00916c-.0135-.00522-.02508-.01416-.03832-.01985a5.75336,5.75336,0,0,1-2.032.35493,5.90628,5.90628,0,0,1-1.77419-.26084l-.29954,1.6797a.80561.80561,0,0,0,.76656.95092c2.36.07239,8.40293.23172,8.56479-.03017C46.61654,188.45489,43.182,187.98178,40.66941,187.00916Z" transform="translate(-0.07554 0)"/>
      <path class="cls-11" d="M45.45653,133.60049c.09092,4.00679-1.48516,29.42745-4.598,29.49805s-5.91055-25.32888-6.00146-29.33567,1.68559-7.21884,4.7985-7.28944S45.36562,129.59369,45.45653,133.60049Z" transform="translate(-0.07554 0)"/>
      <path class="cls-13" d="M36.559,157.81793a231.6963,231.6963,0,0,0,.13743,23.51586h2.83382c1.52175-6.96383,3.14832-20.46011,3.45038-22.61636.00384-.02759.00536-.05446.009-.082a177.19946,177.19946,0,0,0,3.14018-25.12833c-.09092-4.00679-3.36138-7.10436-6.4743-7.03369s-4.88935,3.28257-4.79844,7.28944C34.9141,136.27828,36.70529,156.77345,36.559,157.81793Z" transform="translate(-0.07554 0)"/>
      <path class="cls-14" d="M48.94278,103.20048H47.43161a3.70626,3.70626,0,0,1-6.73613,0H39.31632a2.60026,2.60026,0,0,0-2.60475,2.52461c-.1054,3.67284-.34421,10.7506-.76557,17.15-.38133,5.79224-1.9627,11.17482-.88111,12.75407,0,0,14.65729-1.21618,17.19652-4.12967,2.195-2.51852.85087-7.52718.4258-12.64006-.423-5.088-.85179-10.27908-1.09457-13.22208A2.65573,2.65573,0,0,0,48.94278,103.20048Z" transform="translate(-0.07554 0)"/>
      <path class="cls-7" d="M66.272,93.36334s.06095,2.06076-.628,2.44084-1.221.50877-1.81164-.47324a8.3061,8.3061,0,0,1-.94271-3.62851,1.90335,1.90335,0,0,1,.14253-1.10568,1.57542,1.57542,0,0,1,1.323-.86192c.60538.07557.81885.54636.20447.65064-.23815.04043-.26878.42249-.28208.70993-.04156.89771.00059,1.91579.4383,1.81362s1.16272-2.16968,1.68036-2.0079C67.0873,91.1171,66.272,93.36334,66.272,93.36334Z" transform="translate(-0.07554 0)"/>
      <path class="cls-9" d="M40.83979,104.47039c.14021.17906.3949.48066.61054.72575.22154.26116.45372.5226.69054.78013,6.2979,6.97216,15.04967,11.79435,24.39941,10.90974a30.94349,30.94349,0,0,0,4.37993-.68088l.03513-.00708a.8379.8379,0,0,1,.51724,1.58038c-13.39081,6.19507-28.00714-.47728-35.26707-9.7715a2.91454,2.91454,0,0,1,4.59385-3.58815Z" transform="translate(-0.07554 0)"/>
      <path class="cls-8" d="M45.31824,108.95725a57.29359,57.29359,0,0,1-4.61946-5.00761s-1.18038-1.395-3.60931-.37782c-1.93995.81236-1.5471,3.10445-1.5471,3.10445.04692.319,1.22366,3.57517,5.68378,6.91876C41.22615,113.595,45.647,109.25223,45.31824,108.95725Z" transform="translate(-0.07554 0)"/>
      <path class="cls-15" d="M40.39132,94.07207H43.0328a0,0,0,0,1,0,0v6.10255a0,0,0,0,1,0,0h-.94958a1.69189,1.69189,0,0,1-1.69189-1.69189V94.07207A0,0,0,0,1,40.39132,94.07207Z" transform="translate(-20.14783 11.35894) rotate(-12.52652)"/>
      <polygon class="cls-9" points="45.891 103.2 41.029 103.2 42.43 98.352 45.746 98.762 45.891 103.2"/>
      <path class="cls-7" d="M45.82112,98.762,42.506,98.35162l-.65335,2.2596c.74208.83677,1.84287,2.13547,3.0492,2.13547a1.91859,1.91859,0,0,0,1.04494-.307Z" transform="translate(-0.07554 0)"/>
      <path class="cls-9" d="M46.323,101.33908h0a4.05027,4.05027,0,0,1-4.83285-3.07447l-.97937-4.40428,6.78106-1.50792a35.26914,35.26914,0,0,1,.78662,5.86852C48.095,100.04422,47.436,101.09154,46.323,101.33908Z" transform="translate(-0.07554 0)"/>
      <rect class="cls-15" x="40.57335" y="95.48139" width="1.30558" height="0.59204" transform="translate(-19.88248 11.23233) rotate(-12.53668)"/>
      <path class="cls-9" d="M42.45471,97.17606c.1911.85934-.06531,1.64748-.57275,1.76029s-1.31743-.88911-1.50859-1.74851a1.03124,1.03124,0,0,1,.81652-1.36348C41.69734,95.71154,42.26361,96.31666,42.45471,97.17606Z" transform="translate(-0.07554 0)"/>
      <path class="cls-15" d="M48.165,94.0591a3.90322,3.90322,0,0,0-.27817-1.71026h0a2.67577,2.67577,0,0,0-3.4222-1.44679,3.96687,3.96687,0,0,1-.44545.12619l-2.28878.508a2.55042,2.55042,0,0,0-1.937,3.04344l.11865.53346,1.35692.78688.553.96322.08966-.01992a.843.843,0,0,0,.65-.95237,1.32807,1.32807,0,0,1,.95541-1.57945l2.03119-.45167c1.2365-.275,2.02682.24595,2.23248,1.17079l.11076.79641Z" transform="translate(-0.07554 0)"/>
      <path class="cls-9" d="M73.18371,115.56263s-2.44078.1721-2.63525.93444-.18527,1.30981.91373,1.63437a8.305,8.305,0,0,0,3.74894-.0004,6.36969,6.36969,0,0,0,2.5477-1.58216c.29088-.81434-1.45082-.17985-2.3093.08622s-1.85432.48137-1.86557.032,1.6711-.83532,1.82846-1.35435S73.18371,115.56263,73.18371,115.56263Z" transform="translate(-0.07554 0)"/>
      <g>
        <line class="cls-16" x1="41.60328" y1="120.19386" x2="18.08219" y2="248.56688"/>
        <line class="cls-16" x1="45.90617" y1="248.56688" x2="69.42725" y2="120.19386"/>
        <line class="cls-16" x1="67.21053" y1="128.48821" x2="40.01403" y2="128.48821"/>
        <line class="cls-16" x1="65.40253" y1="140.94703" x2="37.82648" y2="140.94703"/>
        <line class="cls-16" x1="62.88897" y1="153.40585" x2="35.55907" y2="153.40585"/>
        <line class="cls-16" x1="60.45838" y1="165.86467" x2="33.29172" y2="165.86467"/>
        <line class="cls-16" x1="58.50587" y1="178.32349" x2="31.02438" y2="178.32349"/>
        <line class="cls-16" x1="56.66075" y1="190.56019" x2="28.79746" y2="190.56019"/>
        <line class="cls-16" x1="53.92605" y1="203.2412" x2="26.48969" y2="203.2412"/>
        <line class="cls-16" x1="52.04632" y1="215.70003" x2="24.53512" y2="215.70003"/>
        <line class="cls-16" x1="49.32883" y1="228.09202" x2="21.81756" y2="228.09202"/>
      </g>
      <g>
        <line class="cls-17" x1="69.42725" y1="120.19386" x2="92.753" y2="248.89303"/>
        <line class="cls-17" x1="64.92902" y1="248.89303" x2="41.60328" y2="120.19386"/>
        <line class="cls-17" x1="43.82" y1="128.48821" x2="70.93677" y2="128.48821"/>
        <line class="cls-17" x1="45.628" y1="140.94703" x2="73.20411" y2="140.94703"/>
        <line class="cls-17" x1="48.14156" y1="153.40585" x2="75.47146" y2="153.40585"/>
        <line class="cls-17" x1="50.57214" y1="165.86467" x2="77.73881" y2="165.86467"/>
        <line class="cls-17" x1="52.52466" y1="178.32349" x2="80.00615" y2="178.32349"/>
        <line class="cls-17" x1="54.36978" y1="190.56019" x2="82.23307" y2="190.56019"/>
        <line class="cls-17" x1="57.10448" y1="203.2412" x2="84.54084" y2="203.2412"/>
        <line class="cls-17" x1="58.9842" y1="215.70003" x2="86.49541" y2="215.70003"/>
        <line class="cls-17" x1="61.37562" y1="228.09202" x2="88.88688" y2="228.09202"/>
      </g>
      <path class="cls-15" d="M41.3168,92.45351c-.15523,1.25642,4.36021,2.84818,5.551,2.99534a2.2955,2.2955,0,0,0,.562-4.54984C46.239,90.75191,41.472,91.1971,41.3168,92.45351Z" transform="translate(-0.07554 0)"/>
    </g>
    <path class="cls-9" d="M194.97371,205.54984a4.70425,4.70425,0,0,1-2.55339.53961c-.90884-.28294-.27051-.6515-.08113-.53961s1.211-.38861,1.211-.38861A2.95323,2.95323,0,0,1,194.97371,205.54984Z" transform="translate(-0.07554 0)"/>
    <path class="cls-7" d="M83.87582,161.66188s-.20816,2.39486-.96018,2.57365-1.28957.161-1.59077-.92372a8.16064,8.16064,0,0,1,.06055-3.68264,6.257,6.257,0,0,1,1.595-2.47723c.80455-.27268.15338,1.42806-.12175,2.267s-.50255,1.81383-.06134,1.832.84729-1.62809,1.35971-1.77433S83.87582,161.66188,83.87582,161.66188Z" transform="translate(-0.07554 0)"/>
    <g>
      <path class="cls-18" d="M162.31218,245.7015V123.06023a4.21625,4.21625,0,0,0-4.21629-4.21628H92.89412a4.21625,4.21625,0,0,0-4.21629,4.21628V245.7015Z" transform="translate(-0.07554 0)"/>
      <path class="cls-19" d="M88.60229,234.54548h73.63434a0,0,0,0,1,0,0V243.839a6.372,6.372,0,0,1-6.372,6.372H94.97429a6.372,6.372,0,0,1-6.372-6.372v-9.29357A0,0,0,0,1,88.60229,234.54548Z"/>
      <rect class="cls-20" x="93.21639" y="127.54768" width="64.40615" height="106.9978"/>
      <rect class="cls-19" x="93.20785" y="127.52717" width="64.40622" height="7.01914"/>
      <path class="cls-21" d="M130.11059,242.4082a4.61559,4.61559,0,1,1-4.61562-4.61561A4.61557,4.61557,0,0,1,130.11059,242.4082Z" transform="translate(-0.07554 0)"/>
      <rect class="cls-18" x="97.64593" y="130.63618" width="24.4266" height="0.84193"/>
      <rect class="cls-18" x="153.72929" y="130.21482" width="2.10523" height="1.96542"/>
      <rect class="cls-18" x="149.5175" y="130.21482" width="2.10523" height="1.96542"/>
      <rect class="cls-18" x="145.30631" y="130.21482" width="2.10523" height="1.96542"/>
    </g>
    <rect class="cls-22" x="147.3737" y="143.90352" width="7.40801" height="19.37202"/>
    <rect class="cls-22" x="141.03173" y="143.90352" width="7.40795" height="32.93097"/>
    <path class="cls-23" d="M85.8689,141.09459h53.1329a3.2094,3.2094,0,0,1,3.2094,3.2094v21.3138a3.2094,3.2094,0,0,1-3.2094,3.2094H85.8689a3.20931,3.20931,0,0,1-3.20931-3.20931v-21.314A3.20931,3.20931,0,0,1,85.8689,141.09459Z"/>
    <path class="cls-24" d="M85.86889,140.25225H139.0018a3.2094,3.2094,0,0,1,3.2094,3.2094v21.3139a3.2093,3.2093,0,0,1-3.2093,3.2093h-53.133a3.2093,3.2093,0,0,1-3.2093-3.2093v-21.314A3.2093,3.2093,0,0,1,85.86889,140.25225Z"/>
    <path class="cls-9" d="M199.43429,244.37713l.02448.3497a6.60719,6.60719,0,0,1-.651,3.1994c.66043-.05657,3.20747-.48872,4.45019-4.203-.21862-.21041-.44631-.43109-.63476-.61755a3.98035,3.98035,0,0,0-.882-.60538,3.509,3.509,0,0,1-1.35785-1.27891l-2.91726-4.84251-.52691,3.24307,1.81965,2.76024A4.1525,4.1525,0,0,1,199.43429,244.37713Z" transform="translate(-0.07554 0)"/>
    <path class="cls-25" d="M200.45216,249.52725c.51083-.17045,3.29079-4.6393,3.29079-4.6393a.59563.59563,0,0,0-.076-.77252c-.24086-.23-.55086-.52876-.83-.80137-.68518,2.25775-2.166,4.68476-4.07911,4.50643-.77749-.07245-2.15486.6255-2.13693,1.75864A16.92646,16.92646,0,0,0,200.45216,249.52725Z" transform="translate(-0.07554 0)"/>
    <path class="cls-7" d="M74.19728,175.58992c3.95473-1.15121,7.65913-12.478,7.41761-11.81586a.822.822,0,0,1,1.58032.426,45.74262,45.74262,0,0,1-1.99791,7.86716c-1.802,5.2959-5.59233,9.39877-10.96268,7.31915-3.89516-1.55782-7.37168-6.173-9.25207-9.64572a2.8664,2.8664,0,1,1,5.14483-2.518C67.3756,170.05442,71.165,176.54964,74.19728,175.58992Z" transform="translate(-0.07554 0)"/>
    <path class="cls-26" d="M69.8206,173.0491c-.00475-.00708-3.2653-4.80976-3.662-5.75908l-.01965-.04751q-.04794-.11374-.10647-.225a2.86732,2.86732,0,0,0-5.0745,2.67124,35.82188,35.82188,0,0,0,2.12687,3.52039c.51771.74658,1.06863,1.47087,1.636,2.18417A32.12146,32.12146,0,0,1,69.8206,173.0491Z" transform="translate(-0.07554 0)"/>
    <path class="cls-9" d="M66.71073,193.28721c-2.49457,2.86227-16.89439,4.05715-16.89439,4.05715-1.06261-1.23339.491-6.83962.86562-12.53009.40509-6.15292.63846-12.94423.74526-16.61344a2.79706,2.79706,0,0,1,2.79868-2.71564h9.13787a2.70126,2.70126,0,0,1,2.69692,2.47843c.23966,2.90534.65679,7.95516,1.06836,12.90553C67.54671,185.89223,68.86718,190.813,66.71073,193.28721Z" transform="translate(-0.07554 0)"/>
    <path class="cls-7" d="M48.41845,240.89717l-1.786,5.8895-.49184,2.75832a.79136.79136,0,0,0,.75307.93417c2.3185.07113,8.25537.22769,8.41438-.02958.74652-1.20745-2.62777-1.67222-5.09627-2.62776-1.15914-.4487.92153-6.30809.92153-6.30809a5.124,5.124,0,0,0-1.68671-4.02016Z" transform="translate(-0.07554 0)"/>
    <path class="cls-18" d="M50.21183,247.82182c-.01317-.0051-.02461-.0139-.03758-.01952a5.652,5.652,0,0,1-1.99626.34877,5.80463,5.80463,0,0,1-1.74308-.25627l-.29426,1.65019a.79137.79137,0,0,0,.75314.93417c2.31843.07113,8.25524.22769,8.41431-.02958C56.05455,249.24213,52.6804,248.77736,50.21183,247.82182Z" transform="translate(-0.07554 0)"/>
    <path class="cls-27" d="M53.23932,217.03333c-.80355,2.17782-3.98754,16.55971-5.0737,23.98149l2.88622.62827c3.09393-6.75526,7.74277-20.14064,8.52846-22.26989.01-.02726.0176-.05426.02739-.08146,3.38587-7.25522,7.47623-21.92727,8.063-24.95125.79575-4.10109-1.14208-7.92691-4.32825-8.54513s-6.41408,2.20521-7.20983,6.30637C55.63305,194.67629,53.61993,216.002,53.23932,217.03333Z" transform="translate(-0.07554 0)"/>
    <path class="cls-28" d="M61.21467,200.99133a19.60092,19.60092,0,0,1,5.80732-3.93659c.31589-1.21559.54139-2.16128.64872-2.71425.79568-4.10109-1.14208-7.92691-4.32825-8.54513s-6.41408,2.20515-7.20983,6.3063c-.23292,1.20024-.79469,6.47556-1.36672,11.87A54.36151,54.36151,0,0,1,61.21467,200.99133Z" transform="translate(-0.07554 0)"/>
    <path class="cls-7" d="M64.81943,240.69588l1.24265,6.09079-.49184,2.75832a.79138.79138,0,0,0,.75314.93417c2.31849.07113,8.25531.22769,8.41431-.02958.74651-1.20745-2.62771-1.67222-5.09627-2.62776-2.26053-2.33537-2.26053-8.59992-2.26053-8.59992Z" transform="translate(-0.07554 0)"/>
    <path class="cls-18" d="M69.64149,247.82182c-.01324-.0051-.02469-.0139-.03765-.01952a5.65177,5.65177,0,0,1-1.99626.34877,5.80509,5.80509,0,0,1-1.74309-.25627l-.29425,1.65019a.79145.79145,0,0,0,.75314.93417c2.31849.07113,8.25531.22769,8.41431-.02958C75.4842,249.24213,72.11,248.77736,69.64149,247.82182Z" transform="translate(-0.07554 0)"/>
    <path class="cls-11" d="M58.41705,220.07452a227.63052,227.63052,0,0,0,6.62272,22.13365l2.67183-.78251c-.48806-6.98592-2.68109-20.15977-2.9917-22.27625-.004-.02706-.00992-.0528-.01416-.07973a174.09076,174.09076,0,0,0-3.97768-24.55894c-1.192-3.75264-5.13087-5.77007-8.04634-4.844s-3.70341,4.445-2.51138,8.19774C50.91871,200.22033,58.26658,219.04937,58.41705,220.07452Z" transform="translate(-0.07554 0)"/>
    <path class="cls-29" d="M63.45045,165.48519h-1.4847a3.6411,3.6411,0,0,1-6.61775,0H53.99306a2.55463,2.55463,0,0,0-2.559,2.48028c-.10356,3.60839-.33819,10.56182-.75208,16.8488-.37465,5.69047-1.92823,10.97856-.86562,12.53,0,0,15.19133-.996,17.95-3.60468.89242-.84392-.21961-7.84738-.63727-12.87046-.41554-4.99861-.83677-10.09858-1.07531-12.98983A2.6091,2.6091,0,0,0,63.45045,165.48519Z" transform="translate(-0.07554 0)"/>
    <path class="cls-9" d="M76.33349,172.91c6.41408-2.9207,7.35567-5.97611,8.46095-4.62461a.824.824,0,0,1,.00549,1.03567c-11.92768,14.904-26.86075,10.68543-33.93825.78285-2.17888-3.0486,2.40259-6.41753,4.65935-3.32936C61.16392,174.49648,68.97311,176.17724,76.33349,172.91Z" transform="translate(-0.07554 0)"/>
    <path class="cls-26" d="M59.88957,171.0643a60.24284,60.24284,0,0,1-4.53833-4.843s-1.15968-1.37056-3.54592-.37121A2.842,2.842,0,0,0,50.28541,168.9c.04605.31338,1.28738,3.4175,5.66916,6.70233C55.95457,175.6023,60.21247,171.35405,59.88957,171.0643Z" transform="translate(-0.07554 0)"/>
    <path class="cls-30" d="M55.04917,156.51717h2.59512a0,0,0,0,1,0,0v5.99544a0,0,0,0,1,0,0h-.93305a1.66207,1.66207,0,0,1-1.66207-1.66207v-4.33337A0,0,0,0,1,55.04917,156.51717Z" transform="translate(-33.3424 16.02496) rotate(-12.5308)"/>
    <polygon class="cls-9" points="60.451 165.485 55.674 165.485 57.051 160.722 60.308 161.125 60.451 165.485"/>
    <path class="cls-7" d="M60.38365,161.12466l-3.257-.4031-.64183,2.2199c.729.82208,1.81051,2.09795,2.99566,2.09795a1.885,1.885,0,0,0,1.02655-.30153Z" transform="translate(-0.07554 0)"/>
    <path class="cls-9" d="M60.87661,163.65655h0a3.97916,3.97916,0,0,1-4.74795-3.02048l-.96216-4.32692,6.66195-1.48146a34.64963,34.64963,0,0,1,.77279,5.7655C62.61752,162.38438,61.97012,163.41338,60.87661,163.65655Z" transform="translate(-0.07554 0)"/>
    <rect class="cls-30" x="55.22802" y="157.90172" width="1.28264" height="0.58166" transform="translate(-33.0842 15.90072) rotate(-12.53778)"/>
    <path class="cls-9" d="M57.07634,159.56664c.18771.84425-.06419,1.6185-.56271,1.7294s-1.29433-.87357-1.48205-1.71782a1.01309,1.01309,0,0,1,.80216-1.33952C56.33226,158.1278,56.88861,158.72233,57.07634,159.56664Z" transform="translate(-0.07554 0)"/>
    <path class="cls-30" d="M62.68627,156.50441a3.83382,3.83382,0,0,0-.27328-1.68023h0a2.62867,2.62867,0,0,0-3.36205-1.42131,3.91758,3.91758,0,0,1-.43764.12394l-2.24862.49911a2.50556,2.50556,0,0,0-1.90288,2.99l.11652.52412,1.33311.77305.54331.94629.08807-.01959a.82809.82809,0,0,0,.63853-.93563,1.30485,1.30485,0,0,1,.93867-1.55173l1.99553-.44373c1.2148-.27017,1.99122.24165,2.19323,1.15022l.10885.78245Z" transform="translate(-0.07554 0)"/>
    <path class="cls-30" d="M55.95841,154.927c-.15252,1.23438,4.28358,2.79822,5.45358,2.94273a2.25517,2.25517,0,0,0,.55211-4.46991C60.79417,153.25532,56.11086,153.69269,55.95841,154.927Z" transform="translate(-0.07554 0)"/>
    <path class="cls-24" d="M174.26189,156.16993a5.3269,5.3269,0,0,1,.19447,3.42,5.579,5.579,0,0,0,1.22539,5.42923,18.26309,18.26309,0,0,1,.76451-3.61488C176.93294,160.23369,176.61341,156.78834,174.26189,156.16993Z" transform="translate(-0.07554 0)"/>
    <path class="cls-24" d="M178.02618,155.43294s-2.57569,1.62081-2.26245,3.80458c0,0-1.37565-.97421-1.68691-4.32983C173.86117,152.58264,178.02618,155.43294,178.02618,155.43294Z" transform="translate(-0.07554 0)"/>
    <path class="cls-24" d="M192.12857,165.608a5.31035,5.31035,0,0,1-2.87179-2.8538,8.201,8.201,0,0,0-4.26625-4.60761,2.54726,2.54726,0,0,1-1.56026-2.33325h-2.54592v1.9416c-3.49855.79131-6.14015,4.36325-6.14015,8.6543,0,4.70276,3.174,8.53481,7.17047,8.79591.56667,4.222,3.70453,7.45632,7.5019,7.45632,4.19855,0,7.60209-3.94937,7.60209-8.82119A8.86664,8.86664,0,0,0,192.12857,165.608Z" transform="translate(-0.07554 0)"/>
    <path class="cls-9" d="M176.07975,173.00774c-4.75781,8.30117-14.82026,4.30291-22.6765-1.67162a.808.808,0,0,1,.83267-1.37307c7.10616,3.35556,16.96473,6.51486,17.62993-1.28878.00681-.06749.01528-.20208.00582-.16039C172.219,164.2033,180.67188,165.05192,176.07975,173.00774Z" transform="translate(-0.07554 0)"/>
    <path class="cls-9" d="M171.57914,193.06759c2.44739,2.80808,16.5744,3.98027,16.5744,3.98027,1.04249-1.21-3.81576-15.02248-3.81576-15.02248s2.34019-9.96928,2.23538-13.56894a2.744,2.744,0,0,0-2.74568-2.66416h-8.96471a2.65007,2.65007,0,0,0-2.64589,2.43145c-.2351,2.85029,3.48829,13.48953,3.48829,13.48953S169.46359,190.64019,171.57914,193.06759Z" transform="translate(-0.07554 0)"/>
    <path class="cls-7" d="M179.88632,248.85809a7.50085,7.50085,0,0,0,3.39215-.73613l-.341-1.95735a2.10058,2.10058,0,0,1-.02912-.45358l.21063-4.77092a1.95557,1.95557,0,0,0-.86332-1.70967h0a1.00167,1.00167,0,0,0-1.55907.89242c.14544,2.466.13274,6.32807-1.31392,6.81818-.4205.14246-3.05654,1.04143-3.5008,1.17132A12.99446,12.99446,0,0,0,179.88632,248.85809Z" transform="translate(-0.07554 0)"/>
    <path class="cls-25" d="M179.28485,248.31444a16.84085,16.84085,0,0,1-3.0224-.27883.797.797,0,0,0-.40052.02891c-1.13573.39146-1.87186.81-1.4892,1.43455.1551.253,5.98.12254,8.25477.06186a.77652.77652,0,0,0,.74255-.91359l-.14881-.85371A15.964,15.964,0,0,1,179.28485,248.31444Z" transform="translate(-0.07554 0)"/>
    <path class="cls-9" d="M183.66675,221.99441c1.68182,2.43019,15.30859,21.09811,15.98676,20.35338.5881-.64574-9.16586-21.47964-10.84768-23.90982s-4.31243-2.88133-5.73155-1.89925S181.98494,219.56416,183.66675,221.99441Z" transform="translate(-0.07554 0)"/>
    <path class="cls-7" d="M176.58773,221.18484c.34362,1.9322,2.85394,12.52228,4.53238,19.33444.84908,3.44634,1.21843,5.95937,1.52976,5.82677.80355-.34229.60842-23.3456.091-26.25538s-2.31426-5.02368-4.01341-4.72155S176.07029,218.27506,176.58773,221.18484Z" transform="translate(-0.07554 0)"/>
    <path class="cls-7" d="M171.84653,195.46913c.2208,3.85653,3.68984,28.15827,6.686,27.98669s4.38482-24.75136,4.164-28.60788-2.82866-6.84379-5.82479-6.67228S171.62572,191.6126,171.84653,195.46913Z" transform="translate(-0.07554 0)"/>
    <path class="cls-31" d="M180.73666,240.97736a4.08665,4.08665,0,0,0,2.47452-.01607c.1815-7.07419-.10971-18.84241-.47033-20.87062q-.05836-.32793-.13783-.64144a25.04265,25.04265,0,0,1-.79846-8.76309,145.14318,145.14318,0,0,0,.892-15.8382c-.22073-3.85653-2.82859-6.84386-5.82479-6.67228s-5.119,3.11219-5.12518,6.97506C171.73159,204.47473,180.7006,240.82716,180.73666,240.97736Z" transform="translate(-0.07554 0)"/>
    <path class="cls-32" d="M177.42993,201.334a81.55243,81.55243,0,0,1,4.52278,7.87245,138.46877,138.46877,0,0,0,.74381-14.3586c-.22081-3.85646-2.82859-6.84379-5.82472-6.67221s-5.1191,3.11212-5.12525,6.97506c-.00053.3292.01277.69994.03388,1.09371a17.444,17.444,0,0,1,5.11386,4.66465A1.01418,1.01418,0,0,1,177.42993,201.334Z" transform="translate(-0.07554 0)"/>
    <path class="cls-9" d="M176.45321,194.55573c.06637,3.86229,4.39971,25.8718,7.40034,25.82019s4.07144-22.23171,4.00508-26.094-3.09195-6.86444-6.09251-6.81283S176.38684,190.69345,176.45321,194.55573Z" transform="translate(-0.07554 0)"/>
    <path class="cls-33" d="M199.12759,238.89509A201.25821,201.25821,0,0,0,188.80583,218.438c-.82817-1.19674-.89884-21.34472-.9472-24.156-.06637-3.86229-3.09188-6.86444-6.09251-6.81289s-5.80772,3.15374-5.74142,7.016c.05492,3.1943,3.14508,20.088,7.64205,27.50934,1.17953,1.94663,9.66869,13.522,13.76242,18.37069A3.23414,3.23414,0,0,0,199.12759,238.89509Z" transform="translate(-0.07554 0)"/>
    <path class="cls-34" d="M184.33771,182.02538s2.33033-10.25983,2.22877-13.7998a2.5062,2.5062,0,0,0-2.51052-2.4333h-1.32927a3.57218,3.57218,0,0,1-6.49243,0h-1.24814c1.35666,2.90423-2.15262,3.56479-1.46486,8.971.99135,3.50345,2.18391,6.95,2.18391,6.95s-6.24165,8.92686-4.126,11.35433c2.44732,2.80808,16.5744,3.98027,16.5744,3.98027C189.196,195.5257,184.33771,182.02538,184.33771,182.02538Z" transform="translate(-0.07554 0)"/>
    <polygon class="cls-9" points="177.951 166.409 182.017 165.982 180.731 161.532 178.1 161.857 177.951 166.409"/>
    <path class="cls-7" d="M178.17579,161.85748l2.63048-.32562.40164,1.38935c-.58877.66394-1.34548,2.098-2.30268,2.098a1.52263,1.52263,0,0,1-.82916-.24357Z" transform="translate(-0.07554 0)"/>
    <path class="cls-9" d="M178.08507,164.0087a5.04471,5.04471,0,0,0,3.18975-1.60949,4.03431,4.03431,0,0,0,1.33005-2.61765v-4.34862H175.9095a12.38585,12.38585,0,0,0-.01475,4.60033C176.26059,161.75214,177.38276,164.009,178.08507,164.0087Z" transform="translate(-0.07554 0)"/>
    <rect class="cls-24" x="181.70372" y="157.10092" width="1.25834" height="0.57064" transform="translate(364.59023 314.77249) rotate(180)"/>
    <path class="cls-9" d="M181.46961,158.95921c0,.84849.40615,1.53631.90718,1.53631s1.05348-1.11216,1.05348-1.96065a.994.994,0,0,0-1.05348-1.112C181.87576,157.42284,181.46961,158.11066,181.46961,158.95921Z" transform="translate(-0.07554 0)"/>
    <path class="cls-24" d="M180.97116,153.50153l-2.25973.00086a3.69047,3.69047,0,0,1-1.74376-.43718,1.89479,1.89479,0,0,0-2.48437.47086c-.54662.78834-.73812,1.81938.70464,2.77632.74121.49157,1.8248-.053,2.54677.183.04466-.00185.08423-.00906.13055-.00906h2.00551a1.27991,1.27991,0,0,1,1.22936,1.28606.81247.81247,0,0,0,.81076.76015h.08854l.3188-1.02192,1.112-1.02423v-.52677A2.45814,2.45814,0,0,0,180.97116,153.50153Z" transform="translate(-0.07554 0)"/>
    <path class="cls-9" d="M151.67783,169.12151s.87773,2.18887,1.63465,2.14255,1.25647-.21631,1.2302-1.32047a8.00547,8.00547,0,0,0-1.106-3.43992,6.13835,6.13835,0,0,0-2.20316-1.87106c-.833-.0268.26289,1.38425.76015,2.09352s.98856,1.55953.57957,1.70239-1.25926-1.287-1.78193-1.27832S151.67783,169.12151,151.67783,169.12151Z" transform="translate(-0.07554 0)"/>
    <path class="cls-24" d="M176.24147,155.92219c.39959.89685.21915,1.48761,3.39685,2.246s3.9489-.1,5.18255,1.26561c0,0-.95389-2.53619-2.728-3.04344s-4.64195-.40965-5.9685-2.28256A4.4582,4.4582,0,0,0,176.24147,155.92219Z" transform="translate(-0.07554 0)"/>
    <path class="cls-9" d="M187.72609,167.1989c3.43642,6.02859,6.94582,18.37863,6.709,33.29345a.80735.80735,0,0,1-1.60188.12975c-4.24937-21.32519-9.99416-30.6525-9.99416-30.6525C181.01147,166.72831,185.91683,163.99011,187.72609,167.1989Z" transform="translate(-0.07554 0)"/>
    <path class="cls-9" d="M85.80789,167.0714s-2.34166.54338-2.41279,1.313.02223,1.29936,1.13857,1.44487a8.15935,8.15935,0,0,0,3.63737-.57858,6.25713,6.25713,0,0,0,2.22791-1.9279c.15669-.835-1.4354.04923-2.22724.43969s-1.725.753-1.80516.31874,1.49257-1.0681,1.56516-1.59593S85.80789,167.0714,85.80789,167.0714Z" transform="translate(-0.07554 0)"/>
    <path class="cls-30" d="M62.59859,160.03677a5.704,5.704,0,0,1-.07874,1.0861.86975.86975,0,0,1-1.34759.54656.80719.80719,0,0,0-1.19.25065,1.46179,1.46179,0,0,1-2.181.22993,4.018,4.018,0,0,1-.51036-.54338.95509.95509,0,0,0-.95866-.36479l-.02071.00457.55006,2.65959a3.86153,3.86153,0,0,0,4.50677,3.07408c1.02569-.22808,1.62121-1.24556,1.5823-3.03173A21.205,21.205,0,0,0,62.59859,160.03677Z" transform="translate(-0.07554 0)"/>
    <path class="cls-7" d="M84.157,159.47665c-.51235.14624-.91849,1.79259-1.35971,1.77433-.253-.01039-.28254-.33912-.21293-.77259a6.18524,6.18524,0,0,1-1.43421,1.5639,5.6972,5.6972,0,0,0,.17468,1.26952c.30127,1.08477.83877,1.10257,1.59077.92378s.96018-2.57371.96018-2.57371S84.66938,159.33042,84.157,159.47665Z" transform="translate(-0.07554 0)"/>
    <rect class="cls-35" x="86.81785" y="145.79735" width="13.63583" height="16.09792"/>
    <rect class="cls-35" x="105.0863" y="145.79735" width="17.96898" height="1.54425"/>
    <rect class="cls-35" x="105.0863" y="150.57038" width="27.51497" height="1.54425"/>
    <rect class="cls-35" x="105.0863" y="155.34341" width="27.51497" height="1.54425"/>
    <rect class="cls-35" x="105.0863" y="160.11644" width="27.51497" height="1.54425"/>
    <g>
      <rect class="cls-36" x="187.83026" y="209.29507" width="10.82749" height="13.77439"/>
      <rect class="cls-37" x="187.83026" y="209.29507" width="10.82749" height="3.21058"/>
      <path class="cls-38" d="M188.27821,209.29507h9.93161a1.39369,1.39369,0,0,1,1.39369,1.39369v.7826a0,0,0,0,1,0,0h-12.719a0,0,0,0,1,0,0v-.7826A1.39369,1.39369,0,0,1,188.27821,209.29507Z"/>
      <path class="cls-39" d="M188.63789,209.29507a4.53106,4.53106,0,0,1,9.06211,0" transform="translate(-0.07554 0)"/>
      <path class="cls-22" d="M196.305,216.18227h0a.92127.92127,0,0,1-.92127-.92127v-5.96593h1.84248V215.261A.92126.92126,0,0,1,196.305,216.18227Z" transform="translate(-0.07554 0)"/>
      <path class="cls-22" d="M194.6993,212.18506h0a.6844.6844,0,0,1-.68438-.68438v-2.20561h1.36877v2.20561A.6844.6844,0,0,1,194.6993,212.18506Z" transform="translate(-0.07554 0)"/>
    </g>
    <path class="cls-9" d="M192.31842,205.69581c.49143-.178.77662-1.81694,1.20969-1.82924.21207-.006.28281.22358.27487.558a12.93474,12.93474,0,0,1,1.2983.33945,7.22729,7.22729,0,0,0-.27262-3.01466c-.36876-1.0411-.89606-1.02191-1.61988-.79562s-.76418,2.58423-.76418,2.58423S191.82691,205.87387,192.31842,205.69581Z" transform="translate(-0.07554 0)"/>
    <g>
      <path class="cls-40" d="M144.737,154.03015H157.617a1.93031,1.93031,0,0,1,1.93028,1.93029v1.59394a1.9303,1.9303,0,0,1-1.93028,1.93028h-3.65869a1.86884,1.86884,0,0,0-1.86887,1.86881v7.88774" transform="translate(-0.07554 0)"/>
      <path class="cls-9" d="M147.15333,151.34244h9.7212a1.1934,1.1934,0,0,1,1.1934,1.1934v2.98863a1.1934,1.1934,0,0,1-1.1934,1.1934h-9.72119a1.19341,1.19341,0,0,1-1.19341-1.19341v-2.98862A1.1934,1.1934,0,0,1,147.15333,151.34244Z"/>
      <line class="cls-41" x1="152.01393" y1="163.55577" x2="152.01393" y2="169.59217"/>
    </g>
    <path class="cls-9" d="M151.15324,167.3057s2.10715.82665,2.15976,1.52149-1.22353,1.16411-1.22353,1.16411S150.53225,168.19382,151.15324,167.3057Z" transform="translate(-0.07554 0)"/>
    <rect class="cls-42" x="99.1176" y="182.66147" width="52.60227" height="8.54493"/>
    <rect class="cls-43" x="99.1176" y="195.15562" width="52.60227" height="8.54493"/>
    <rect class="cls-42" x="99.1176" y="207.64971" width="52.60227" height="8.54493"/>
    <rect class="cls-43" x="99.1176" y="220.1438" width="52.60227" height="8.54493"/>
    <rect class="cls-44" x="141.34008" y="228.68873" width="31.76798" height="21.52232"/>
    <rect class="cls-45" x="134.97447" y="228.68873" width="6.44115" height="21.52232" transform="translate(276.31455 478.89977) rotate(180)"/>
    <rect class="cls-46" x="141.34008" y="228.68873" width="32.18266" height="3.0578"/>
    <rect class="cls-44" x="134.43155" y="228.68873" width="6.98407" height="3.0578" transform="translate(275.77163 460.43526) rotate(180)"/>
    <rect class="cls-5" x="139.22995" y="226.96999" width="31.83601" height="1.71874"/>
    <rect class="cls-1" x="138.1195" y="225.26343" width="31.83601" height="1.71881"/>
    <rect class="cls-1" x="137.84808" y="221.85037" width="31.83601" height="1.71874"/>
    <rect class="cls-47" x="139.53274" y="220.1438" width="31.83601" height="1.71881"/>
    <rect class="cls-5" x="140.45216" y="223.55693" width="31.83594" height="1.71874"/>
  </g>
  <g>
    <path class="cls-45" d="M153.32368,240.73608l-.001-.00937Z" transform="translate(-0.07554 0)"/>
    <path class="cls-45" d="M153.39359,241.17917h.001c-.026-.12621-.04661-.25121-.06278-.37534Q153.356,240.99147,153.39359,241.17917Z" transform="translate(-0.07554 0)"/>
    <path class="cls-45" d="M153.85173,242.46334l-.00913-.01769Z" transform="translate(-0.07554 0)"/>
    <path class="cls-45" d="M153.80785,242.3779c-.01193-.024-.02339-.048-.03484-.07192C153.78446,242.331,153.79592,242.35387,153.80785,242.3779Z" transform="translate(-0.07554 0)"/>
    <path class="cls-45" d="M153.52228,241.67319a4.739,4.739,0,0,0,.24393.61814,4.70629,4.70629,0,0,1-.24209-.61814Z" transform="translate(-0.07554 0)"/>
    <path class="cls-45" d="M158.68068,235.4333a3.81745,3.81745,0,0,1,.6911.0595l.06462-.40761a4.25628,4.25628,0,0,0-1.44682-.12517l-.06462-.22094a.56313.56313,0,1,0-.23464,0l.072.24705a5.74744,5.74744,0,0,0-1.56679.45974l.123.3763a6.78694,6.78694,0,0,1,1.40045-.32729A9.35124,9.35124,0,0,1,158.68068,235.4333Z" transform="translate(-0.07554 0)"/>
    <path class="cls-45" d="M153.84124,237.49209l.00312-.00416.06047-.07608-.16705-.11988-.26035-.19083a3.876,3.876,0,0,0-.748,1.09358.42546.42546,0,0,0-.04789-.06366.50935.50935,0,0,0-.40473-.15736H152.269a.3314.3314,0,0,1-.22775-.07816.35693.35693,0,1,0-.28093.13654.41561.41561,0,0,0,.08913-.01146.54275.54275,0,0,0,.431.17826.29206.29206,0,0,1,.23351.08337.39053.39053,0,0,1,.08529.22831l-.0016.00208a3.8795,3.8795,0,0,0-.166,1.425l.56417.023a4.2493,4.2493,0,0,1,.19836-1.19048A5.57226,5.57226,0,0,1,153.84124,237.49209Z" transform="translate(-0.07554 0)"/>
    <path class="cls-45" d="M163.59043,235.90449a.35721.35721,0,0,0-.35644.35756.30671.30671,0,0,0,.01249.08753.55115.55115,0,0,0-.18034.43268.28889.28889,0,0,1-.0824.23343.36661.36661,0,0,1-.15736.075,4.32962,4.32962,0,0,0-.93719-.94752l-.40545.43364a6.28493,6.28493,0,0,1,.92253,1.06227,7.44466,7.44466,0,0,1,.6067,1.07572l.54615-.25962a8.27,8.27,0,0,0-.60036-1.16958.5463.5463,0,0,0,.17618-.10314.50348.50348,0,0,0,.15631-.40441.33978.33978,0,0,1,.0792-.2356.36268.36268,0,0,0,.22.076.357.357,0,1,0,0-.714Z" transform="translate(-0.07554 0)"/>
    <path class="cls-45" d="M162.17276,240.8164a12.17288,12.17288,0,0,1-3.61924,1.07781,13.38422,13.38422,0,0,1-1.83.12092,15.31953,15.31953,0,0,1-1.90136-.11884c-.57434-.07191-1.02343-.16056-1.298-.2231a4.70629,4.70629,0,0,0,.24209.61814l.0068.01465c.01145.02395.02291.04789.03484.07192.01153.0229.023.04588.03475.06775l.00913.01769a4.05048,4.05048,0,0,0,.57666.82668,3.02031,3.02031,0,0,0,1.55893.97466l.01226.001.01145.00416a6.16565,6.16565,0,0,0,1.75649.22727,7.68224,7.68224,0,0,0,3.02817-.62343,4.93767,4.93767,0,0,0,1.73671-1.42495,3.97954,3.97954,0,0,0,.56081-1.2238,3.17013,3.17013,0,0,0,.07816-.97466A8.44648,8.44648,0,0,1,162.17276,240.8164Z" transform="translate(-0.07554 0)"/>
    <path class="cls-45" d="M154.08284,237.67035a5.46537,5.46537,0,0,0-.60589,1.203,4.4965,4.4965,0,0,0-.1845,1.31237v.00208a4.79922,4.79922,0,0,0,.0302.53894l.001.00937c.00208.023.006.04485.00809.06775.01617.12413.03675.24913.06334.37534a14.34979,14.34979,0,0,0,5.09578.26787,11.71225,11.71225,0,0,0,3.46917-1.02888,7.50822,7.50822,0,0,0,1.13106-.6609,7.45242,7.45242,0,0,0-.92981-1.94621,4.39954,4.39954,0,0,0-2.81668-2.01915,3.80538,3.80538,0,0,0-.66395-.05838,9.102,9.102,0,0,0-.9299.0615,6.26263,6.26263,0,0,0-1.35168.318,5.21453,5.21453,0,0,0-1.88238,1.09246l-.01746.01666A3.68405,3.68405,0,0,0,154.08284,237.67035Zm6.54821-.35548a.93038.93038,0,1,1-.9299.92982A.93159.93159,0,0,1,160.631,237.31487Zm-4.39852-.03755a1.5032,1.5032,0,1,1-1.50287,1.50423A1.50373,1.50373,0,0,1,156.23253,237.27732Z" transform="translate(-0.07554 0)"/>
  </g>
  <g>
    <path class="cls-45" d="M149.77156,246.20284h.10692v-.13424a.86035.86035,0,0,1,.053-.33464.3372.3372,0,0,1,.18081-.18047.879.879,0,0,1,.34814-.05634c.26244,0,.39266.06342.39266.19229a.14992.14992,0,0,1-.04149.10625.12673.12673,0,0,1-.09648.04419.64033.64033,0,0,1-.09109-.01011.8235.8235,0,0,0-.1076-.00979.15745.15745,0,0,0-.15619.07186.50037.50037,0,0,0-.03374.20442v.10658h.10931c.171,0,.25568.05129.25568.15485,0,.07219-.02193.1191-.06779.139a.48383.48383,0,0,1-.18789.02936h-.10931v1.18675a.28619.28619,0,0,1-.06375.20172.20646.20646,0,0,1-.16293.07015.20416.20416,0,0,1-.15854-.07015.28916.28916,0,0,1-.06277-.20172V246.526H149.755a.23107.23107,0,0,1-.15417-.0452.14412.14412,0,0,1-.05431-.11705c0-.10763.07489-.16094.225-.16094" transform="translate(-0.07554 0)"/>
    <path class="cls-45" d="M151.238,247.33833v.37445a.29092.29092,0,0,1-.06476.20374.21055.21055,0,0,1-.16191.06813.20252.20252,0,0,1-.15993-.06914.29577.29577,0,0,1-.0624-.20273v-1.2475q0-.30207.21792-.30188a.18227.18227,0,0,1,.16127.07049.39391.39391,0,0,1,.05463.20846.78431.78431,0,0,1,.16394-.20846.34209.34209,0,0,1,.226-.07049.57316.57316,0,0,1,.27392.07049.21122.21122,0,0,1,.13325.18724.17831.17831,0,0,1-.05634.13491.175.175,0,0,1-.12211.054.56672.56672,0,0,1-.11944-.031.5778.5778,0,0,0-.16627-.03.24676.24676,0,0,0-.16093.05163.33621.33621,0,0,0-.0975.15315,1.16992,1.16992,0,0,0-.04721.24254c-.00845.09343-.01216.20779-.01216.34205" transform="translate(-0.07554 0)"/>
    <path class="cls-45" d="M153.29672,247.18417h-.87639a.60389.60389,0,0,0,.06139.2692.43057.43057,0,0,0,.15955.17573.42262.42262,0,0,0,.21927.05872.50232.50232,0,0,0,.14676-.01925.46208.46208,0,0,0,.12851-.059.84831.84831,0,0,0,.1147-.08634c.03509-.03.08062-.07187.13662-.12414a.14844.14844,0,0,1,.09817-.03.162.162,0,0,1,.112.03843.13362.13362,0,0,1,.04217.10662.295.295,0,0,1-.04623.14134.56308.56308,0,0,1-.14438.15653.835.835,0,0,1-.24152.12345,1.03919,1.03919,0,0,1-.33363.04924.89256.89256,0,0,1-.6713-.24557.91872.91872,0,0,1-.24018-.6679,1.10473,1.10473,0,0,1,.06-.36872.79337.79337,0,0,1,.17239-.29147.73529.73529,0,0,1,.27863-.1862.99769.99769,0,0,1,.36735-.06476.866.866,0,0,1,.45035.11164.71725.71725,0,0,1,.28133.28574.75279.75279,0,0,1,.09345.35825.2236.2236,0,0,1-.09682.21859.60178.60178,0,0,1-.27223.04992m-.87639-.2547h.812a.53992.53992,0,0,0-.12312-.34306.37059.37059,0,0,0-.28335-.114.35678.35678,0,0,0-.27494.11571.573.573,0,0,0-.13055.34137" transform="translate(-0.07554 0)"/>
    <path class="cls-45" d="M155.15982,247.18417h-.876a.59941.59941,0,0,0,.061.2692.42987.42987,0,0,0,.15925.17573.422.422,0,0,0,.2196.05872.49374.49374,0,0,0,.14572-.01925.46328.46328,0,0,0,.12952-.059.84768.84768,0,0,0,.1147-.08634c.03442-.03.08029-.07187.13629-.12414a.149.149,0,0,1,.09817-.03.16284.16284,0,0,1,.11234.03843.13437.13437,0,0,1,.04149.10662.2838.2838,0,0,1-.04722.14134.52927.52927,0,0,1-.14339.15653.828.828,0,0,1-.24119.12345,1.03969,1.03969,0,0,1-.334.04924.89411.89411,0,0,1-.6713-.24557.91855.91855,0,0,1-.23985-.6679,1.09644,1.09644,0,0,1,.06-.36872.80673.80673,0,0,1,.172-.29147.73794.73794,0,0,1,.27863-.1862,1.00327,1.00327,0,0,1,.36772-.06476.874.874,0,0,1,.45133.11164.716.716,0,0,1,.28.28574.758.758,0,0,1,.09412.35825.22488.22488,0,0,1-.09682.21859.60376.60376,0,0,1-.27224.04992m-.876-.2547h.812a.5475.5475,0,0,0-.12346-.34306.37285.37285,0,0,0-.28371-.114.35849.35849,0,0,0-.27525.11571.57064.57064,0,0,0-.12954.34137" transform="translate(-0.07554 0)"/>
    <path class="cls-45" d="M156.14081,246.41537v.05365a.87151.87151,0,0,1,.26345-.22873.62993.62993,0,0,1,.30766-.07386.7232.7232,0,0,1,.38118.10659.73889.73889,0,0,1,.2746.312,1.0942,1.0942,0,0,1,.1012.48612,1.2008,1.2008,0,0,1-.058.38014.852.852,0,0,1-.16057.29012.70761.70761,0,0,1-.23984.18047.72.72,0,0,1-.29854.06274.622.622,0,0,1-.32218-.07722.922.922,0,0,1-.24893-.22533v.67228c0,.196-.07187.29517-.21489.29517a.17334.17334,0,0,1-.16764-.07588.49774.49774,0,0,1-.04048-.223v-1.93329a.28569.28569,0,0,1,.0553-.19125.19657.19657,0,0,1,.15282-.06274.20142.20142,0,0,1,.15484.0644.26513.26513,0,0,1,.06.18757m.87807.65073a.7748.7748,0,0,0-.05429-.30461.44293.44293,0,0,0-.14945-.19464.3584.3584,0,0,0-.21287-.06847.3998.3998,0,0,0-.31238.14572.63811.63811,0,0,0-.12783.43045.61889.61889,0,0,0,.12719.41557.39257.39257,0,0,0,.313.14844.36615.36615,0,0,0,.20681-.06443.44033.44033,0,0,0,.15248-.19464.77615.77615,0,0,0,.05732-.31339" transform="translate(-0.07554 0)"/>
    <path class="cls-45" d="M157.91992,245.95492a.2351.2351,0,0,1-.15956-.058.22161.22161,0,0,1,.00169-.31878.22993.22993,0,0,1,.15787-.06139.2342.2342,0,0,1,.15417.055.20223.20223,0,0,1,.06745.16363.20648.20648,0,0,1-.06509.16158.231.231,0,0,1-.15653.058m.22162.46247v1.29573a.28733.28733,0,0,1-.06375.20239.21092.21092,0,0,1-.16259.06914.20286.20286,0,0,1-.16025-.07015.30191.30191,0,0,1-.06137-.20138v-1.2829a.289.289,0,0,1,.06137-.19936.20616.20616,0,0,1,.16025-.06746.21312.21312,0,0,1,.16259.06746.26129.26129,0,0,1,.06375.18653" transform="translate(-0.07554 0)"/>
    <path class="cls-45" d="M159.58535,247.78024l-.39435-.65039-.24321.2294v.3569a.27076.27076,0,0,1-.0685.19835.20958.20958,0,0,1-.15652.07015.201.201,0,0,1-.16259-.06914.30412.30412,0,0,1-.05938-.20273v-1.91069a.3865.3865,0,0,1,.05735-.227.19184.19184,0,0,1,.16462-.07793.20532.20532,0,0,1,.164.07083.31062.31062,0,0,1,.06106.20781v1.0869l.50363-.52895a1.23633,1.23633,0,0,1,.14271-.1346.19612.19612,0,0,1,.119-.03574.19933.19933,0,0,1,.141.05328.17961.17961,0,0,1,.05531.13359c0,.06544-.06106.1535-.18213.26278l-.23785.21792.45911.72259c.0334.05395.05869.09378.07321.12177a.177.177,0,0,1,.02259.07995.23459.23459,0,0,1-.059.16832.202.202,0,0,1-.15282.061.16853.16853,0,0,1-.1268-.04416,1.11085,1.11085,0,0,1-.12045-.16025" transform="translate(-0.07554 0)"/>
    <path class="cls-45" d="M160.55889,247.98465a.25259.25259,0,0,1-.17508-.06574.2315.2315,0,0,1-.07422-.18387.237.237,0,0,1,.07085-.17169.23427.23427,0,0,1,.17408-.07256.2483.2483,0,0,1,.17676.07122.254.254,0,0,1,0,.35622.2482.2482,0,0,1-.17239.06642" transform="translate(-0.07554 0)"/>
    <path class="cls-45" d="M162.78667,247.43041a.38522.38522,0,0,1-.05027.17845.59725.59725,0,0,1-.15313.18151.77832.77832,0,0,1-.25807.13864,1.09466,1.09466,0,0,1-.35083.05295.86054.86054,0,0,1-.649-.24187.901.901,0,0,1-.23243-.64937,1.06419,1.06419,0,0,1,.10692-.48778.76515.76515,0,0,1,.30766-.32722,1.05084,1.05084,0,0,1,.80254-.06476.844.844,0,0,1,.24627.13123.64081.64081,0,0,1,.15347.17135.338.338,0,0,1,.0533.17036.17889.17889,0,0,1-.05937.136.20778.20778,0,0,1-.14471.056.149.149,0,0,1-.09345-.02869.4168.4168,0,0,1-.08264-.09343.671.671,0,0,0-.17205-.18656.42142.42142,0,0,0-.54716.09241.67288.67288,0,0,0-.12144.424.81745.81745,0,0,0,.03172.23277.51539.51539,0,0,0,.08972.18013.3908.3908,0,0,0,.14271.113.42273.42273,0,0,0,.18384.03916.4142.4142,0,0,0,.23074-.0624.532.532,0,0,0,.17034-.19027.448.448,0,0,1,.088-.11807.16867.16867,0,0,1,.11672-.04317.17132.17132,0,0,1,.13561.06274.19932.19932,0,0,1,.055.13289" transform="translate(-0.07554 0)"/>
    <path class="cls-45" d="M164.71928,247.07455a1.08883,1.08883,0,0,1-.06142.36939.8188.8188,0,0,1-.18114.28975.80352.80352,0,0,1-.282.18656,1.012,1.012,0,0,1-.36939.06477.96507.96507,0,0,1-.36634-.06611.80225.80225,0,0,1-.28065-.1869.83786.83786,0,0,1-.18182-.28942,1.154,1.154,0,0,1,.00134-.74081.7856.7856,0,0,1,.46113-.474,1.01138,1.01138,0,0,1,.36634-.0644.98793.98793,0,0,1,.36939.06577.79018.79018,0,0,1,.46352.47531,1.081,1.081,0,0,1,.061.37007m-.44968,0a.67361.67361,0,0,0-.12042-.42641.38836.38836,0,0,0-.32386-.15349.40387.40387,0,0,0-.23173.06815.42711.42711,0,0,0-.15383.201.82039.82039,0,0,0-.05432.3107.80415.80415,0,0,0,.0533.30628.44123.44123,0,0,0,.15316.20139.40075.40075,0,0,0,.23342.06984.38893.38893,0,0,0,.32386-.15417.67077.67077,0,0,0,.12042-.42334" transform="translate(-0.07554 0)"/>
    <path class="cls-45" d="M166.42788,247.10725v.5954a.306.306,0,0,1-.06375.21185.21714.21714,0,0,1-.169.07052.20764.20764,0,0,1-.16427-.07052.30768.30768,0,0,1-.06409-.21185v-.71344a2.381,2.381,0,0,0-.01114-.26348.28878.28878,0,0,0-.06241-.15248.19928.19928,0,0,0-.1609-.06072.28423.28423,0,0,0-.28942.15214,1.0621,1.0621,0,0,0-.07018.43315v.60483a.31628.31628,0,0,1-.0624.21118.231.231,0,0,1-.33363,0,.30449.30449,0,0,1-.0651-.21118v-1.28152a.28024.28024,0,0,1,.058-.192.196.196,0,0,1,.1535-.06577.21323.21323,0,0,1,.15416.06139.23076.23076,0,0,1,.06106.17v.04216a.782.782,0,0,1,.24963-.20374.64556.64556,0,0,1,.29585-.06679.58792.58792,0,0,1,.28976.06746.53445.53445,0,0,1,.20037.20307.79425.79425,0,0,1,.24355-.20374.61644.61644,0,0,1,.28708-.06679.65962.65962,0,0,1,.31676.07251.4629.4629,0,0,1,.198.20647.95648.95648,0,0,1,.057.38287v.87437a.30762.30762,0,0,1-.06341.21185.23417.23417,0,0,1-.33565-.00067.306.306,0,0,1-.0651-.21118v-.75327a1.80528,1.80528,0,0,0-.01181-.23106.26821.26821,0,0,0-.06612-.14642.21582.21582,0,0,0-.16463-.05937.30447.30447,0,0,0-.16832.0533.36075.36075,0,0,0-.12447.14033,1.1451,1.1451,0,0,0-.04893.40109" transform="translate(-0.07554 0)"/>
  </g>
</svg>
