<svg id="Layer_1" data-name="Layer 1" xmlns="http://www.w3.org/2000/svg" viewBox="0 0 5 4.44"><defs><style>.cls-1{fill:#ff4040;}</style></defs><title>logo</title><path class="cls-1" d="M5,2.5A2.5,2.5,0,1,1,.51,1L2.27,4.36a.25.25,0,0,0,.45,0L4.49,1A2.51,2.51,0,0,1,5,2.5Z" transform="translate(0 -0.56)"/><path class="cls-1" d="M3.65,1.71a1.13,1.13,0,0,1-.17.6.37.37,0,0,0-.72.14.36.36,0,0,0,.18.32,1.08,1.08,0,0,1-.44.09,1,1,0,0,1-.44-.09.36.36,0,0,0,.18-.32.38.38,0,0,0-.38-.37.37.37,0,0,0-.34.23,1.13,1.13,0,0,1-.17-.6,1.15,1.15,0,0,1,2.3,0Z" transform="translate(0 -0.56)"/></svg>