<svg id="Layer_1" data-name="Layer 1" xmlns="http://www.w3.org/2000/svg" viewBox="0 0 99.99793 99.99914">
  <defs>
    <style>
      .cls-1 {
        fill: #333;
      }

      .cls-2 {
        fill: #ff4040;
      }
    </style>
  </defs>
  <title>logo</title>
  <path class="cls-1" d="M100,49.99934H49.58838A15.385,15.385,0,0,0,34.20362,65.3841V43.87628a5.76944,5.76944,0,0,1,5.76949-5.76947H66.2137A25.02047,25.02047,0,0,0,49.83213,26.75819,25.01186,25.01186,0,0,0,28.37321,4.90732a50.07778,50.07778,0,0,1,47.5754,2.3442H74.57713A5.76912,5.76912,0,0,0,70.5756,17.176h-4.149a5.76947,5.76947,0,1,0,0,11.53893h28.8293A49.79909,49.79909,0,0,1,100,49.99934Z" transform="translate(-0.00207)"/>
  <path class="cls-2" d="M49.58839,49.9998A15.385,15.385,0,0,0,34.20363,65.38456V43.87675a5.76946,5.76946,0,0,1,5.76948-5.76949H66.21372a25.02053,25.02053,0,0,0-16.38158-11.3486A25.00084,25.00084,0,0,0,.00207,29.68215V49.9998A50.00289,50.00289,0,0,0,79.486,90.38385H69.70143a25.00462,25.00462,0,0,0,23.08767-15.396h-9.522a15.38933,15.38933,0,0,0,14.71972-10.898l.00451-.015.00376-.012c.01655-.0572.0331-.11285.04965-.17.01655-.05643.03235-.11285.04815-.17l.00076-.0015.02482-.08879A50.02877,50.02877,0,0,0,100,49.9998ZM29.1624,28.71467a5.76909,5.76909,0,1,1,5.76948-5.76947A5.76928,5.76928,0,0,1,29.1624,28.71467Z" transform="translate(-0.00207)"/>
  <path class="cls-2" d="M32.24527,22.94547a3.08284,3.08284,0,1,1-3.08314-3.08254A3.08251,3.08251,0,0,1,32.24527,22.94547Z" transform="translate(-0.00207)"/>
</svg>
