<svg id="Layer_6" data-name="Layer 6" xmlns="http://www.w3.org/2000/svg" width="302.29264" height="302.29632" viewBox="0 0 302.29264 302.29632">
  <defs>
    <style>
      .cls-1 {
        fill: #333;
      }

      .cls-2 {
        fill: #ff4040;
      }
    </style>
  </defs>
  <title>logo2</title>
  <path class="cls-1" d="M4569.19108,900.766H4416.79733a46.50861,46.50861,0,0,0-46.508,46.508v-65.0179a17.441,17.441,0,0,1,17.44109-17.441h79.325a75.63668,75.63668,0,0,0-49.52131-34.30675,75.61055,75.61055,0,0,0-64.87008-66.05494,151.38462,151.38462,0,0,1,143.81993,7.08648h-4.146a17.44,17.44,0,0,0-12.09661,30.00165h-12.54234a17.441,17.441,0,1,0,0,34.88208h87.15068A150.54225,150.54225,0,0,1,4569.19108,900.766Z" transform="translate(-4266.89846 -749.61857)"/>
  <path class="cls-2" d="M4416.79737,900.76741a46.50863,46.50863,0,0,0-46.508,46.508V882.2575a17.441,17.441,0,0,1,17.44106-17.4411h79.32507a75.6368,75.6368,0,0,0-49.52133-34.30669,75.57726,75.57726,0,0,0-150.63575,8.83767v61.42a151.15818,151.15818,0,0,0,240.279,122.08056h-29.5786a75.58872,75.58872,0,0,0,69.79378-46.54205h-28.78491a46.5216,46.5216,0,0,0,44.49754-32.94448l.01364-.04548c.00456-.01138.00683-.025.01139-.03637.05-.1729.10005-.34113.15009-.514.05-.17057.09779-.34113.14555-.51392l.00228-.00455c.025-.08873.05-.1774.075-.2684a151.23663,151.23663,0,0,0,5.68785-41.21128ZM4355.0498,836.4227a17.4399,17.4399,0,1,1,17.44107-17.441A17.44048,17.44048,0,0,1,4355.0498,836.4227Z" transform="translate(-4266.89846 -749.61857)"/>
  <path class="cls-2" d="M4364.36928,818.98247a9.31939,9.31939,0,1,1-9.32027-9.31847A9.31836,9.31836,0,0,1,4364.36928,818.98247Z" transform="translate(-4266.89846 -749.61857)"/>
</svg>
