<?xml version="1.0" standalone="no"?>
<!DOCTYPE svg PUBLIC "-//W3C//DTD SVG 20010904//EN"
 "http://www.w3.org/TR/2001/REC-SVG-20010904/DTD/svg10.dtd">
<svg version="1.0" xmlns="http://www.w3.org/2000/svg"
 width="303.000000pt" height="303.000000pt" viewBox="0 0 303.000000 303.000000"
 preserveAspectRatio="xMidYMid meet">
<metadata>
Created by potrace 1.14, written by Peter Selinger 2001-2017
</metadata>
<g transform="translate(0.000000,303.000000) scale(0.100000,-0.100000)"
fill="#000000" stroke="none">
<path d="M1390 3023 c-161 -15 -325 -54 -452 -109 -72 -30 -90 -34 -138 -29
-123 13 -307 -32 -435 -107 -107 -63 -220 -183 -278 -295 -85 -165 -87 -181
-87 -684 0 -493 7 -570 74 -767 175 -517 591 -886 1136 -1007 100 -22 388 -31
504 -16 893 119 1488 999 1266 1876 -136 540 -572 971 -1111 1099 -161 39
-337 53 -479 39z"/>
</g>
</svg>
