<svg width="290" height="190" viewBox="0 0 290 190" fill="none" xmlns="http://www.w3.org/2000/svg">
<g clip-path="url(#clip0_4_1829)">
<path d="M166.721 27.1C166.721 27.1 151.721 31.5 130.921 24.7C110.121 17.9 89.8205 0 89.8205 0C89.8205 0 83.2205 0.100006 80.7205 5.10001C78.3205 10.1 78.4205 20.4 74.6205 23.2C73.7205 23.8 71.2205 24.5 67.5205 25.5C61.5205 27.2 52.6205 29.8 43.6205 34.9C36.9205 38.7 30.1205 43.8 24.4205 50.8C21.8205 54 19.5205 57.6 17.5205 61.7C1.72053 93.8 8.52053 138.8 8.52053 138.8H252.921C252.921 138.8 245.821 83.2 230.521 64.9C215.221 46.6 186.021 31.8 177.421 27.9V22.1C177.521 22.1 172.221 25.6 166.721 27.1Z" fill="#48D89E"/>
<mask id="mask0_4_1829" style="mask-type:alpha" maskUnits="userSpaceOnUse" x="7" y="0" width="246" height="139">
<path d="M166.721 27.1C166.721 27.1 151.721 31.5 130.921 24.7C110.121 17.9 89.8205 0 89.8205 0C89.8205 0 83.2205 0.100006 80.7205 5.10001C78.3205 10.1 78.4205 20.4 74.6205 23.2C73.7205 23.8 71.2205 24.5 67.5205 25.5C61.5205 27.2 52.6205 29.8 43.6205 34.9C36.9205 38.7 30.1205 43.8 24.4205 50.8C21.8205 54 19.5205 57.6 17.5205 61.7C1.72053 93.8 8.52053 138.8 8.52053 138.8H252.921C252.921 138.8 245.821 83.2 230.521 64.9C215.221 46.6 186.021 31.8 177.421 27.9V22.1C177.521 22.1 172.221 25.6 166.721 27.1Z" fill="#48D89E"/>
</mask>
<g mask="url(#mask0_4_1829)">
<path d="M47.9203 65.3C53.7745 65.3 58.5203 60.5542 58.5203 54.7C58.5203 48.8458 53.7745 44.1 47.9203 44.1C42.0661 44.1 37.3203 48.8458 37.3203 54.7C37.3203 60.5542 42.0661 65.3 47.9203 65.3Z" fill="#FCED7E"/>
<path d="M108.22 60.4C114.074 60.4 118.82 55.6542 118.82 49.8C118.82 43.9458 114.074 39.2 108.22 39.2C102.366 39.2 97.6201 43.9458 97.6201 49.8C97.6201 55.6542 102.366 60.4 108.22 60.4Z" fill="#FCED7E"/>
<path d="M153.821 37.9C159.675 37.9 164.421 33.1542 164.421 27.3C164.421 21.4458 159.675 16.7 153.821 16.7C147.966 16.7 143.221 21.4458 143.221 27.3C143.221 33.1542 147.966 37.9 153.821 37.9Z" fill="#FCED7E"/>
<path d="M89.4203 112.3C95.2745 112.3 100.02 107.554 100.02 101.7C100.02 95.8458 95.2745 91.1 89.4203 91.1C83.5661 91.1 78.8203 95.8458 78.8203 101.7C78.8203 107.554 83.5661 112.3 89.4203 112.3Z" fill="#FCED7E"/>
<path d="M212.821 106.9C218.675 106.9 223.421 102.154 223.421 96.3C223.421 90.4458 218.675 85.7 212.821 85.7C206.966 85.7 202.221 90.4458 202.221 96.3C202.221 102.154 206.966 106.9 212.821 106.9Z" fill="#FCED7E"/>
<path d="M154.42 98.3C160.275 98.3 165.02 93.5542 165.02 87.7C165.02 81.8458 160.275 77.1 154.42 77.1C148.566 77.1 143.82 81.8458 143.82 87.7C143.82 93.5542 148.566 98.3 154.42 98.3Z" fill="#FCED7E"/>
<path d="M204.621 55.3C210.475 55.3 215.221 50.5542 215.221 44.7C215.221 38.8458 210.475 34.1 204.621 34.1C198.766 34.1 194.021 38.8458 194.021 44.7C194.021 50.5542 198.766 55.3 204.621 55.3Z" fill="#FCED7E"/>
</g>
<path d="M177.52 27.9001C177.52 27.9001 178.82 36.9001 176.52 42.0001C172.82 50.4001 147.12 60.0001 116.02 48.8001C91.3199 39.9001 79.2199 27.6001 78.9199 25.7001" stroke="#329369" stroke-width="3" stroke-miterlimit="10" stroke-linecap="round" stroke-linejoin="round"/>
<path d="M97.6199 10.2001C97.1199 10.8001 96.6199 11.6001 96.2199 12.6001C94.8199 16.0001 94.4199 23.1001 94.4199 23.1001" stroke="#329369" stroke-width="3" stroke-miterlimit="10" stroke-linecap="round" stroke-linejoin="round"/>
<path d="M114.52 20.5C114.12 21.3 113.72 22.2 113.52 23.2C113.02 25.8 112.42 34 112.42 34" stroke="#329369" stroke-width="3" stroke-miterlimit="10" stroke-linecap="round" stroke-linejoin="round"/>
<path d="M131.521 27.5C131.321 28.3 131.121 29.3 131.021 30.5C130.821 31.9 130.921 40.4 130.921 40.4" stroke="#329369" stroke-width="3" stroke-miterlimit="10" stroke-linecap="round" stroke-linejoin="round"/>
<path d="M149.721 31.5C149.921 33.8 150.021 37 149.721 40.9" stroke="#329369" stroke-width="3" stroke-miterlimit="10" stroke-linecap="round" stroke-linejoin="round"/>
<path d="M165.021 30.7001C165.321 32.6001 165.621 35.2001 165.721 38.5001" stroke="#329369" stroke-width="3" stroke-miterlimit="10" stroke-linecap="round" stroke-linejoin="round"/>
<path d="M86.7199 0.400024C84.3199 1.30002 81.1199 3.70003 79.9199 10.7" stroke="#329369" stroke-width="3" stroke-miterlimit="10" stroke-linecap="round" stroke-linejoin="round"/>
<path d="M189.321 33.8C184.221 31 180.021 29 177.521 27.9V22.1" stroke="#329369" stroke-width="3" stroke-miterlimit="10" stroke-linecap="round" stroke-linejoin="round"/>
</g>
<defs>
<clipPath id="clip0_4_1829">
<rect width="290" height="190" fill="white"/>
</clipPath>
</defs>
</svg>
