<svg width="290" height="190" viewBox="0 0 290 190" fill="none" xmlns="http://www.w3.org/2000/svg">
<g clip-path="url(#clip0_4_1827)">
<path d="M230.705 68.7783C216.505 50.4783 194.504 42.8783 182.404 38.3783C181.404 33.3783 179.505 27.8783 176.505 22.5783C171.905 25.3783 166.605 27.4783 161.105 28.5783L161.904 31.8783C162.304 33.4783 164.304 40.8783 161.204 50.3783C158.604 58.3783 148.105 61.9783 130.305 53.8783C95.6045 38.1783 91.6045 20.4783 91.6045 20.4783C91.0045 10.8783 90.0045 1.87832 89.1045 -5.42168C78.3045 -3.02168 65.8045 1.87833 59.0045 12.1783C50.6045 24.7783 47.5045 37.5783 48.3045 47.7783C33.7045 57.0783 11.1045 71.1783 3.70449 96.3783C-5.89551 129.178 -4.29551 149.278 -4.29551 149.278H254.104C253.804 149.378 250.005 93.6783 230.705 68.7783Z" fill="#6060D8"/>
<path d="M76.2041 35.9783C76.2041 35.9783 82.3041 59.6784 109.004 76.0784" stroke="#423232" stroke-width="3" stroke-miterlimit="10" stroke-linecap="round" stroke-linejoin="round"/>
<path d="M182.304 38.3784C182.304 38.3784 189.404 69.0784 173.904 83.1784" stroke="#423232" stroke-width="3" stroke-miterlimit="10" stroke-linecap="round" stroke-linejoin="round"/>
<path d="M134.104 78.4784C134.104 78.4784 128.904 93.6784 130.304 104.178" stroke="#423232" stroke-width="3" stroke-miterlimit="10" stroke-linecap="round" stroke-linejoin="round"/>
<path d="M166.004 77.5783C166.004 77.5783 169.904 86.0783 172.704 99.5783" stroke="#423232" stroke-width="3" stroke-miterlimit="10" stroke-linecap="round" stroke-linejoin="round"/>
<path d="M48.1045 47.8784C48.1045 47.8784 56.3045 81.2784 105.104 91.0784" stroke="#423232" stroke-width="3" stroke-miterlimit="10" stroke-linecap="round" stroke-linejoin="round"/>
<path d="M131.204 106.478L126.804 106.078C125.204 105.878 124.004 104.378 124.304 102.778L125.804 95.2784C126.204 93.1784 128.204 91.6784 130.304 91.9784C132.404 92.1784 134.104 93.9784 134.104 96.1784L134.204 103.878C134.204 105.378 132.804 106.678 131.204 106.478Z" fill="white"/>
<path d="M177.104 101.878L172.904 103.378C171.304 103.978 169.604 102.978 169.304 101.378L167.504 93.9783C167.004 91.8783 168.104 89.7783 170.204 88.9783C172.204 88.2783 174.504 89.1783 175.404 91.0783L178.704 97.9783C179.404 99.4783 178.704 101.278 177.104 101.878Z" fill="white"/>
<path d="M44.7037 149.378C44.7037 149.378 43.8037 127.078 40.8037 121.078" stroke="#544D4D" stroke-width="3" stroke-miterlimit="10" stroke-linecap="round" stroke-linejoin="round"/>
<path d="M221.204 99.5783C221.204 99.5783 226.804 130.978 224.604 149.378" stroke="#544D4D" stroke-width="3" stroke-miterlimit="10" stroke-linecap="round" stroke-linejoin="round"/>
<path d="M205.104 129.778C205.104 129.778 190.304 131.978 177.304 131.378" stroke="#544D4D" stroke-width="3" stroke-miterlimit="10" stroke-linecap="round" stroke-linejoin="round"/>
</g>
<defs>
<clipPath id="clip0_4_1827">
<rect width="290" height="190" fill="white"/>
</clipPath>
</defs>
</svg>
