<svg width="290" height="190" viewBox="0 0 290 190" fill="none" xmlns="http://www.w3.org/2000/svg">
<g clip-path="url(#clip0_112_4793)">
<path d="M254.204 148.901H-5.99641C-5.99641 148.901 -6.79642 85.9011 15.5036 56.6011C31.8036 35.1011 61.5036 29.4011 79.7036 24.1011C84.4036 22.8011 88.5036 21.3011 91.9036 20.4011C93.0036 23.4011 104.104 52.8011 130.704 63.6011C153.604 72.9011 167.204 66.7011 169.304 56.4011C170.604 49.8011 166.504 39.0011 164.404 35.5011C163.204 34.5011 162.404 33.0011 162.004 31.5011L161.204 28.2011C163.004 27.8011 164.704 27.3011 166.504 26.8011C167.404 27.0011 168.304 27.2011 169.204 27.4011C182.104 30.5011 208.904 31.1011 231.304 50.0011C257.404 71.6011 254.204 148.901 254.204 148.901Z" fill="#444444"/>
<path d="M157.603 81.0012C151.203 82.2012 108.003 79.2011 85.6032 49.3011C76.4032 37.0011 78.1032 25.6011 81.0032 20.1011C83.5032 15.3011 89.2032 8.90116 91.0032 9.00116V9.10115C123.503 34.5011 165.003 27.3011 166.703 26.8011C167.203 26.6011 167.803 26.5011 168.303 26.3011C174.003 29.5011 180.903 37.2011 180.403 50.1011C179.703 68.3011 162.203 79.6012 157.603 81.0012Z" fill="white"/>
<path d="M81.0031 22.7011C81.0031 22.7011 70.4031 21.9011 65.5031 29.4011C60.6031 36.9011 71.7031 39.5011 76.9031 37.5011C76.9031 37.5011 68.5031 42.0011 71.5031 49.1011C74.5031 56.2011 84.1031 52.1011 84.1031 52.1011C84.1031 52.1011 75.7031 61.3011 82.8031 68.2011C89.9031 75.1011 98.2031 68.2011 98.2031 68.2011C98.2031 68.2011 93.7031 78.7011 101.203 82.6011C108.703 86.5011 114.503 76.2011 114.503 76.2011C114.503 76.2011 112.103 86.9011 119.403 90.8011C126.703 94.7011 131.803 85.6011 132.903 82.2011C132.903 82.2011 132.903 93.6011 143.203 94.0011C153.503 94.4011 152.403 74.9011 152.403 74.9011L81.0031 22.7011Z" fill="white"/>
<path d="M160.004 78.7011C160.004 78.7011 163.204 86.3011 169.704 85.9011C176.204 85.6011 177.804 78.3012 174.904 72.1012C174.904 72.1012 180.404 75.8012 186.104 72.1012C191.904 68.4012 186.704 59.5011 183.504 58.3011C183.504 58.3011 192.804 58.8012 192.304 51.7012C191.804 44.6012 183.804 43.7012 183.804 43.7012C183.804 43.7012 190.704 43.2011 191.004 37.6011C191.304 32.0011 182.104 26.8011 169.204 27.4011C169.204 27.4011 173.604 43.3012 169.304 56.5012C165.204 69.5012 160.004 78.7011 160.004 78.7011Z" fill="white"/>
<path d="M87.5038 12.1011C87.5038 12.1011 80.4038 12.1011 74.4038 15.9011C66.8038 20.6011 72.2038 30.0011 83.1038 26.7011C94.0038 23.4011 87.5038 12.1011 87.5038 12.1011Z" fill="white"/>
<path d="M179.204 30.6011C179.204 30.6011 186.604 29.4011 185.004 26.3011C183.404 23.4011 177.404 21.7011 176.204 22.4011C174.004 23.7011 171.204 25.2011 168.304 26.1011C160.604 28.6011 177.104 32.1011 179.204 30.6011Z" fill="white"/>
<path d="M153.603 77.4011C153.603 77.4011 145.003 100.501 151.403 104.601C157.803 108.701 157.403 82.7011 157.403 82.7011C157.403 82.7011 162.503 103.901 170.703 101.601C178.803 99.2011 159.103 76.3011 157.603 75.9011" stroke="white" stroke-width="3" stroke-miterlimit="10" stroke-linecap="round"/>
<path d="M49.4035 33.3011C49.4035 33.3011 56.0035 93.9011 -0.996472 98.5011C-0.996472 98.5011 -10.1965 68.1011 7.20353 45.1011C23.3035 23.7011 49.4035 33.3011 49.4035 33.3011Z" fill="#D8D8D8"/>
<path d="M43.8039 31.9011C35.2039 30.3011 18.7039 29.8011 7.10391 45.1011C0.903906 53.4011 -1.99609 62.6011 -2.99609 71.1011C4.50391 70.8011 12.0039 69.5011 19.2039 66.7011C33.9039 61.1011 41.8039 47.2011 43.8039 31.9011Z" fill="#D8D8D8"/>
<path d="M25.2033 48.6011C31.4033 44.5011 36.6033 38.5011 39.3033 31.2011C30.2033 30.5011 16.9033 32.1011 7.10332 45.0011C5.70332 46.9011 4.50332 48.8011 3.40332 50.7011C10.1033 55.7011 18.4033 52.9011 25.2033 48.6011Z" fill="#F7F7F7"/>
<path d="M49.4037 33.3011C49.4037 33.3011 47.3037 32.5011 43.8037 31.9011C41.8037 47.3011 33.9037 61.2011 19.2037 66.7011C12.0037 69.5011 4.60368 70.9011 -2.99632 71.1011C-4.89632 86.1011 -1.09632 98.5011 -1.09632 98.5011C56.0037 93.9011 49.4037 33.3011 49.4037 33.3011Z" fill="#A8A8A8"/>
<path d="M205.403 35.3011C205.403 35.3011 211.303 56.6011 223.603 72.4011C231.503 82.5011 239.903 90.4011 251.803 96.2011C251.803 96.2011 257.703 68.1011 246.103 51.2011C230.003 27.6011 205.403 35.3011 205.403 35.3011Z" fill="#D8D8D8"/>
<path d="M210.003 34.4011C207.103 34.8011 205.403 35.3011 205.403 35.3011C205.403 35.3011 211.303 56.6011 223.603 72.4011C231.503 82.5011 239.903 90.4011 251.803 96.2011C251.803 96.2011 254.403 83.8011 252.703 70.5011C245.003 68.2011 237.703 64.9011 231.203 60.6011C221.603 54.5011 212.803 45.3011 210.003 34.4011Z" fill="#A8A8A8"/>
<path d="M210.004 34.4011C212.704 45.3011 221.604 54.5011 231.204 60.6011C237.704 64.8011 245.004 68.2011 252.704 70.5011C251.904 63.8011 249.904 56.9011 246.104 51.2011C234.304 33.9011 217.904 33.4011 210.004 34.4011Z" fill="#D8D8D8"/>
<path d="M244.604 49.2012C236.104 38.0012 225.604 34.8012 217.604 34.2012C222.504 44.8012 233.404 49.5012 244.604 49.2012Z" fill="#F7F7F7"/>
<path d="M86.7037 12.1011C86.7037 12.1011 82.8037 18.5011 82.5037 24.7011C82.2037 30.8011 93.9037 51.9011 116.204 63.4011C140.404 75.9011 157.004 73.7011 157.004 73.7011C157.004 73.7011 172.904 65.9011 177.604 52.1011C181.804 39.6011 176.904 28.6011 174.804 24.8011" stroke="#D8D8D8" stroke-width="3" stroke-miterlimit="10" stroke-linecap="round"/>
<path d="M157.104 73.7011C157.104 73.7011 158.204 45.7011 155.104 29.3011" stroke="#D8D8D8" stroke-width="3" stroke-miterlimit="10" stroke-linecap="round"/>
<path d="M156.603 47.0012C159.309 47.0012 161.503 44.8074 161.503 42.1012C161.503 39.395 159.309 37.2012 156.603 37.2012C153.897 37.2012 151.703 39.395 151.703 42.1012C151.703 44.8074 153.897 47.0012 156.603 47.0012Z" fill="#F4D16C"/>
<path d="M157.204 62.0012C159.91 62.0012 162.104 59.8074 162.104 57.1012C162.104 54.395 159.91 52.2012 157.204 52.2012C154.498 52.2012 152.304 54.395 152.304 57.1012C152.304 59.8074 154.498 62.0012 157.204 62.0012Z" fill="#F4D16C"/>
</g>
<defs>
<clipPath id="clip0_112_4793">
<rect width="290" height="190" fill="white"/>
</clipPath>
</defs>
</svg>
