<svg width="303" height="190" viewBox="0 0 303 190" fill="none" xmlns="http://www.w3.org/2000/svg">
<g opacity="0.25">
<g opacity="0.25">
<g opacity="0.25">
<g opacity="0.25">
<path opacity="0.25" d="M3 44.4C23.3 33.2 20.6 44.8 50.1 39.1C62.7 36.7 76.9 25.7 95 24.9C108.8 24.3 124.1 33.5 141.1 34.7C155.3 35.7 171.7 28.4 188.1 31.1C202.4 33.4 215.6 45.4 231.6 49.3" stroke="#6D5F5E" stroke-width="5.0089" stroke-miterlimit="10" stroke-linecap="round" stroke-linejoin="round"/>
</g>
<g opacity="0.25">
<path opacity="0.25" d="M3.40039 55.8C25.3004 46.7 21.8004 58.2 51.8004 53.3C64.9004 51.2 79.7004 40.1 98.0004 39.3C112.3 38.7 128 48 145.3 48.9C160 49.7 176.6 41.8 193.3 44.1C208.1 46.1 222 58.1 238.3 61.6" stroke="#6D5F5E" stroke-width="5.0089" stroke-miterlimit="10" stroke-linecap="round" stroke-linejoin="round"/>
</g>
<g opacity="0.25">
<path opacity="0.25" d="M3.7998 67.2C26.9998 60 22.7998 71.3 53.3998 67.3C66.8998 65.5 82.2998 54.4 100.9 53.6C115.6 53 131.9 62.5 149.4 63.2C164.6 63.8 181.4 55.3 198.5 57.2C213.8 58.9 228.4 70.8 245.1 73.8" stroke="#6D5F5E" stroke-width="5.0089" stroke-miterlimit="10" stroke-linecap="round" stroke-linejoin="round"/>
</g>
<g opacity="0.25">
<path opacity="0.25" d="M4.2002 78.6C28.5002 73.2 23.8002 84.3 55.0002 81.1C69.0002 79.6 85.0002 68.5 103.9 67.8C119.1 67.2 135.8 77 153.7 77.4C169.4 77.8 186.5 68.8 203.9 70.3C219.8 71.7 235.1 83.4 252.1 86" stroke="#6D5F5E" stroke-width="5.0089" stroke-miterlimit="10" stroke-linecap="round" stroke-linejoin="round"/>
</g>
<g opacity="0.25">
<path opacity="0.25" d="M4.5 90.1C29.7 86.2 24.6 97.3001 56.3 94.8001C70.8 93.7001 87.4 82.5 106.6 81.9C122.3 81.4 139.5 91.4001 157.6 91.7001C173.8 91.9001 191.2 82.4 208.9 83.5C225.3 84.5 241.4 96.1 258.8 98.1" stroke="#6D5F5E" stroke-width="5.0089" stroke-miterlimit="10" stroke-linecap="round" stroke-linejoin="round"/>
</g>
<g opacity="0.25">
<path opacity="0.25" d="M4.7002 101.6C30.7002 99.1 25.3002 110.1 57.5002 108.4C72.5002 107.6 89.7002 96.5 109.3 96.1C125.5 95.7 143.1 106 161.6 106.1C178.3 106.2 196.1 96.1 214 96.9C231.1 97.6 247.9 109 265.5 110.3" stroke="#6D5F5E" stroke-width="5.0089" stroke-miterlimit="10" stroke-linecap="round" stroke-linejoin="round"/>
</g>
<g opacity="0.25">
<path opacity="0.25" d="M5 113.2C31.7 112 26 122.9 58.9 122C74.3 121.6 92.2 110.5 112.2 110.2C128.9 110 147 120.5 165.8 120.5C183.1 120.5 201.2 110 219.4 110.3C237.1 110.6 254.7 121.8 272.6 122.5" stroke="#6D5F5E" stroke-width="5.0089" stroke-miterlimit="10" stroke-linecap="round" stroke-linejoin="round"/>
</g>
<g opacity="0.25">
<path opacity="0.25" d="M5.2002 124.7C32.6002 124.6 26.6002 135.6 60.1002 135.4C76.0002 135.3 94.5002 124.3 114.9 124.2C132.1 124.1 150.6 135 169.8 135C187.7 134.9 206.1 123.9 224.6 123.8C243 123.7 261.4 134.6 279.5 134.6" stroke="#6D5F5E" stroke-width="5.0089" stroke-miterlimit="10" stroke-linecap="round" stroke-linejoin="round"/>
</g>
<g opacity="0.25">
<path opacity="0.25" d="M5.40039 136.2C33.5004 137.1 27.2004 148.1 61.3004 148.7C77.6004 149 96.8004 138 117.6 138.2C135.3 138.3 154.3 149.6 173.8 149.5C192.3 149.4 211 137.9 229.8 137.5C248.8 137.1 268.1 147.7 286.3 146.8" stroke="#6D5F5E" stroke-width="5.0089" stroke-miterlimit="10" stroke-linecap="round" stroke-linejoin="round"/>
</g>
<g opacity="0.25">
<path opacity="0.25" d="M5.59961 147.8C34.2996 149.7 27.7996 160.8 62.4996 162.1C79.2996 162.7 99.1996 151.8 120.3 152.2C138.6 152.5 157.9 164.2 177.8 164C196.8 163.9 216 152 235 151.2C254.7 150.4 274.9 160.7 293.2 158.9" stroke="#6D5F5E" stroke-width="5.0089" stroke-miterlimit="10" stroke-linecap="round" stroke-linejoin="round"/>
</g>
<g opacity="0.25">
<path opacity="0.25" d="M5.7998 159.4C35.0998 162.1 28.2998 173.3 63.6998 175.3C80.8998 176.3 101.5 165.5 123 166.1C141.8 166.6 161.6 178.7 181.8 178.5C201.4 178.4 221 166.1 240.3 165C260.8 163.8 281.8 173.7 300.1 171.1" stroke="#6D5F5E" stroke-width="5.0089" stroke-miterlimit="10" stroke-linecap="round" stroke-linejoin="round"/>
</g>
</g>
</g>
</g>
<path d="M67.3997 36.1C71.2997 40.5 87.2997 59.6 92.9997 81.2L105.9 83.3C105.9 83.3 92.0997 48.9 73.0997 32.1C72.2997 31.4 71.0997 31.3 70.0997 31.7C69.2997 32.1 68.2997 32.8 67.3997 34C66.7997 34.7 66.8997 35.6 67.3997 36.1Z" fill="#423232"/>
<path d="M189.5 76.7001C189.5 76.7001 191.2 50.9001 178.3 32.7001C178.3 32.7001 179.1 31.9001 183.6 34.1001C186.8 35.6001 196.2 48.5001 197.1 74.6001C197.2 74.6001 190.6 76.8001 189.5 76.7001Z" fill="#423232"/>
<path d="M90 63.3001C90 63.3001 163.9 83.0001 195.8 61.2001C195.8 61.2001 212.4 93.9001 218.9 157.5H76.5C76.5 157.5 88.1 142.2 90 63.3001Z" fill="#423232"/>
<path d="M103.5 87.7C106.151 87.7 108.3 85.551 108.3 82.9C108.3 80.2491 106.151 78.1 103.5 78.1C100.849 78.1 98.7002 80.2491 98.7002 82.9C98.7002 85.551 100.849 87.7 103.5 87.7Z" fill="white"/>
<path d="M192.3 80.1001C194.619 80.1001 196.5 78.2197 196.5 75.9001C196.5 73.5805 194.619 71.7001 192.3 71.7001C189.98 71.7001 188.1 73.5805 188.1 75.9001C188.1 78.2197 189.98 80.1001 192.3 80.1001Z" fill="white"/>
</svg>
