<svg width="290" height="190" viewBox="0 0 290 190" fill="none" xmlns="http://www.w3.org/2000/svg">
<g clip-path="url(#clip0_112_4769)">
<path d="M73.7861 16.8C73.7861 16.8 88.3861 11 91.0861 10.8L91.2861 13.1C91.2861 13.1 79.6861 18.1 78.9861 18.9C78.3861 19.6 73.7861 16.8 73.7861 16.8Z" fill="#7E5D6D"/>
<path d="M253.886 146.5H1.08594C1.08594 146.5 2.58594 100.1 17.7859 67C29.2859 42 56.8859 25.5 76.9859 18.3C82.6859 16.3 87.0859 14.1 91.1859 13C91.1859 13.5 91.4859 17.2 91.4859 17.6C91.4859 17.6 107.286 33.1 142.886 35C159.386 35.9 160.986 25.6 160.986 25.6C162.886 25.2 164.686 24.7 166.486 24.1C167.086 23.9 171.286 22.2 171.786 22C184.686 25.4 200.486 35 223.386 54.2C249.286 76.1 253.886 146.5 253.886 146.5Z" fill="#423232"/>
<mask id="mask0_112_4769" style="mask-type:alpha" maskUnits="userSpaceOnUse" x="1" y="13" width="253" height="134">
<path d="M253.886 146.5H1.08594C1.08594 146.5 2.58594 100.1 17.7859 67C29.2859 42 56.8859 25.5 76.9859 18.3C82.6859 16.3 87.0859 14.1 91.1859 13C91.1859 13.5 91.4859 17.2 91.4859 17.6C91.4859 17.6 107.286 33.1 142.886 35C159.386 35.9 160.986 25.6 160.986 25.6C162.886 25.2 164.686 24.7 166.486 24.1C167.086 23.9 171.286 22.2 171.786 22C184.686 25.4 200.486 35 223.386 54.2C249.286 76.1 253.886 146.5 253.886 146.5Z" fill="#423232"/>
</mask>
<g mask="url(#mask0_112_4769)">
<path d="M91.2863 29.7C101.786 44.5 129.786 67.1 152.186 71.4C162.886 73.4 178.186 36.7 164.286 21.9C152.386 9.20001 101.786 5.90001 93.6863 11.5C83.7863 18.1 88.6863 26.1 91.2863 29.7Z" stroke="#FFFF8D" stroke-width="5" stroke-miterlimit="10"/>
</g>
<path d="M205.186 44.8C211.648 44.8 216.886 39.5618 216.886 33.1C216.886 26.6383 211.648 21.4 205.186 21.4C198.725 21.4 193.486 26.6383 193.486 33.1C193.486 39.5618 198.725 44.8 205.186 44.8Z" fill="#FFFF8D"/>
<path d="M50.5859 146.5L46.0859 109.5" stroke="#544D4D" stroke-width="3" stroke-miterlimit="10" stroke-linecap="round" stroke-linejoin="round"/>
<path d="M225.187 96.8C225.187 96.8 222.187 104.1 223.087 111.4C223.987 118.7 226.587 129.4 222.887 146.5" stroke="#544D4D" stroke-width="3" stroke-miterlimit="10" stroke-linecap="round" stroke-linejoin="round"/>
<path d="M73.7863 16.8C75.6863 16.2 78.9863 16.8 79.9863 18.5C83.8863 24.9 93.2863 43.6 97.1863 80.7C100.286 109.7 95.5863 161.9 95.5863 161.9L-1.51367 157.3C-1.51367 157.3 1.38633 108 9.88633 74.9C18.1863 42.8 39.9863 28.4 73.7863 16.8Z" fill="white"/>
<path d="M174.286 22.9C174.286 22.9 205.186 81 196.186 158.6H262.886C262.886 158.6 262.586 97 247.586 63.5C232.586 30.1 180.086 20.3 180.086 20.3C180.086 20.3 176.786 21.9 174.286 22.9Z" fill="white"/>
<path d="M174.287 22.9L171.887 22.2C171.887 22.2 175.387 20.5 176.887 19.5L177.787 19C177.787 19 182.587 21.2 184.287 22C185.987 22.8 178.387 26.5 178.387 26.5C178.387 26.5 174.587 22.9 174.287 22.9Z" fill="#7E5D6D"/>
<path d="M65.4868 51.1C65.4868 51.1 51.6868 60.8 52.9868 71.1C54.2868 81.4 96.7868 145.9 96.7868 145.9C96.7868 145.9 101.787 110.9 96.0868 71.3C96.0868 71.3 91.9868 65.8 84.4868 60.3C79.4868 56.8 73.0868 53.1 65.4868 51.1Z" fill="#AD7E5A"/>
<path d="M226.886 71.1C227.286 64.7 212.486 54.3 212.486 54.3C206.586 56 202.386 58.7 199.386 61.6C192.686 67.9 191.786 75 191.786 75L192.186 76.8C199.286 107.7 197.186 147.9 197.186 147.9C197.186 147.9 226.486 77.5 226.886 71.1Z" fill="#AD7E5A"/>
<path d="M95.9866 71.3C95.9866 71.3 88.9866 63.9 80.5866 58.7C61.9866 47.2 34.6866 41.9 34.3866 33C34.1866 23 67.3866 2.1 89.3866 -5C89.3866 -4.9 89.3866 -4.8 89.3866 -4.7C89.3866 -4.6 89.3866 -4.5 89.3866 -4.3C89.3866 -4.1 89.3866 -3.9 89.4866 -3.7C89.4866 -3.4 89.5866 -3.1 89.5866 -2.8C89.5866 -2.6 89.5866 -2.5 89.6866 -2.3C90.3866 3.7 90.9866 10.4 91.4866 17.5V17.6C91.4866 17.6 86.8866 19.1 90.1866 42C91.0866 47.6 94.4866 57.4 95.9866 71.3Z" fill="#AD7E5A"/>
<path d="M191.786 74.5C191.786 74.5 185.086 48.5 181.786 40.2C178.486 32 172.286 22.7 171.986 22.2C175.886 20.4 179.386 18.1 182.486 15.4C185.586 12.7 188.086 9.99999 190.186 7.29999C201.386 13.2 233.486 31.8 235.086 41.1C236.886 51.2 197.986 50.6 191.786 74.5Z" fill="#AD7E5A"/>
<path d="M155.686 89.1C162.148 89.1 167.386 83.8617 167.386 77.4C167.386 70.9383 162.148 65.7 155.686 65.7C149.225 65.7 143.986 70.9383 143.986 77.4C143.986 83.8617 149.225 89.1 155.686 89.1Z" fill="#FFFF8D"/>
<path d="M155.687 83.4C159 83.4 161.687 80.7137 161.687 77.4C161.687 74.0863 159 71.4 155.687 71.4C152.373 71.4 149.687 74.0863 149.687 77.4C149.687 80.7137 152.373 83.4 155.687 83.4Z" fill="#FFBE71"/>
<path d="M212.486 54.3C206.586 56 202.386 58.7 199.386 61.6C192.686 67.9 191.786 75 191.786 75" stroke="#894B33" stroke-width="3" stroke-miterlimit="10" stroke-linecap="round" stroke-linejoin="round"/>
<path d="M95.9867 71.3C95.9867 71.3 91.8867 65.8 84.3867 60.3C79.4867 56.7 73.0867 53.1 65.3867 51" stroke="#894B33" stroke-width="3" stroke-miterlimit="10" stroke-linecap="round" stroke-linejoin="round"/>
</g>
<defs>
<clipPath id="clip0_112_4769">
<rect width="290" height="190" fill="white"/>
</clipPath>
</defs>
</svg>
