<svg width="290" height="190" viewBox="0 0 290 190" fill="none" xmlns="http://www.w3.org/2000/svg">
<g clip-path="url(#clip0_112_4757)">
<path d="M230.787 68.6923C216.587 50.3923 194.587 42.7923 182.487 38.2923C181.487 33.2923 166.687 27.2923 161.187 28.4923L161.987 31.7923C162.387 33.3923 164.387 40.7923 161.287 50.2923C158.687 58.2923 148.187 61.8923 130.387 53.7923C95.6869 38.0923 91.6869 20.3923 91.6869 20.3923C91.1869 12.2923 62.2869 31.4923 50.9869 41.6923C45.3869 46.6923 42.9869 48.7923 37.1869 53.2923C24.4869 62.9923 9.38691 76.9923 3.68691 96.2923C-5.91309 129.092 -4.31309 149.192 -4.31309 149.192H253.887C253.887 149.292 250.087 93.5923 230.787 68.6923Z" fill="#A862F9"/>
<path d="M44.7867 149.292C44.7867 149.292 43.8867 126.992 40.8867 120.992" stroke="#544D4D" stroke-width="3" stroke-miterlimit="10" stroke-linecap="round" stroke-linejoin="round"/>
<path d="M221.387 99.4922C221.387 99.4922 226.987 130.892 224.787 149.292" stroke="#544D4D" stroke-width="3" stroke-miterlimit="10" stroke-linecap="round" stroke-linejoin="round"/>
<path d="M205.187 129.692C205.187 129.692 190.387 131.892 177.387 131.292" stroke="#544D4D" stroke-width="3" stroke-miterlimit="10" stroke-linecap="round" stroke-linejoin="round"/>
<path d="M48.187 47.7923C48.187 47.7923 41.887 64.0922 50.587 70.5922C59.287 76.9922 76.587 73.7923 76.587 73.7923C76.587 73.7923 77.787 94.3923 94.387 95.9923C110.987 97.5923 120.587 85.0922 120.587 85.0922C120.587 85.0922 134.187 103.492 153.687 102.192C173.187 100.792 172.287 78.0922 172.287 78.0922C172.287 78.0922 179.987 83.1922 189.287 79.6922C200.587 75.4922 196.687 56.8922 189.287 51.6922C189.287 51.6922 204.287 53.6923 199.687 45.3923C194.987 37.0923 173.887 27.3923 160.987 28.5923C160.987 28.5923 162.987 44.0922 147.787 47.1922C129.287 50.8922 108.387 42.9923 97.587 27.4923C90.687 17.5923 91.487 17.1923 85.587 18.5923C79.687 19.9923 45.687 38.3923 48.187 47.7923Z" fill="white"/>
<path d="M72.1865 25.0923C73.6865 28.9923 71.5865 28.9923 74.2865 33.3923C75.5865 35.4923 78.7865 36.6923 80.7865 39.1923C82.3865 41.1923 82.7865 44.6923 84.8865 46.7923C86.7865 48.6923 90.1865 49.0923 92.4865 50.9923C94.5865 52.6923 95.6865 55.9923 98.1865 57.4923C100.487 58.8923 103.887 58.5923 106.487 59.7923C108.887 60.9923 110.787 63.8923 113.487 64.7923C116.087 65.6923 119.287 64.5923 122.187 65.1923C125.687 65.9923 128.687 68.5923 131.887 68.9923C135.587 69.4923 139.087 67.6923 142.187 67.6923C145.887 67.6923 149.487 69.2923 152.487 68.6923C156.187 67.9923 158.687 64.9923 161.487 63.4923C164.787 61.7923 168.587 61.2923 170.787 58.8923C173.187 56.2923 173.187 52.2923 174.387 49.1923C175.687 45.8923 178.287 42.9923 178.487 39.6923C178.687 36.0923 176.387 32.7923 175.587 29.7923" stroke="#E2E2E2" stroke-width="3" stroke-miterlimit="10" stroke-linecap="round" stroke-linejoin="round"/>
<path d="M73.6865 48.1923C73.6865 48.1923 52.0865 48.7923 59.1865 58.6923C66.2865 68.4923 73.6865 48.1923 73.6865 48.1923Z" fill="#A862F9"/>
<path d="M101.787 68.7922C101.787 68.7922 83.8868 80.1922 94.7868 84.8922C105.687 89.5922 101.787 68.7922 101.787 68.7922Z" fill="#A862F9"/>
<path d="M151.786 75.4922C151.786 75.4922 144.386 94.5922 155.586 91.9922C166.786 89.4922 151.786 75.4922 151.786 75.4922Z" fill="#A862F9"/>
<path d="M179.187 60.1923C179.187 60.1923 182.087 76.9923 188.987 70.3923C195.787 63.6923 179.187 60.1923 179.187 60.1923Z" fill="#A862F9"/>
<path d="M184.487 38.1923C184.487 38.1923 191.987 49.9923 195.187 44.9923C198.387 39.8923 184.487 38.1923 184.487 38.1923Z" fill="#A862F9"/>
<path d="M96.8869 26.2922C96.8869 26.2922 89.9869 29.8922 88.0869 33.1922" stroke="#E2E2E2" stroke-width="3" stroke-miterlimit="10" stroke-linecap="round" stroke-linejoin="round"/>
<path d="M106.887 36.0923C106.887 36.0923 101.187 42.8923 100.487 45.2923" stroke="#E2E2E2" stroke-width="3" stroke-miterlimit="10" stroke-linecap="round" stroke-linejoin="round"/>
<path d="M119.787 44.3923C119.787 44.3923 116.787 50.2923 115.887 53.4923" stroke="#E2E2E2" stroke-width="3" stroke-miterlimit="10" stroke-linecap="round" stroke-linejoin="round"/>
<path d="M134.587 48.1923C134.587 48.1923 134.187 53.6923 134.587 57.7923" stroke="#E2E2E2" stroke-width="3" stroke-miterlimit="10" stroke-linecap="round" stroke-linejoin="round"/>
<path d="M149.387 47.0923C149.387 47.0923 151.387 53.0923 152.187 56.8923" stroke="#E2E2E2" stroke-width="3" stroke-miterlimit="10" stroke-linecap="round" stroke-linejoin="round"/>
<path d="M158.987 39.3923C158.987 39.3923 164.487 43.3923 165.387 46.1923" stroke="#E2E2E2" stroke-width="3" stroke-miterlimit="10" stroke-linecap="round" stroke-linejoin="round"/>
<path d="M161.187 30.7922C161.187 30.7922 166.287 30.9922 168.387 34.1922" stroke="#E2E2E2" stroke-width="3" stroke-miterlimit="10" stroke-linecap="round" stroke-linejoin="round"/>
</g>
<defs>
<clipPath id="clip0_112_4757">
<rect width="290" height="190" fill="white"/>
</clipPath>
</defs>
</svg>
