<svg width="290" height="190" viewBox="0 0 290 190" fill="none" xmlns="http://www.w3.org/2000/svg">
<g clip-path="url(#clip0_4_1828)">
<path d="M73.6406 19.6153C73.6406 19.6153 88.2406 13.8153 90.9406 13.6153L91.1406 15.9153C91.1406 15.9153 79.5406 20.9153 78.8406 21.7153C78.1406 22.5153 73.6406 19.6153 73.6406 19.6153Z" fill="#7E5D6D"/>
<path d="M253.841 149.415H1.04102C1.04102 149.415 2.54101 103.015 17.741 69.9153C29.241 44.9153 56.841 28.4153 76.941 21.2153C82.641 19.2153 87.041 17.0153 91.141 15.9153C91.141 16.4153 91.441 20.1153 91.441 20.5153C91.441 20.5153 108.041 43.4153 145.041 43.1153C167.241 43.0153 161.041 28.6153 161.041 28.6153C162.941 28.2153 164.741 27.7153 166.541 27.1153C167.141 26.9153 171.341 25.2153 171.841 25.0153C184.741 28.4153 200.541 38.0153 223.441 57.2153C249.241 78.9153 253.841 149.415 253.841 149.415Z" fill="#E89D6B"/>
<mask id="mask0_4_1828" style="mask-type:alpha" maskUnits="userSpaceOnUse" x="1" y="15" width="253" height="135">
<path d="M253.841 149.415H1.04102C1.04102 149.415 2.54101 103.015 17.741 69.9153C29.241 44.9153 56.841 28.4153 76.941 21.2153C82.641 19.2153 87.041 17.0153 91.141 15.9153C91.141 16.4153 91.441 20.1153 91.441 20.5153C91.441 20.5153 108.041 43.4153 145.041 43.1153C167.241 43.0153 161.041 28.6153 161.041 28.6153C162.941 28.2153 164.741 27.7153 166.541 27.1153C167.141 26.9153 171.341 25.2153 171.841 25.0153C184.741 28.4153 200.541 38.0153 223.441 57.2153C249.241 78.9153 253.841 149.415 253.841 149.415Z" fill="#E89D6B"/>
</mask>
<g mask="url(#mask0_4_1828)">
<path d="M52.9414 13.7153C58.4414 13.9153 61.2414 14.0153 66.7414 13.9153C71.6414 16.8153 74.0414 18.2153 79.0414 20.9153C84.1414 20.6153 86.7414 20.4153 91.8414 19.8153C96.9414 22.2153 99.4414 23.4153 104.541 25.7153C109.741 24.9153 112.341 24.4153 117.441 23.4153C122.641 25.4153 125.341 26.3153 130.541 28.0153C135.741 26.7153 138.341 25.9153 143.541 24.4153C148.941 25.8153 151.641 26.5153 157.041 27.7153C162.241 25.8153 164.841 24.9153 170.041 22.8153C175.541 23.7153 178.341 24.1153 183.841 24.8153C188.941 22.4153 191.541 21.2153 196.641 18.6153C202.241 18.9153 205.041 19.0153 210.641 19.1153C215.641 16.1153 218.141 14.6153 223.141 11.5153C229.441 11.0153 232.541 10.7153 238.841 10.0153C238.341 12.4153 238.141 13.6153 237.741 16.0153C232.541 16.6153 229.841 16.9153 224.641 17.3153C219.541 20.5153 217.041 22.1153 211.841 25.1153C206.141 25.1153 203.341 25.0153 197.641 24.7153C192.441 27.3153 189.841 28.6153 184.641 31.0153C179.041 30.3153 176.241 29.9153 170.641 29.1153C165.441 31.2153 162.741 32.2153 157.541 34.0153C152.041 32.8153 149.341 32.1153 143.941 30.7153C138.741 32.2153 136.041 33.0153 130.841 34.3153C125.541 32.5153 122.841 31.6153 117.541 29.6153C112.341 30.6153 109.741 31.1153 104.441 31.9153C99.2414 29.6153 96.7414 28.5153 91.5414 26.0153C86.3414 26.5153 83.7414 26.7153 78.6414 27.0153C73.6414 24.3153 71.1414 22.9153 66.2414 19.9153C61.6414 19.9153 59.3414 19.9153 54.7414 19.7153C54.0414 17.4153 53.7414 16.2153 52.9414 13.7153Z" fill="#FFFF8D"/>
<path d="M51.541 39.1153C57.041 39.2153 59.741 39.2153 65.341 39.0153C70.341 41.8153 72.841 43.1153 77.841 45.7153C82.941 45.3153 85.441 45.0153 90.541 44.3153C95.641 46.6153 98.241 47.7153 103.441 49.8153C108.541 48.9153 111.041 48.3153 116.241 47.2153C121.541 49.0153 124.241 49.9153 129.541 51.5153C134.641 50.0153 137.241 49.3153 142.341 47.6153C147.741 48.9153 150.541 49.5153 155.941 50.6153C161.041 48.6153 163.541 47.6153 168.641 45.4153C174.241 46.2153 176.941 46.5153 182.541 47.0153C187.541 44.5153 190.041 43.2153 195.041 40.5153C200.641 40.7153 203.541 40.7153 209.141 40.6153C214.041 37.6153 216.441 36.0153 221.341 32.8153C227.641 32.2153 230.841 31.9153 237.141 31.0153C236.741 33.4153 236.641 34.6153 236.241 36.9153C230.941 37.6153 228.341 37.9153 223.141 38.4153C218.141 41.7153 215.741 43.3153 210.741 46.4153C205.041 46.5153 202.141 46.5153 196.441 46.3153C191.341 49.0153 188.841 50.3153 183.741 52.9153C178.141 52.4153 175.241 52.1153 169.641 51.3153C164.541 53.5153 161.941 54.5153 156.741 56.5153C151.241 55.4153 148.441 54.8153 142.941 53.5153C137.741 55.2153 135.241 55.9153 130.041 57.4153C124.641 55.8153 121.941 54.9153 116.641 53.1153C111.441 54.2153 108.941 54.8153 103.741 55.7153C98.541 53.6153 95.841 52.5153 90.641 50.1153C85.541 50.7153 82.941 51.0153 77.841 51.5153C72.741 48.9153 70.241 47.5153 65.241 44.7153C60.641 44.8153 58.341 44.9153 53.841 44.8153C52.841 42.6153 52.441 41.4153 51.541 39.1153Z" fill="#FFFF8D"/>
<path d="M50.1416 64.1153C55.5416 64.0153 58.3416 63.9153 63.8416 63.7153C68.8416 66.4153 71.4416 67.7153 76.5416 70.1153C81.5416 69.5153 84.0416 69.2153 89.0416 68.4153C94.2416 70.6153 96.8416 71.6153 102.142 73.6153C107.142 72.5153 109.642 72.0153 114.742 70.7153C120.142 72.4153 122.842 73.2153 128.242 74.7153C133.242 73.1153 135.742 72.3153 140.742 70.6153C146.242 71.8153 149.042 72.3153 154.542 73.3153C159.542 71.2153 162.042 70.2153 166.942 67.9153C172.542 68.5153 175.342 68.8153 180.942 69.2153C185.842 66.6153 188.342 65.3153 193.142 62.5153C198.842 62.5153 201.642 62.5153 207.342 62.3153C212.142 59.2153 214.542 57.6153 219.242 54.4153C225.542 53.7153 228.742 53.3153 235.042 52.3153C234.742 54.6153 234.642 55.8153 234.442 58.2153C229.142 59.0153 226.542 59.4153 221.242 60.0153C216.442 63.3153 213.942 65.0153 209.142 68.1153C203.342 68.3153 200.442 68.4153 194.742 68.3153C189.742 71.1153 187.342 72.4153 182.342 75.1153C176.642 74.7153 173.842 74.5153 168.142 73.8153C163.142 76.1153 160.642 77.2153 155.542 79.3153C149.942 78.4153 147.142 77.8153 141.642 76.6153C136.542 78.4153 134.042 79.2153 128.942 80.8153C123.442 79.3153 120.742 78.5153 115.342 76.8153C110.242 78.1153 107.742 78.7153 102.642 79.7153C97.3416 77.7153 94.6416 76.6153 89.4416 74.4153C84.3416 75.2153 81.8416 75.5153 76.7416 76.1153C71.5416 73.6153 69.0416 72.3153 63.9416 69.6153C59.4416 69.8153 57.1416 69.9153 52.6416 70.0153C51.6416 67.7153 51.1416 66.5153 50.1416 64.1153Z" fill="#FFFF8D"/>
<path d="M48.6416 89.0153C54.0416 88.8153 56.7416 88.6153 62.1416 88.2153C67.2416 90.8153 69.8416 92.0153 75.0416 94.3153C79.9416 93.6153 82.4416 93.2153 87.4416 92.3153C92.7416 94.4153 95.4416 95.4153 100.742 97.2153C105.642 96.0153 108.142 95.4153 113.142 94.0153C118.542 95.6153 121.342 96.3153 126.742 97.6153C131.642 95.9153 134.142 95.0153 139.042 93.2153C144.642 94.2153 147.342 94.7153 152.942 95.5153C157.842 93.3153 160.242 92.2153 165.142 89.9153C170.842 90.4153 173.642 90.6153 179.342 90.9153C184.142 88.3153 186.542 86.9153 191.342 84.1153C197.042 84.0153 199.942 83.9153 205.642 83.6153C210.342 80.5153 212.642 78.9153 217.242 75.6153C223.642 74.8153 226.842 74.3153 233.142 73.2153C232.942 75.5153 232.942 76.7153 232.742 79.0153C227.442 79.9153 224.842 80.3153 219.542 81.0153C214.842 84.4153 212.442 86.0153 207.742 89.2153C201.942 89.5153 199.042 89.6153 193.242 89.7153C188.442 92.6153 185.942 94.0153 181.142 96.6153C175.442 96.3153 172.542 96.2153 166.842 95.7153C161.942 98.1153 159.442 99.2153 154.542 101.415C148.842 100.615 146.042 100.115 140.442 99.1153C135.442 101.015 132.942 101.915 127.942 103.615C122.442 102.315 119.642 101.515 114.142 100.015C109.142 101.415 106.642 102.015 101.642 103.215C96.2416 101.315 93.5416 100.415 88.1416 98.3153C83.1416 99.2153 80.6416 99.6153 75.6416 100.315C70.3416 97.9153 67.7416 96.7153 62.6416 94.1153C58.1416 94.5153 55.9416 94.6153 51.4416 94.8153C50.3416 92.5153 49.7416 91.3153 48.6416 89.0153Z" fill="#FFFF8D"/>
<path d="M47.2412 113.615C52.5412 113.215 55.2412 113.015 60.6412 112.415C65.8412 114.815 68.4412 116.015 73.7412 118.215C78.6412 117.415 81.0412 116.915 85.9412 115.915C91.3412 117.815 94.0412 118.815 99.4412 120.515C104.341 119.215 106.741 118.515 111.541 117.015C117.041 118.415 119.841 119.115 125.341 120.315C130.141 118.515 132.541 117.615 137.441 115.615C143.041 116.515 145.841 116.915 151.541 117.615C156.341 115.315 158.641 114.215 163.441 111.815C169.141 112.215 172.041 112.315 177.741 112.515C182.441 109.815 184.741 108.415 189.441 105.515C195.241 105.315 198.041 105.215 203.841 104.815C208.341 101.615 210.641 100.015 215.141 96.7154C221.541 95.8154 224.741 95.3154 231.141 94.1154C231.041 96.4154 231.041 97.5154 230.941 99.8154C225.641 100.815 223.041 101.215 217.741 102.015C213.141 105.415 210.841 107.115 206.241 110.315C200.441 110.815 197.441 110.915 191.641 111.115C186.941 114.015 184.541 115.515 179.841 118.215C174.041 118.115 171.141 118.015 165.341 117.615C160.541 120.115 158.141 121.215 153.341 123.515C147.641 122.815 144.741 122.415 139.041 121.515C134.141 123.515 131.741 124.415 126.841 126.215C121.241 125.015 118.441 124.315 112.841 122.915C107.941 124.415 105.441 125.115 100.541 126.415C95.0412 124.715 92.3412 123.815 86.8412 121.815C81.9412 122.815 79.4412 123.315 74.5412 124.115C69.2412 121.915 66.5412 120.715 61.2412 118.315C56.8412 118.815 54.6412 119.015 50.2412 119.315C49.0412 117.115 48.4412 115.915 47.2412 113.615Z" fill="#FFFF8D"/>
<path d="M45.7412 138.015C51.0412 137.515 53.6412 137.215 58.9412 136.515C64.2412 138.815 66.9412 139.915 72.2412 142.015C77.0412 141.015 79.4412 140.515 84.2412 139.415C89.7412 141.215 92.4412 142.115 97.9412 143.715C102.741 142.315 105.041 141.515 109.841 139.915C115.441 141.215 118.241 141.815 123.841 142.915C128.541 141.015 130.941 140.015 135.641 138.015C141.341 138.815 144.141 139.115 149.841 139.715C154.541 137.415 156.841 136.215 161.441 133.715C167.241 134.015 170.041 134.015 175.841 134.115C180.441 131.315 182.641 129.915 187.241 127.015C193.041 126.715 195.941 126.515 201.741 126.015C206.141 122.815 208.341 121.115 212.741 117.815C219.141 116.815 222.441 116.315 228.841 115.015C228.841 117.215 228.841 118.415 228.941 120.615C223.641 121.615 221.041 122.115 215.741 122.915C211.241 126.315 209.041 128.015 204.541 131.315C198.641 131.915 195.741 132.115 189.841 132.415C185.241 135.415 182.941 136.815 178.341 139.715C172.541 139.715 169.541 139.615 163.741 139.415C159.041 141.915 156.741 143.215 151.941 145.515C146.141 145.015 143.241 144.615 137.541 143.915C132.741 146.015 130.341 147.015 125.641 148.915C119.941 147.815 117.141 147.215 111.441 145.915C106.641 147.515 104.241 148.315 99.4412 149.715C93.8412 148.115 91.1412 147.315 85.5412 145.515C80.7412 146.715 78.2412 147.215 73.4412 148.215C68.0412 146.115 65.3412 145.015 59.9412 142.715C55.5412 143.315 53.4412 143.615 49.0412 144.015C47.7412 141.515 47.0412 140.315 45.7412 138.015Z" fill="#FFFF8D"/>
<path d="M87.3409 29.8153C87.3409 29.8153 92.7409 49.7153 134.441 54.7153C176.241 59.6153 176.641 33.3153 167.441 18.5153C158.241 3.71527 94.7409 7.31526 87.9409 14.4153C81.1409 21.5153 87.3409 29.8153 87.3409 29.8153Z" fill="white"/>
</g>
<path d="M50.541 149.415L46.041 112.315" stroke="#544D4D" stroke-width="3" stroke-miterlimit="10" stroke-linecap="round" stroke-linejoin="round"/>
<path d="M225.141 99.7153C225.141 99.7153 222.141 107.015 223.041 114.315C223.941 121.615 226.541 132.315 222.841 149.415" stroke="#544D4D" stroke-width="3" stroke-miterlimit="10" stroke-linecap="round" stroke-linejoin="round"/>
<path d="M73.6404 19.6154C75.5404 19.0154 78.8404 19.6154 79.8404 21.3154C83.7404 27.7154 93.1404 46.4154 97.0404 83.5154C100.14 112.515 95.4404 164.715 95.4404 164.715L-1.55957 160.115C-1.55957 160.115 1.34043 110.815 9.84043 77.7154C18.1404 45.6154 39.9404 31.2154 73.6404 19.6154Z" fill="#755B7A"/>
<path d="M174.24 25.7153C174.24 25.7153 205.14 83.8153 196.14 161.415H262.94C262.94 161.415 262.54 108.715 247.54 75.3153C232.54 41.9153 180.04 23.2153 180.04 23.2153C180.04 23.2153 176.74 24.8153 174.24 25.7153Z" fill="#755B7A"/>
<path d="M174.241 25.7154L171.841 25.0154C171.841 25.0154 175.341 23.3154 176.841 22.3154L177.741 21.8154C177.741 21.8154 182.541 24.0154 184.241 24.8154C185.941 25.6154 178.341 29.3154 178.341 29.3154C178.341 29.3154 174.541 25.8154 174.241 25.7154Z" fill="#7E5D6D"/>
<path d="M95.9405 74.2154C95.9405 74.2154 92.5405 64.5154 84.8405 55.9154C77.7405 47.9154 64.7405 35.5154 63.8405 32.7154C62.1405 27.0154 72.7405 5.51537 89.3405 -1.98463C89.3405 -1.88463 89.3405 -1.78463 89.3405 -1.68463C89.3405 -1.58463 89.3405 -1.48462 89.3405 -1.28462C89.3405 -1.08462 89.3405 -0.884631 89.4405 -0.684631C89.4405 -0.384631 89.5405 -0.0846222 89.5405 0.215378C89.5405 0.415378 89.5405 0.515378 89.6405 0.715378C90.3405 6.71538 90.9405 13.4154 91.4405 20.5154V20.6154C91.4405 20.6154 86.8405 22.1154 90.1405 45.0154C91.0405 50.5154 94.4405 60.3154 95.9405 74.2154Z" fill="#4B3C4F"/>
<path d="M191.74 77.3154C191.74 77.3154 185.04 51.3153 181.74 43.0153C178.44 34.8153 172.24 25.5153 171.94 25.0153C175.84 23.2153 179.34 20.9153 182.44 18.2153C185.54 15.5153 188.04 12.8153 190.14 10.1153C192.64 12.9153 207.54 29.7153 209.14 38.9153C210.94 49.1153 197.94 53.5154 191.74 77.3154Z" fill="#4B3C4F"/>
</g>
<defs>
<clipPath id="clip0_4_1828">
<rect width="290" height="190" fill="white"/>
</clipPath>
</defs>
</svg>
