<svg width="290" height="190" viewBox="0 0 290 190" fill="none" xmlns="http://www.w3.org/2000/svg">
<g clip-path="url(#clip0_112_4913)">
<g opacity="0.25">
<g opacity="0.25">
<g opacity="0.25">
<g opacity="0.25">
<path opacity="0.25" d="M-5 44.4C15.3 33.2 12.6 44.8 42.1 39.1C54.7 36.7 68.9 25.7 87 24.9C100.8 24.3 116.1 33.5 133.1 34.7C147.3 35.7 163.7 28.4 180.1 31.1C194.4 33.4 207.6 45.4 223.6 49.3" stroke="#6D5F5E" stroke-width="5.0089" stroke-miterlimit="10" stroke-linecap="round" stroke-linejoin="round"/>
</g>
<g opacity="0.25">
<path opacity="0.25" d="M-4.59961 55.8C17.3004 46.7 13.8004 58.2 43.8004 53.3C56.9004 51.2 71.7004 40.1 90.0004 39.3C104.3 38.7 120 48 137.3 48.9C152 49.7 168.6 41.8 185.3 44.1C200.1 46.1 214 58.1 230.3 61.6" stroke="#6D5F5E" stroke-width="5.0089" stroke-miterlimit="10" stroke-linecap="round" stroke-linejoin="round"/>
</g>
<g opacity="0.25">
<path opacity="0.25" d="M-4.2002 67.2C18.9998 60 14.7998 71.3 45.3998 67.3C58.8998 65.5 74.2998 54.4 92.8998 53.6C107.6 53 123.9 62.5 141.4 63.2C156.6 63.8 173.4 55.3 190.5 57.2C205.8 58.9 220.4 70.8 237.1 73.8" stroke="#6D5F5E" stroke-width="5.0089" stroke-miterlimit="10" stroke-linecap="round" stroke-linejoin="round"/>
</g>
<g opacity="0.25">
<path opacity="0.25" d="M-3.7998 78.6C20.5002 73.2 15.8002 84.3 47.0002 81.1C61.0002 79.6 77.0002 68.5 95.9002 67.8C111.1 67.2 127.8 77 145.7 77.4C161.4 77.8 178.5 68.8 195.9 70.3C211.8 71.7 227.1 83.4 244.1 86" stroke="#6D5F5E" stroke-width="5.0089" stroke-miterlimit="10" stroke-linecap="round" stroke-linejoin="round"/>
</g>
<g opacity="0.25">
<path opacity="0.25" d="M-3.5 90.1C21.7 86.2 16.6 97.3001 48.3 94.8001C62.8 93.7001 79.4 82.5 98.6 81.9C114.3 81.4 131.5 91.4001 149.6 91.7001C165.8 91.9001 183.2 82.4 200.9 83.5C217.3 84.5 233.4 96.1 250.8 98.1" stroke="#6D5F5E" stroke-width="5.0089" stroke-miterlimit="10" stroke-linecap="round" stroke-linejoin="round"/>
</g>
<g opacity="0.25">
<path opacity="0.25" d="M-3.2998 101.6C22.7002 99.1 17.3002 110.1 49.5002 108.4C64.5002 107.6 81.7002 96.5 101.3 96.1C117.5 95.7 135.1 106 153.6 106.1C170.3 106.2 188.1 96.1 206 96.9C223.1 97.6 239.9 109 257.5 110.3" stroke="#6D5F5E" stroke-width="5.0089" stroke-miterlimit="10" stroke-linecap="round" stroke-linejoin="round"/>
</g>
<g opacity="0.25">
<path opacity="0.25" d="M-3 113.2C23.7 112 18 122.9 50.9 122C66.3 121.6 84.2 110.5 104.2 110.2C120.9 110 139 120.5 157.8 120.5C175.1 120.5 193.2 110 211.4 110.3C229.1 110.6 246.7 121.8 264.6 122.5" stroke="#6D5F5E" stroke-width="5.0089" stroke-miterlimit="10" stroke-linecap="round" stroke-linejoin="round"/>
</g>
<g opacity="0.25">
<path opacity="0.25" d="M-2.7998 124.7C24.6002 124.6 18.6002 135.6 52.1002 135.4C68.0002 135.3 86.5002 124.3 106.9 124.2C124.1 124.1 142.6 135 161.8 135C179.7 134.9 198.1 123.9 216.6 123.8C235 123.7 253.4 134.6 271.5 134.6" stroke="#6D5F5E" stroke-width="5.0089" stroke-miterlimit="10" stroke-linecap="round" stroke-linejoin="round"/>
</g>
<g opacity="0.25">
<path opacity="0.25" d="M-2.59961 136.2C25.5004 137.1 19.2004 148.1 53.3004 148.7C69.6004 149 88.8004 138 109.6 138.2C127.3 138.3 146.3 149.6 165.8 149.5C184.3 149.4 203 137.9 221.8 137.5C240.8 137.1 260.1 147.7 278.3 146.8" stroke="#6D5F5E" stroke-width="5.0089" stroke-miterlimit="10" stroke-linecap="round" stroke-linejoin="round"/>
</g>
<g opacity="0.25">
<path opacity="0.25" d="M-2.40039 147.8C26.2996 149.7 19.7996 160.8 54.4996 162.1C71.2996 162.7 91.1996 151.8 112.3 152.2C130.6 152.5 149.9 164.2 169.8 164C188.8 163.9 208 152 227 151.2C246.7 150.4 266.9 160.7 285.2 158.9" stroke="#6D5F5E" stroke-width="5.0089" stroke-miterlimit="10" stroke-linecap="round" stroke-linejoin="round"/>
</g>
<g opacity="0.25">
<path opacity="0.25" d="M-2.2002 159.4C27.0998 162.1 20.2998 173.3 55.6998 175.3C72.8998 176.3 93.4998 165.5 115 166.1C133.8 166.6 153.6 178.7 173.8 178.5C193.4 178.4 213 166.1 232.3 165C252.8 163.8 273.8 173.7 292.1 171.1" stroke="#6D5F5E" stroke-width="5.0089" stroke-miterlimit="10" stroke-linecap="round" stroke-linejoin="round"/>
</g>
</g>
</g>
</g>
<path d="M59.3997 36.1C63.2997 40.5 79.2997 59.6 84.9997 81.2L97.8997 83.3C97.8997 83.3 84.0997 48.9 65.0997 32.1C64.2997 31.4 63.0997 31.3 62.0997 31.7C61.2997 32.1 60.2997 32.8 59.3997 34C58.7997 34.7 58.8997 35.6 59.3997 36.1Z" fill="#423232"/>
<path d="M181.5 76.7001C181.5 76.7001 183.2 50.9001 170.3 32.7001C170.3 32.7001 171.1 31.9001 175.6 34.1001C178.8 35.6001 188.2 48.5001 189.1 74.6001C189.2 74.6001 182.6 76.8001 181.5 76.7001Z" fill="#423232"/>
<path d="M82 63.3001C82 63.3001 155.9 83.0001 187.8 61.2001C187.8 61.2001 204.4 93.9001 210.9 157.5H68.5C68.5 157.5 80.1 142.2 82 63.3001Z" fill="#423232"/>
<path d="M95.5002 87.7C98.1512 87.7 100.3 85.551 100.3 82.9C100.3 80.2491 98.1512 78.1 95.5002 78.1C92.8492 78.1 90.7002 80.2491 90.7002 82.9C90.7002 85.551 92.8492 87.7 95.5002 87.7Z" fill="white"/>
<path d="M184.3 80.1001C186.619 80.1001 188.5 78.2197 188.5 75.9001C188.5 73.5805 186.619 71.7001 184.3 71.7001C181.98 71.7001 180.1 73.5805 180.1 75.9001C180.1 78.2197 181.98 80.1001 184.3 80.1001Z" fill="white"/>
</g>
<defs>
<clipPath id="clip0_112_4913">
<rect width="290" height="190" fill="white"/>
</clipPath>
</defs>
</svg>
