<svg width="290" height="190" viewBox="0 0 290 190" fill="none" xmlns="http://www.w3.org/2000/svg">
<g clip-path="url(#clip0_112_4781)">
<path d="M73.7861 19.1019C73.7861 19.1019 88.3861 13.3019 91.0861 13.1019L91.2861 15.4019C91.2861 15.4019 79.6861 20.4019 78.9861 21.2019C78.3861 21.9019 73.7861 19.1019 73.7861 19.1019Z" fill="#7E5D6D"/>
<path d="M253.886 150.802H1.08594C1.08594 150.802 2.58594 104.402 17.7859 71.3019C29.2859 46.3019 56.8859 29.8019 76.9859 22.6019C82.6859 20.6019 87.0859 18.4019 91.1859 17.3019C91.1859 17.8019 91.4859 21.5019 91.4859 21.9019C91.4859 21.9019 107.286 37.4019 142.886 39.3019C159.386 40.2019 160.986 29.9019 160.986 29.9019C162.886 29.5019 164.686 29.0019 166.486 28.4019C167.086 28.2019 171.286 26.5019 171.786 26.3019C184.686 29.7019 200.486 39.3019 223.386 58.5019C249.286 80.4019 253.886 150.802 253.886 150.802Z" fill="#69D69D"/>
<path d="M205.186 47.1019C211.648 47.1019 216.886 41.8636 216.886 35.4019C216.886 28.9402 211.648 23.7019 205.186 23.7019C198.725 23.7019 193.486 28.9402 193.486 35.4019C193.486 41.8636 198.725 47.1019 205.186 47.1019Z" fill="#FFFF8D"/>
<path d="M50.5859 148.802L46.0859 111.802" stroke="#544D4D" stroke-width="3" stroke-miterlimit="10" stroke-linecap="round" stroke-linejoin="round"/>
<path d="M225.187 99.1019C225.187 99.1019 222.187 106.402 223.087 113.702C223.987 121.002 226.587 131.702 222.887 148.802" stroke="#544D4D" stroke-width="3" stroke-miterlimit="10" stroke-linecap="round" stroke-linejoin="round"/>
<path d="M73.7863 19.1019C75.6863 18.5019 78.9863 19.1019 79.9863 20.8019C83.8863 27.2019 137.586 36.8019 141.486 73.9019C144.586 102.902 138.786 164.202 138.786 164.202L-1.51367 159.602C-1.51367 159.602 1.38633 110.302 9.88633 77.2019C18.1863 45.1019 39.9863 30.7019 73.7863 19.1019Z" fill="#5889BA"/>
<path d="M164.286 73.8019C164.286 73.8019 170.486 105.902 169.386 160.802H262.886C262.886 160.802 262.586 99.2019 247.586 65.7019C232.586 32.3019 180.086 22.5019 180.086 22.5019C180.086 22.5019 166.786 72.9019 164.286 73.8019Z" fill="#5889BA"/>
<path d="M174.287 28.2019L171.887 27.5019C171.887 27.5019 175.387 25.8019 176.887 24.8019L177.787 24.3019C177.787 24.3019 182.587 26.5019 184.287 27.3019C185.987 28.1019 178.387 31.8019 178.387 31.8019C178.387 31.8019 174.587 28.2019 174.287 28.2019Z" fill="#7E5D6D"/>
<path d="M141.487 73.8019C141.487 73.8019 125.387 60.5019 89.2868 53.3019C57.7868 47.0019 25.1868 50.0019 27.9868 41.6019C36.7868 15.3019 89.6868 -0.198088 89.6868 0.0019121C89.6868 0.101912 89.6868 0.101909 89.6868 0.201909C91.0868 12.5019 100.487 21.2019 112.187 25.3019C120.787 28.3019 132.087 29.6019 136.187 30.1019C140.087 30.5019 141.387 59.6019 141.487 73.8019Z" fill="white"/>
<path d="M141.486 73.8019C139.386 72.4019 137.186 71.2019 134.986 70.0019C133.886 69.4019 132.786 68.9019 131.586 68.3019C130.486 67.8019 129.286 67.2019 128.186 66.7019C123.586 64.7019 118.886 62.9019 114.186 61.3019C112.986 60.9019 111.786 60.5019 110.586 60.2019L106.986 59.1019L103.386 58.1019C102.186 57.8019 100.986 57.4019 99.7864 57.2019L96.1864 56.3019C94.9864 56.0019 93.7864 55.8019 92.4864 55.5019C90.0864 55.0019 87.5864 54.5019 85.0864 54.1019C80.1864 53.2019 75.1864 52.5019 70.1864 51.9019C65.1864 51.3019 60.1864 50.8019 55.1864 50.2019C50.1864 49.7019 45.1864 49.2019 40.0864 48.4019C37.5864 48.0019 35.0864 47.5019 32.5864 46.7019C31.3864 46.3019 30.1864 45.8019 29.0864 45.0019C28.7864 44.8019 28.5864 44.5019 28.3864 44.3019C28.1864 44.0019 27.9864 43.8019 27.8864 43.4019C27.5864 42.8019 27.7864 42.1019 27.9864 41.5019C27.8864 42.1019 27.7864 42.8019 28.0864 43.3019C28.1864 43.6019 28.4864 43.8019 28.5864 44.0019C28.7864 44.2019 29.0864 44.4019 29.2864 44.5019C30.2864 45.1019 31.4864 45.5019 32.7864 45.7019C35.1864 46.2019 37.6864 46.5019 40.1864 46.7019C45.1864 47.1019 50.1864 47.3019 55.2864 47.7019C60.2864 48.0019 65.3864 48.4019 70.3864 48.9019C75.3864 49.4019 80.4864 50.1019 85.4864 50.9019C95.4864 52.8019 105.386 55.2019 114.886 58.9019C117.286 59.8019 119.586 60.8019 121.886 61.8019L125.286 63.4019C126.386 64.0019 127.586 64.6019 128.686 65.1019C129.786 65.7019 130.886 66.3019 131.986 67.0019C133.086 67.7019 134.186 68.3019 135.186 69.0019C137.586 70.7019 139.586 72.2019 141.486 73.8019Z" fill="#446F93"/>
<path d="M239.587 49.2019C237.987 39.9019 194.987 8.80195 190.187 9.60195C188.087 12.4019 185.587 15.1019 182.487 17.7019C179.387 20.4019 175.787 22.7019 171.987 24.5019C166.387 26.5019 162.587 28.1019 156.287 28.9019C155.287 29.0019 154.687 30.0019 154.987 30.9019C159.687 43.6019 161.787 60.9019 164.287 73.9019C176.187 62.2019 189.587 57.0019 201.787 54.6019C223.087 50.3019 240.587 54.9019 239.587 49.2019Z" fill="white"/>
<path d="M164.286 73.8019C168.786 68.6019 174.186 64.1019 180.286 60.7019C183.286 59.0019 186.486 57.5019 189.786 56.3019C193.086 55.1019 196.486 54.1019 199.886 53.4019C203.286 52.7019 206.786 52.2019 210.186 51.8019C213.686 51.5019 217.086 51.3019 220.586 51.4019C224.086 51.4019 227.486 51.6019 230.886 51.7019C232.586 51.8019 234.286 51.8019 235.986 51.7019C236.786 51.6019 237.686 51.5019 238.386 51.2019C238.786 51.1019 239.086 50.8019 239.286 50.5019C239.486 50.2019 239.586 49.7019 239.586 49.3019C239.686 49.7019 239.786 50.2019 239.486 50.6019C239.286 51.0019 238.986 51.4019 238.586 51.6019C237.786 52.1019 236.886 52.3019 236.086 52.5019C234.386 52.9019 232.586 53.0019 230.886 53.2019C227.486 53.4019 223.986 53.6019 220.586 53.8019C217.186 54.0019 213.786 54.3019 210.386 54.7019C206.986 55.1019 203.686 55.6019 200.386 56.4019C193.786 57.8019 187.386 59.9019 181.286 62.9019C175.286 65.7019 169.586 69.5019 164.286 73.8019Z" fill="#446F93"/>
<path d="M130.386 92.1019C134.749 92.1019 138.286 88.5649 138.286 84.2019C138.286 79.8388 134.749 76.3019 130.386 76.3019C126.023 76.3019 122.486 79.8388 122.486 84.2019C122.486 88.5649 126.023 92.1019 130.386 92.1019Z" fill="white"/>
<path d="M80.1859 116.602C90.4584 116.602 98.7859 108.274 98.7859 98.0019C98.7859 87.7294 90.4584 79.4019 80.1859 79.4019C69.9134 79.4019 61.5859 87.7294 61.5859 98.0019C61.5859 108.274 69.9134 116.602 80.1859 116.602Z" fill="#446F93"/>
<path d="M215.287 116.602C225.559 116.602 233.887 108.274 233.887 98.0019C233.887 87.7294 225.559 79.4019 215.287 79.4019C205.014 79.4019 196.687 87.7294 196.687 98.0019C196.687 108.274 205.014 116.602 215.287 116.602Z" fill="#446F93"/>
<path d="M177.887 91.002C182.029 91.002 185.387 87.6441 185.387 83.502C185.387 79.3598 182.029 76.002 177.887 76.002C173.745 76.002 170.387 79.3598 170.387 83.502C170.387 87.6441 173.745 91.002 177.887 91.002Z" fill="white"/>
<path d="M141.286 62.8019C140.886 62.5019 140.486 62.2019 140.086 61.9019" stroke="#C3CAD1" stroke-width="3" stroke-linecap="round" stroke-linejoin="round"/>
<path d="M131.986 56.5019C123.986 52.1019 115.086 49.3019 104.586 46.4019C80.3857 39.6019 63.8857 41.8019 42.9857 35.5019C41.8857 35.2019 40.5857 34.8019 39.3857 34.3019" stroke="#C3CAD1" stroke-width="3" stroke-linecap="round" stroke-linejoin="round" stroke-dasharray="2.9 2.9"/>
<path d="M35.5861 31.4019C35.3861 31.0019 35.2861 30.5019 35.2861 30.0019" stroke="#C3CAD1" stroke-width="3" stroke-linecap="round" stroke-linejoin="round"/>
<path d="M135.587 29.9019C139.687 30.2019 148.887 30.5019 158.187 29.7019C159.187 29.6019 160.087 30.3019 160.187 31.3019L160.987 36.5019C161.187 37.5019 160.487 38.5019 159.387 38.6019C155.187 39.2019 144.787 40.4019 135.787 38.8019C134.987 38.7019 134.387 38.0019 134.287 37.2019L133.587 32.0019C133.487 30.9019 134.387 29.9019 135.587 29.9019Z" fill="white"/>
<path d="M137.086 43.8019C141.186 44.1019 150.386 44.4019 159.686 43.6019C160.686 43.5019 161.586 44.2019 161.686 45.2019L162.486 50.4019C162.686 51.4019 161.986 52.4019 160.886 52.5019C156.686 53.1019 146.286 54.3019 137.286 52.7019C136.486 52.6019 135.886 51.9019 135.786 51.1019L135.086 45.9019C134.886 44.7019 135.886 43.7019 137.086 43.8019Z" fill="white"/>
<path d="M162.586 64.2019C162.586 64.2019 162.986 63.8019 163.686 63.2019" stroke="#C3CAD1" stroke-width="3" stroke-linecap="round" stroke-linejoin="round"/>
<path d="M171.886 57.5019C176.986 54.5019 184.186 50.9019 193.686 47.9019C208.686 43.2019 221.686 43.5019 229.286 43.5019" stroke="#C3CAD1" stroke-width="3" stroke-linecap="round" stroke-linejoin="round" stroke-dasharray="3 3"/>
<path d="M234.386 43.4019C234.986 43.3019 235.486 43.2019 235.886 43.1019" stroke="#C3CAD1" stroke-width="3" stroke-linecap="round" stroke-linejoin="round"/>
<path d="M134.687 79.7019C141.987 81.0019 155.987 82.5019 173.687 79.4019C176.487 78.9019 179.087 80.9019 179.287 83.7019V84.2019C179.487 86.6019 177.887 88.8019 175.587 89.3019C168.487 91.0019 152.587 93.4019 132.687 89.1019C130.487 88.6019 128.887 86.6019 128.887 84.4019C128.987 81.4019 131.787 79.1019 134.687 79.7019Z" fill="#C3CAD1"/>
<path d="M160.686 36.9019C162.122 36.9019 163.286 35.7379 163.286 34.3019C163.286 32.866 162.122 31.7019 160.686 31.7019C159.25 31.7019 158.086 32.866 158.086 34.3019C158.086 35.7379 159.25 36.9019 160.686 36.9019Z" fill="#C3CAD1"/>
<path d="M164.287 49.9019C165.722 49.9019 166.887 48.7379 166.887 47.3019C166.887 45.866 165.722 44.7019 164.287 44.7019C162.851 44.7019 161.687 45.866 161.687 47.3019C161.687 48.7379 162.851 49.9019 164.287 49.9019Z" fill="#C3CAD1"/>
</g>
<defs>
<clipPath id="clip0_112_4781">
<rect width="290" height="190" fill="white"/>
</clipPath>
</defs>
</svg>
