<svg id="Layer_1" data-name="Layer 1" xmlns="http://www.w3.org/2000/svg" viewBox="0 0 587.22 484.57"><defs><style>.cls-1{fill:#fff;}.cls-2{fill:#f0f0f0;}.cls-3{fill:#2f2e41;}.cls-4{fill:#ffb6b6;}.cls-5{fill:#e4e4e4;}.cls-6{fill:#ffb7b7;}.cls-7{fill:#ff4040;}.cls-8{fill:#3f3d56;}.cls-9{fill:#a0616a;}</style></defs><path id="B" class="cls-1" d="M639.31,366.14H541.86a11.7,11.7,0,0,1,0-23.39h97.45a11.7,11.7,0,0,1,0,23.39Z" transform="translate(-63.78)"/><path id="B-2" data-name="B" class="cls-1" d="M639.31,402.2H541.86a11.7,11.7,0,0,1,0-23.39h97.45a11.7,11.7,0,0,1,0,23.39Z" transform="translate(-63.78)"/><path class="cls-2" d="M223.77,88H206.49a12.84,12.84,0,0,1-11.87,17.68H118.8A12.83,12.83,0,0,1,106.92,88H90.78a27,27,0,0,0-27,27V457.2a27,27,0,0,0,27,27h133a27,27,0,0,0,27-27h0V115a27,27,0,0,0-27-27Z" transform="translate(-63.78)"/><path class="cls-1" d="M223.92,219.05a70.57,70.57,0,1,0-121.95,67c.64.81,1.29,1.6,2,2.37l.14.16a69,69,0,0,0,5.26,5.42c.48.44,1,.9,1.49,1.33,1,.86,2,1.68,3,2.47l1.22.93c1.62,1.23,3.3,2.37,5,3.46l.07,0,1.51.9q1.38.81,2.79,1.56l.6.3q2,1.07,4.19,2l.9.38a.11.11,0,0,0,.06,0c.67.28,1.35.54,2,.8a68.44,68.44,0,0,0,6.86,2.2,70.83,70.83,0,0,0,18.21,2.38c2.22,0,4.44-.1,6.65-.32a70.58,70.58,0,0,0,14.74-3l0,0a68.82,68.82,0,0,0,8.86-3.5s0,0,.05,0c.64-.3,1.26-.63,1.9-1l.3-.15,1.52-.81c1.27-.7,2.52-1.44,3.74-2.22.34-.2.67-.42,1-.65.49-.31,1-.64,1.43-1,.63-.44,1.24-.88,1.85-1.33.19-.14.4-.28.59-.43a70.56,70.56,0,0,0,24-79.41ZM206.11,368.14H108.65a11.7,11.7,0,0,1,0-23.39h97.46a11.7,11.7,0,0,1,0,23.39Zm0,36.06H108.65a11.7,11.7,0,1,1,0-23.39h97.46a11.7,11.7,0,0,1,0,23.39Z" transform="translate(-63.78)"/><path class="cls-3" d="M132.41,258.76l4.1,14.19,52.38-.92-.46-26c-.36-20.59-14.92-38.35-35.51-38s-33.68,17.77-33.32,38.36l3,26.81,8.54-.15Z" transform="translate(-63.78)"/><circle class="cls-4" cx="91.48" cy="245.18" r="23.5"/><path class="cls-5" d="M202,281.83l-.53,9.89a62.93,62.93,0,0,1-87.22,3.37c-.54-.47-1.08-1-1.6-1.48,3.26-3.24,12.26-11.24,22.24-12l45-2.83s17.06-2,22.1,3Z" transform="translate(-63.78)"/><path class="cls-3" d="M181,228.68a9.06,9.06,0,0,0-1.62-5l-.33-.43a9.13,9.13,0,0,0-7.34-3.51l-16.89.3-16.88.29a9.15,9.15,0,0,0-9,9.29l4,8.09,2.32,4.65.38-.21c14.61-8.22,20.58-8.32,39.92-.69l.39.15,1.53-3.92,3.48-8.89Z" transform="translate(-63.78)"/><path class="cls-5" d="M207.37,288.48c-1.36,1.74-2.58,1.71-4.11,3.29-3.87,4-10,7.48-14.86,10.36l-1.06-18.88,14.7-1.42a13.53,13.53,0,0,1,5.33,6.65Z" transform="translate(-63.78)"/><path class="cls-5" d="M223.92,219.05a70.57,70.57,0,1,0-121.95,67c.63.8,1.29,1.6,2,2.37l.14.16a69,69,0,0,0,5.26,5.42c.48.44,1,.9,1.49,1.33,1,.86,2,1.68,3,2.47l1.22.93c1.62,1.23,3.3,2.37,5,3.46l.07,0,1.51.9q1.38.81,2.79,1.56l.6.3q2,1.07,4.19,2l.9.38a.11.11,0,0,0,.06,0c.67.28,1.35.54,2,.8a68.44,68.44,0,0,0,6.86,2.2,70.83,70.83,0,0,0,18.21,2.38c2.22,0,4.44-.1,6.65-.32a70.58,70.58,0,0,0,14.74-3l0,0a68.82,68.82,0,0,0,8.86-3.5s0,0,.05,0c.64-.3,1.26-.63,1.9-1l.3-.15,1.52-.81c1.27-.7,2.51-1.43,3.74-2.22.34-.2.67-.42,1-.65.49-.31,1-.64,1.43-1,.63-.44,1.24-.88,1.85-1.33.19-.14.4-.28.59-.43a70.56,70.56,0,0,0,24-79.41Zm-26.3,76.32c-.41.33-.84.65-1.27.94s-.84.62-1.27.9-.74.52-1.12.76l-.11.07-.84.55c-1,.66-2.11,1.29-3.19,1.9l-.34.19-1.44.77-.21.1-.07,0c-.61.32-1.23.62-1.85.91a63.09,63.09,0,0,1-7.39,3l-1,.33a66.91,66.91,0,0,1-14,2.84q-3.13.29-6.29.29a65.93,65.93,0,0,1-17.22-2.26,63.15,63.15,0,0,1-8.45-2.86c-.14-.06-.29-.11-.43-.18l-.43-.17c-.15-.07-.3-.13-.44-.21-1.19-.52-2.37-1.09-3.52-1.68l-.56-.29c-1.41-.74-2.79-1.52-4.13-2.36-.39-.24-.8-.49-1.18-.76l-.29-.19c-.9-.6-1.8-1.22-2.67-1.86l-1.77-1.34c-1-.74-1.92-1.52-2.83-2.33-.48-.41-1-.85-1.4-1.27a65,65,0,0,1-5.1-5.27c-.53-.61-1-1.22-1.54-1.85-.12-.13-.22-.26-.32-.39a66.7,66.7,0,1,1,92.63,11.69Z" transform="translate(-63.78)"/><path class="cls-6" d="M432.83,277.36a6.91,6.91,0,0,0,8.28-6.63l52.26-49.18-11.76-9.38-47.76,51.42a7,7,0,0,0-1,13.77Z" transform="translate(-63.78)"/><path class="cls-7" d="M486,229.5l-10.17-11.92a3.1,3.1,0,0,1,.35-4.37,3.18,3.18,0,0,1,.37-.27l13.23-8.28a8.61,8.61,0,0,1,11.14,13.13l-10.22,11.73a3.1,3.1,0,0,1-4.38.3l-.32-.32Z" transform="translate(-63.78)"/><path class="cls-6" d="M458.62,472.19H445.85l-6.08-49.28h18.86v49.28Z" transform="translate(-63.78)"/><path class="cls-3" d="M461.88,484.57H420.69v-.52a16,16,0,0,1,16-16h25.16Z" transform="translate(-63.78)"/><path class="cls-6" d="M560.75,472.19H548l-6.07-49.28h18.85Z" transform="translate(-63.78)"/><path class="cls-3" d="M564,484.57h-41.2v-.52a16.06,16.06,0,0,1,16-16H564ZM526.38,255.62,539.26,208l-16.7-9.39H499.24l-9.07,9.7S475,218.89,478.68,230.58l5.92,26.6-9.05,42.26L430,362.67l-10.79,62.12,42.48,11.13,45.95-90.46,22.27,100.17,41.45-2.09L557,322.09s-4.08-37-25.41-60.11Z" transform="translate(-63.78)"/><path class="cls-6" d="M553,297.72a6.91,6.91,0,0,0-.88-10.57l-10-67.41-14.34,4.53,14.36,64.92A7,7,0,0,0,553,297.72Z" transform="translate(-63.78)"/><path class="cls-7" d="M544.57,230.32,529,232.11a3.09,3.09,0,0,1-3.43-2.72,2.36,2.36,0,0,1,0-.46l.5-15.6a8.61,8.61,0,0,1,17.12-1.93l4,15a3.1,3.1,0,0,1-2.19,3.79,3.58,3.58,0,0,1-.45.09Z" transform="translate(-63.78)"/><path class="cls-3" d="M484.82,185.12V165.07a26.86,26.86,0,0,1,53.72,0v20.05a3.6,3.6,0,0,1-3.6,3.6H488.43a3.6,3.6,0,0,1-3.61-3.6Z" transform="translate(-63.78)"/><circle class="cls-6" cx="442.38" cy="168.56" r="19.7"/><path class="cls-3" d="M478.46,166.67a21.28,21.28,0,0,1,21.25-21.25h4A21.27,21.27,0,0,1,525,166.67v.4H516.5L513.61,159l-.58,8.09h-4.38L507.19,163l-.29,4.08H478.46Z" transform="translate(-63.78)"/><path class="cls-3" d="M504.22,191a3.57,3.57,0,0,1-.28-3.78c4.25-8.08,10.2-23,2.3-32.22l-.57-.66H528.6v34.42l-20.83,3.67a3.39,3.39,0,0,1-.64.05,3.6,3.6,0,0,1-2.91-1.48Z" transform="translate(-63.78)"/><path class="cls-1" d="M411.66,484.36H250.09a34.34,34.34,0,0,1-34.3-34.3V34.3A34.34,34.34,0,0,1,250.09,0h21.84l-.84,2.07a14.08,14.08,0,0,0,13,19.4h92.11a14.08,14.08,0,0,0,13-19.4L388.44,0h23.22A34.35,34.35,0,0,1,446,34.3V450.06A34.34,34.34,0,0,1,411.66,484.36Z" transform="translate(-63.78)"/><path class="cls-8" d="M411.66,484.36H250.09a34.34,34.34,0,0,1-34.3-34.3V34.3A34.34,34.34,0,0,1,250.09,0h21.84l-.84,2.07a14.08,14.08,0,0,0,13,19.4h92.11a14.08,14.08,0,0,0,13-19.4L388.44,0h23.22A34.35,34.35,0,0,1,446,34.3V450.06A34.34,34.34,0,0,1,411.66,484.36ZM250.09,3a31.33,31.33,0,0,0-31.3,31.3V450.06a31.33,31.33,0,0,0,31.3,31.3H411.66A31.34,31.34,0,0,0,443,450.06V34.3A31.34,31.34,0,0,0,411.66,3h-18.9a17.09,17.09,0,0,1-16.52,21.47H284.13A17.1,17.1,0,0,1,267,7.37,17.47,17.47,0,0,1,267.61,3Z" transform="translate(-63.78)"/><path class="cls-1" d="M416.38,147.07a85.74,85.74,0,1,0-148.17,81.45c.77,1,1.57,1.94,2.38,2.88.07.06.11.12.17.18a84.56,84.56,0,0,0,6.39,6.59c.59.54,1.2,1.09,1.82,1.62,1.16,1,2.37,2,3.61,3a87.32,87.32,0,0,0,7.61,5.34l.09,0c1.71,1.07,3.45,2.05,5.22,3l.72.37q2.5,1.31,5.09,2.43l1.1.46.07,0a84.28,84.28,0,0,0,10.81,3.65A85.53,85.53,0,0,0,335.4,261c2.73,0,5.42-.12,8.08-.38A85.54,85.54,0,0,0,361.4,257h0a84.51,84.51,0,0,0,10.76-4.27s.05,0,.06,0c.79-.37,1.54-.77,2.31-1.15l.37-.19,1.85-1c1.54-.85,3-1.74,4.54-2.69.42-.25.82-.51,1.23-.79,1.36-.89,2.69-1.85,4-2.82.23-.16.47-.33.71-.52a85.72,85.72,0,0,0,29.12-96.47Z" transform="translate(-63.78)"/><circle class="cls-3" cx="299.92" cy="197.75" r="12.85"/><path class="cls-3" d="M367.28,185.25a12.85,12.85,0,0,1,11.31,18.95,12.85,12.85,0,1,0-21.34-14.12,12.82,12.82,0,0,1,10-4.83Z" transform="translate(-63.78)"/><circle class="cls-3" cx="275.9" cy="159.97" r="37.75"/><path class="cls-3" d="M310.06,136.55a37.74,37.74,0,0,1,52.31-4l-.93-.87A37.75,37.75,0,0,0,311.07,188l.21.19c.32.29.65.55,1,.83a37.75,37.75,0,0,1-2.2-52.42Z" transform="translate(-63.78)"/><circle class="cls-9" cx="275.58" cy="173.09" r="24.31"/><path class="cls-8" d="M382.87,236.43v8.16l-4.54,2.69-1.85,1-.37.19-2.3,1.15s-.05,0-.07,0A83.49,83.49,0,0,1,363,253.9h-.05A84.91,84.91,0,0,1,345,257.53q-4,.39-8.08.39a86,86,0,0,1-22.11-2.9A82.77,82.77,0,0,1,304,251.37l-.07,0-1.1-.46q-2.58-1.12-5.09-2.43l-.72-.37c-1.78-.94-3.52-1.93-5.22-3l-.09,0a85.21,85.21,0,0,1-7.61-5.34q-1.86-1.44-3.61-3c-.62-.53-1.22-1.07-1.82-1.62a84.56,84.56,0,0,1-6.39-6.59,31.91,31.91,0,0,1,1.17-4.72l0,0a7.35,7.35,0,0,1,.32-.77c.09-.22.18-.43.29-.64,2.76-5.16,7.75-6.44,13.93-6.71,3.5-.16,7.36,0,11.44,0,2.15,0,4.38-.1,6.62-.3,14.08-1.27,11.52-9.58,12.16-14.06s4.54-.59,4.8-.34h0a49.64,49.64,0,0,0,25.55,4.48c1.51-.18,3-.29,4.53-.34,4,0,3.11,1.1,1.74,2a17,17,0,0,1-2.08,1.17s-.63,3.85-1.28,9.61c-.61,5.51,18.79,7.42,22.59,8.62h0a13.86,13.86,0,0,1,8.74,9.94Z" transform="translate(-63.78)"/><path class="cls-3" d="M318.57,142.7V167h5.63l7.17-7.67-1,7.67H355.3l-1.54-7.67,3.07,7.67h4V142.7Z" transform="translate(-63.78)"/><ellipse class="cls-9" cx="250.95" cy="167.97" rx="1.92" ry="3.52"/><ellipse class="cls-9" cx="300.21" cy="167.97" rx="1.92" ry="3.52"/><path class="cls-8" d="M416.38,147.07a85.74,85.74,0,1,0-148.17,81.45c.77,1,1.57,1.94,2.38,2.88.07.06.11.12.17.18a84.56,84.56,0,0,0,6.39,6.59c.59.54,1.2,1.09,1.82,1.62,1.16,1,2.37,2,3.61,3a87.32,87.32,0,0,0,7.61,5.34l.09,0c1.71,1.07,3.45,2.05,5.22,3l.72.37q2.5,1.31,5.09,2.43l1.1.46.07,0a84.28,84.28,0,0,0,10.81,3.65A85.53,85.53,0,0,0,335.4,261c2.73,0,5.42-.12,8.08-.38A85.54,85.54,0,0,0,361.4,257h0a84.51,84.51,0,0,0,10.76-4.27s.05,0,.06,0c.79-.37,1.54-.77,2.31-1.15l.37-.19,1.85-1c1.54-.85,3-1.74,4.54-2.69.42-.25.82-.51,1.23-.79,1.36-.89,2.69-1.85,4-2.82.23-.16.47-.33.71-.52a85.72,85.72,0,0,0,29.12-96.47Zm-32,92.73c-.5.4-1,.79-1.55,1.14s-1,.75-1.54,1.09-.89.63-1.35.93l-1.16.75c-1.27.8-2.57,1.57-3.88,2.31l-.41.23-1.76.94c-.07.05-.17.08-.24.12l-.09.05c-.75.38-1.49.75-2.25,1.11a76.48,76.48,0,0,1-9,3.63l-1.2.4a81.17,81.17,0,0,1-17,3.45q-3.8.35-7.65.35a80.26,80.26,0,0,1-20.92-2.74,74.77,74.77,0,0,1-10.27-3.48l-1-.43c-.19-.07-.37-.16-.54-.24-1.45-.63-2.88-1.33-4.28-2l-.68-.35c-1.71-.9-3.38-1.85-5-2.87-.6-.37-1.2-.75-1.78-1.15-1.85-1.22-3.65-2.53-5.4-3.9-1.19-.89-2.33-1.84-3.44-2.83-.58-.49-1.15-1-1.7-1.54a76.32,76.32,0,0,1-6.19-6.4c-.65-.74-1.28-1.48-1.88-2.25a5.58,5.58,0,0,1-.38-.47,81,81,0,1,1,112.54,14.2Z" transform="translate(-63.78)"/><path id="C" class="cls-7" d="M394.58,328.09H276.18a14.21,14.21,0,0,1,0-28.42h118.4a14.21,14.21,0,1,1,0,28.42Z" transform="translate(-63.78)"/><path id="C-2" data-name="C" class="cls-7" d="M394.58,371.89H276.18a14.21,14.21,0,0,1,0-28.41h118.4a14.21,14.21,0,1,1,0,28.41Z" transform="translate(-63.78)"/></svg>