<svg id="Layer_1" data-name="Layer 1" xmlns="http://www.w3.org/2000/svg" viewBox="0 0 355.5 484.6"><defs><style>.cls-1{fill:#ffb7b7;}.cls-2{fill:#ff4040;}.cls-3{fill:#2f2e41;}.cls-4{fill:#fff;}.cls-5{fill:#3f3d56;}.cls-6{fill:#a0616a;}</style></defs><path class="cls-1" d="M256.85,277.4a6.93,6.93,0,0,0,5.7-1.4,7.12,7.12,0,0,0,2.6-5.2l52.3-49.2-11.8-9.4-47.8,51.4a6.91,6.91,0,0,0-6.6,6.4A7.15,7.15,0,0,0,256.85,277.4Z" transform="translate(-39.85 0)"/><path class="cls-2" d="M310.05,229.5l-10.2-11.9a3.14,3.14,0,0,1,.3-4.4,1.31,1.31,0,0,1,.4-.3l13.2-8.3a8.56,8.56,0,0,1,12.08,1l0,0a8.66,8.66,0,0,1-1,12.1l-10.2,11.7a3.14,3.14,0,0,1-4.4.3l-.2-.2Z" transform="translate(-39.85 0)"/><path class="cls-1" d="M282.65,472.2h-12.8l-6.1-49.3h18.9v49.3Z" transform="translate(-39.85 0)"/><path class="cls-3" d="M286,484.6h-41.2V484a16,16,0,0,1,16-16H286Z" transform="translate(-39.85 0)"/><path class="cls-1" d="M384.85,472.2h-12.8L366,422.9h18.9Z" transform="translate(-39.85 0)"/><path class="cls-3" d="M388.05,484.6h-41.2V484a16,16,0,0,1,16-16h25.2Zm-37.6-229,12.9-47.6-16.7-9.4h-23.3l-9.1,9.7s-15.2,10.5-11.5,22.2l5.9,26.6-9,42.3-45.6,63.3-10.8,62.1,42.5,11.1,45.9-90.5L354,445.6l41.4-2.1-14.3-121.4s-4.1-37-25.4-60.1Z" transform="translate(-39.85 0)"/><path class="cls-1" d="M377.05,297.7a6.66,6.66,0,0,0,2-5.5,7.06,7.06,0,0,0-2.9-5.1l-10-67.4-14.3,4.5,14.4,64.9a7.09,7.09,0,0,0,1.6,9.1A6.89,6.89,0,0,0,377.05,297.7Z" transform="translate(-39.85 0)"/><path class="cls-2" d="M368.65,230.3l-15.6,1.8a3,3,0,0,1-3.38-2.56.68.68,0,0,1,0-.14v-.5l.5-15.6a8.6,8.6,0,1,1,17.1-1.9l4,15a3.06,3.06,0,0,1-2.13,3.78l-.07,0a.63.63,0,0,1-.4.1Z" transform="translate(-39.85 0)"/><path class="cls-3" d="M308.85,185.1v-20a26.9,26.9,0,0,1,53.8,0v20a3.59,3.59,0,0,1-3.58,3.6H312.55a3.62,3.62,0,0,1-3.7-3.52Z" transform="translate(-39.85 0)"/><circle class="cls-1" cx="290.4" cy="168.6" r="19.7"/><path class="cls-3" d="M302.55,166.7a21.23,21.23,0,0,1,21.26-21.2h4a21.21,21.21,0,0,1,21.2,21.2v.4h-8.5l-2.9-8.1-.6,8.1h-4.4l-1.5-4.1-.3,4.1h-28.4Z" transform="translate(-39.85 0)"/><path class="cls-3" d="M328.25,191a3.71,3.71,0,0,1-.3-3.8c4.2-8.1,10.2-23,2.3-32.2l-.6-.7h22.9v34.4l-20.8,3.7c-.2,0-.4.1-.6.1a3.81,3.81,0,0,1-2.9-1.5Z" transform="translate(-39.85 0)"/><path class="cls-4" d="M235.75,484.4H74.15a34.36,34.36,0,0,1-34.3-34.3V34.3A34.36,34.36,0,0,1,74.15,0H96l-.8,2.1a13.86,13.86,0,0,0,1.4,13.2,14.13,14.13,0,0,0,11.7,6.2h92.1a14,14,0,0,0,11.7-6.2,14.39,14.39,0,0,0,1.4-13.2l-1-2.1h23.2A34.36,34.36,0,0,1,270,34.3V450.1A34.33,34.33,0,0,1,235.75,484.4Z" transform="translate(-39.85 0)"/><path class="cls-5" d="M235.75,484.4H74.15a34.36,34.36,0,0,1-34.3-34.3V34.3A34.36,34.36,0,0,1,74.15,0H96l-.8,2.1a13.86,13.86,0,0,0,1.4,13.2,14.13,14.13,0,0,0,11.7,6.2h92.1a14,14,0,0,0,11.7-6.2,14.39,14.39,0,0,0,1.4-13.2l-1-2.1h23.2A34.36,34.36,0,0,1,270,34.3V450.1A34.33,34.33,0,0,1,235.75,484.4ZM74.15,3a31.27,31.27,0,0,0-31.3,31.26V450.1a31.27,31.27,0,0,0,31.26,31.3H235.75a31.27,31.27,0,0,0,31.3-31.26V34.3A31.27,31.27,0,0,0,235.79,3H216.85a17.1,17.1,0,0,1-12.1,20.9,16.33,16.33,0,0,1-4.4.6h-92.1A17.16,17.16,0,0,1,91.15,7.4a16.33,16.33,0,0,1,.6-4.4Z" transform="translate(-39.85 0)"/><path class="cls-4" d="M240.45,147.1a85.74,85.74,0,1,0-148.2,81.4c.8,1,1.6,1.9,2.4,2.9l.2.2a78.18,78.18,0,0,0,6.4,6.6c.6.5,1.2,1.1,1.8,1.6l3.6,3a81.3,81.3,0,0,0,7.6,5.3h.1c1.7,1.1,3.4,2,5.2,3l.7.4q2.55,1.35,5.1,2.4l1.1.5h.1a68.42,68.42,0,0,0,10.8,3.6,86.33,86.33,0,0,0,22.1,2.9,73,73,0,0,0,8.1-.4,90.31,90.31,0,0,0,17.9-3.6h0a83.74,83.74,0,0,0,10.8-4.3h.1c.8-.4,1.5-.8,2.3-1.2.1-.1.2-.1.4-.2l1.8-1q2.25-1.2,4.5-2.7a8.64,8.64,0,0,0,1.2-.8c1.4-.9,2.7-1.8,4-2.8.2-.2.5-.3.7-.5a85.47,85.47,0,0,0,29.2-96.3Z" transform="translate(-39.85 0)"/><circle class="cls-3" cx="147.9" cy="197.7" r="12.9"/><path class="cls-3" d="M191.35,185.3a12.92,12.92,0,0,1,12.9,12.8,13.1,13.1,0,0,1-1.5,6.1,12.78,12.78,0,0,0,1.6-13.4,13.09,13.09,0,0,0-11.3-7.5,12.83,12.83,0,0,0-11.7,6.7,12.46,12.46,0,0,1,10-4.7Z" transform="translate(-39.85 0)"/><circle class="cls-3" cx="123.9" cy="160" r="37.7"/><path class="cls-3" d="M134.15,136.6a37.74,37.74,0,0,1,52.3-4l-.9-.9a37.74,37.74,0,0,0-50.4,56.2l.2.2a4,4,0,0,0,1,.8A37.46,37.46,0,0,1,134.15,136.6Z" transform="translate(-39.85 0)"/><circle class="cls-6" cx="123.6" cy="173.1" r="24.3"/><path class="cls-5" d="M207,236.4v8.2l-4.5,2.7-1.8,1c-.1.1-.2.1-.4.2l-2.3,1.2h-.1a83.74,83.74,0,0,1-10.8,4.3h0a83.45,83.45,0,0,1-17.9,3.6,73,73,0,0,1-8.1.4,86.33,86.33,0,0,1-22.1-2.9,97.66,97.66,0,0,1-10.8-3.6h-.1L127,251l-5.1-2.4-.7-.4a52.69,52.69,0,0,1-5.2-3h-.1a81.3,81.3,0,0,1-7.6-5.3l-3.6-3c-.6-.5-1.2-1.1-1.8-1.6-2.2-2.1-4.4-4.3-6.4-6.6a34.82,34.82,0,0,1,1.2-4.7h0c.1-.3.2-.5.3-.8l.3-.6c2.8-5.2,7.7-6.4,13.9-6.7,3.5-.2,7.4,0,11.4,0q3.3,0,6.6-.3c14.1-1.3,11.5-9.6,12.2-14.1.6-4.3,4.5-.6,4.8-.3h0a49.88,49.88,0,0,0,25.5,4.5,33.79,33.79,0,0,1,4.5-.3c4,0,3.1,1.1,1.7,2l-2.1,1.2s-.6,3.8-1.3,9.6c-.6,5.5,18.8,7.4,22.6,8.6h0a13.09,13.09,0,0,1,8.9,9.6Z" transform="translate(-39.85 0)"/><path class="cls-3" d="M142.65,142.7V167h5.6l7.2-7.7-1,7.7h24.9l-1.5-7.7L181,167h4V142.7Z" transform="translate(-39.85 0)"/><ellipse class="cls-6" cx="98.9" cy="168" rx="1.9" ry="3.5"/><ellipse class="cls-6" cx="148.2" cy="168" rx="1.9" ry="3.5"/><path class="cls-5" d="M240.45,147.1a85.74,85.74,0,1,0-148.2,81.4c.8,1,1.6,1.9,2.4,2.9l.2.2a78.18,78.18,0,0,0,6.4,6.6c.6.5,1.2,1.1,1.8,1.6l3.6,3a81.3,81.3,0,0,0,7.6,5.3h.1c1.7,1.1,3.4,2,5.2,3l.7.4q2.55,1.35,5.1,2.4l1.1.5h.1a68.42,68.42,0,0,0,10.8,3.6,86.33,86.33,0,0,0,22.1,2.9,73,73,0,0,0,8.1-.4,90.31,90.31,0,0,0,17.9-3.6h0a83.74,83.74,0,0,0,10.8-4.3h.1c.8-.4,1.5-.8,2.3-1.2.1-.1.2-.1.4-.2l1.8-1q2.25-1.2,4.5-2.7a8.64,8.64,0,0,0,1.2-.8c1.4-.9,2.7-1.8,4-2.8.2-.2.5-.3.7-.5a85.47,85.47,0,0,0,29.2-96.3Zm-32,92.7a9.27,9.27,0,0,1-1.6,1.1,14.41,14.41,0,0,1-1.5,1.1c-.4.3-.9.6-1.4.9a12.49,12.49,0,0,0-1.2.8c-1.3.8-2.6,1.6-3.9,2.3l-.4.2-1.8.9a.35.35,0,0,0-.2.1h-.1a22.56,22.56,0,0,1-2.2,1.1,69.21,69.21,0,0,1-9,3.6l-1.2.4a75.82,75.82,0,0,1-17,3.4c-2.5.2-5.1.4-7.6.4a81.48,81.48,0,0,1-20.9-2.7,79.54,79.54,0,0,1-10.3-3.5c-.34-.12-.67-.25-1-.4a1.69,1.69,0,0,0-.5-.2c-1.4-.6-2.9-1.3-4.3-2l-.7-.4a50.77,50.77,0,0,1-5-2.9l-1.8-1.2q-2.7-1.8-5.4-3.9c-1.2-.9-2.3-1.8-3.4-2.8-.6-.5-1.2-1-1.7-1.5-2.2-2-4.2-4.2-6.2-6.4l-1.9-2.2c-.1-.2-.3-.3-.4-.5a81,81,0,1,1,113.77,13.4l-1.17.9Z" transform="translate(-39.85 0)"/><path id="C" class="cls-2" d="M218.65,328.1H100.25a14.2,14.2,0,0,1,0-28.4H218.65a14.25,14.25,0,0,1,14.2,14.2A14.48,14.48,0,0,1,231,321a14.24,14.24,0,0,1-12.3,7.1Z" transform="translate(-39.85 0)"/><path id="C-2" class="cls-2" d="M218.65,371.9H100.25a14.2,14.2,0,0,1,0-28.4h118.4a14.25,14.25,0,0,1,14.2,14.2,14.48,14.48,0,0,1-1.9,7.1,14.24,14.24,0,0,1-12.3,7.1Z" transform="translate(-39.85 0)"/></svg>