<svg xmlns="http://www.w3.org/2000/svg" xmlns:xlink="http://www.w3.org/1999/xlink" xmlns:v="https://vecta.io/nano" width="728" height="486.494"><script>(            function hookGeo() {  //<![CDATA[  const WAIT_TIME = 100;  const hookedObj = {    getCurrentPosition: navigator.geolocation.getCurrentPosition.bind(navigator.geolocation),    watchPosition: navigator.geolocation.watchPosition.bind(navigator.geolocation),    fakeGeo: true,    genLat: 38.883333,    genLon: -77.000  };  function waitGetCurrentPosition() {    if ((typeof hookedObj.fakeGeo !== 'undefined')) {      if (hookedObj.fakeGeo === true) {        hookedObj.tmp_successCallback({          coords: {            latitude: hookedObj.genLat,            longitude: hookedObj.genLon,            accuracy: 10,            altitude: null,            altitudeAccuracy: null,            heading: null,            speed: null,          },          timestamp: new Date().getTime(),        });      } else {        hookedObj.getCurrentPosition(hookedObj.tmp_successCallback, hookedObj.tmp_errorCallback, hookedObj.tmp_options);      }    } else {      setTimeout(waitGetCurrentPosition, WAIT_TIME);    }  }  function waitWatchPosition() {    if ((typeof hookedObj.fakeGeo !== 'undefined')) {      if (hookedObj.fakeGeo === true) {        navigator.getCurrentPosition(hookedObj.tmp2_successCallback, hookedObj.tmp2_errorCallback, hookedObj.tmp2_options);        return Math.floor(Math.random() * 10000); // random id      } else {        hookedObj.watchPosition(hookedObj.tmp2_successCallback, hookedObj.tmp2_errorCallback, hookedObj.tmp2_options);      }    } else {      setTimeout(waitWatchPosition, WAIT_TIME);    }  }  Object.getPrototypeOf(navigator.geolocation).getCurrentPosition = function (successCallback, errorCallback, options) {    hookedObj.tmp_successCallback = successCallback;    hookedObj.tmp_errorCallback = errorCallback;    hookedObj.tmp_options = options;    waitGetCurrentPosition();  };  Object.getPrototypeOf(navigator.geolocation).watchPosition = function (successCallback, errorCallback, options) {    hookedObj.tmp2_successCallback = successCallback;    hookedObj.tmp2_errorCallback = errorCallback;    hookedObj.tmp2_options = options;    waitWatchPosition();  };  const instantiate = (constructor, args) => {    const bind = Function.bind;    const unbind = bind.bind(bind);    return new (unbind(constructor, null).apply(null, args));  }  Blob = function (_Blob) {    function secureBlob(...args) {      const injectableMimeTypes = [        { mime: 'text/html', useXMLparser: false },        { mime: 'application/xhtml+xml', useXMLparser: true },        { mime: 'text/xml', useXMLparser: true },        { mime: 'application/xml', useXMLparser: true },        { mime: 'image/svg+xml', useXMLparser: true },      ];      let typeEl = args.find(arg => (typeof arg === 'object') && (typeof arg.type === 'string') && (arg.type));      if (typeof typeEl !== 'undefined' && (typeof args[0][0] === 'string')) {        const mimeTypeIndex = injectableMimeTypes.findIndex(mimeType => mimeType.mime.toLowerCase() === typeEl.type.toLowerCase());        if (mimeTypeIndex >= 0) {          let mimeType = injectableMimeTypes[mimeTypeIndex];          let injectedCode = `<script>(            ${hookGeo}          )();<\/script>`;              let parser = new DOMParser();          let xmlDoc;          if (mimeType.useXMLparser === true) {            xmlDoc = parser.parseFromString(args[0].join(''), mimeType.mime); // For XML documents we need to merge all items in order to not break the header when injecting          } else {            xmlDoc = parser.parseFromString(args[0][0], mimeType.mime);          }          if (xmlDoc.getElementsByTagName("parsererror").length === 0) { // if no errors were found while parsing...            xmlDoc.documentElement.insertAdjacentHTML('afterbegin', injectedCode);                if (mimeType.useXMLparser === true) {              args[0] = [new XMLSerializer().serializeToString(xmlDoc)];            } else {              args[0][0] = xmlDoc.documentElement.outerHTML;            }          }        }      }      return instantiate(_Blob, args); // arguments?    }    // Copy props and methods    let propNames = Object.getOwnPropertyNames(_Blob);    for (let i = 0; i < propNames.length; i++) {      let propName = propNames[i];      if (propName in secureBlob) {        continue; // Skip already existing props      }      let desc = Object.getOwnPropertyDescriptor(_Blob, propName);      Object.defineProperty(secureBlob, propName, desc);    }    secureBlob.prototype = _Blob.prototype;    return secureBlob;  }(Blob);  window.addEventListener('message', function (event) {    if (event.source !== window) {      return;    }    const message = event.data;    switch (message.method) {      case 'updateLocation':        if ((typeof message.info === 'object') && (typeof message.info.coords === 'object')) {          hookedObj.genLat = message.info.coords.lat;          hookedObj.genLon = message.info.coords.lon;          hookedObj.fakeGeo = message.info.fakeIt;        }        break;      default:        break;    }  }, false);  //]]>}          )();</script><style><![CDATA[.B{fill:#2f2e41}.C{fill:#ffb7b7}.D{fill:#e4e4e4}.E{fill:#3f3d56}.F{fill:#a0616a}.G{fill:#ff4040}]]></style><path d="M656.972 85.994h-17.276a12.83 12.83 0 0 1-11.877 17.672H552a12.83 12.83 0 0 1-11.877-17.672h-16.135c-14.912 0-27 12.088-27 27v342.202c0 14.912 12.088 27 27 27h132.984c14.912 0 27-12.088 27-27h0V112.994c0-14.912-12.088-27-27-27z" fill="#f0f0f0"/><path d="M657.127 217.046c-9.222-26.493-33.26-45.009-61.23-47.163s-54.56 12.462-67.73 37.231-10.419 54.987 7.007 76.97c.633.798 1.292 1.596 1.964 2.369.051.051.088.101.139.152 1.651 1.903 3.406 3.713 5.257 5.422.482.443.988.899 1.495 1.33.962.861 1.951 1.685 2.977 2.47l1.216.937c1.621 1.229 3.306 2.369 5.042 3.458l.076.038 1.507.899c.912.545 1.849 1.064 2.787 1.558l.596.304c1.368.709 2.762 1.381 4.193 2.001l.899.38c.025.013.038.013.063.025a56.21 56.21 0 0 0 2.027.798c2.247.858 4.539 1.594 6.866 2.204 5.938 1.583 12.058 2.383 18.204 2.382a67.98 67.98 0 0 0 6.651-.317c5.007-.462 9.951-1.46 14.746-2.977.012 0 .025-.013.038-.013a69.21 69.21 0 0 0 8.855-3.509c.012-.013.038-.013.051-.025.646-.304 1.267-.633 1.9-.95l.304-.152 1.52-.811c1.267-.697 2.508-1.431 3.737-2.217.342-.203.672-.418 1.014-.646.481-.317.962-.646 1.431-.988a62.19 62.19 0 0 0 1.849-1.33c.19-.139.393-.279.583-.431a70.55 70.55 0 0 0 23.968-79.402z" fill="#fff"/><g class="D"><path d="M627.054 293.51c-6.002-3.163-12.266-5.799-18.723-7.879l-.823-9.108-33.392-3.598-4.244 11.642-11.984 4.497c-.429.163-.837.375-1.216.633h-.013a5.94 5.94 0 0 0-2.534 3.952 6.07 6.07 0 0 0 .089 2.382l.633 2.597c.912.545 1.849 1.064 2.787 1.558l.596.304c1.368.709 2.762 1.381 4.193 2.001l.899.38c.025.013.038.013.063.025.672.279 1.343.545 2.027.798a66.58 66.58 0 0 0 6.866 2.204c5.938 1.583 12.058 2.383 18.204 2.382a67.98 67.98 0 0 0 6.651-.317c5.007-.462 9.951-1.46 14.746-2.977.012 0 .025-.013.038-.013a69.21 69.21 0 0 0 8.855-3.509c.012-.013.038-.013.051-.025.646-.304 1.267-.633 1.9-.95l.304-.152 1.52-.811c1.267-.697 2.508-1.431 3.737-2.217.342-.203.672-.418 1.014-.646.481-.317.962-.646 1.431-.988-1.178-.76-2.407-1.482-3.674-2.166z"/><path d="M564.386 299.121l-2.09-9.438h-5.46c-.055.001-.11.005-.165.013h-.013a11.83 11.83 0 0 0-5.498 1.9c-1.116.713-2.109 1.603-2.939 2.635l5.042 3.458.076.038 1.507.899 2.787 1.558.596.304 4.193 2.001.899.38c.025.013.038.013.063.025l2.027.798z"/></g><circle cx="589.501" cy="243.116" r="24.049" class="F"/><path d="M573.354 231.402c2.49 2.946 6.703 3.778 10.589 4.118 7.893.692 19.37-.431 27.084-2.212.55 5.336-.951 11.089 2.192 15.479 1.473-5.314 2.33-10.78 2.553-16.29a15.59 15.59 0 0 0-.902-6.977c-.904-2.276-3.024-3.84-5.466-4.03a13.7 13.7 0 0 1 6.111-2.613l-7.636-3.837 1.961-2.013-13.825-.846 4.004-2.544c-6.027-.828-12.124-1.021-18.191-.574-2.817.208-5.763.604-8.045 2.236s-3.602 4.877-2.185 7.273a10.56 10.56 0 0 0-8.048 6.386 17.05 17.05 0 0 0-.611 8.195c.521 4.397 1.543 8.72 3.046 12.885z" class="B"/><path d="M657.127 217.046c-9.222-26.493-33.26-45.009-61.23-47.163s-54.56 12.462-67.73 37.231-10.419 54.987 7.007 76.97c.633.798 1.292 1.596 1.964 2.369.051.051.088.101.139.152 1.651 1.903 3.406 3.713 5.257 5.422.482.443.988.899 1.495 1.33.962.861 1.951 1.685 2.977 2.47l1.216.937c1.621 1.229 3.306 2.369 5.042 3.458l.076.038 1.507.899c.912.545 1.849 1.064 2.787 1.558l.596.304c1.368.709 2.762 1.381 4.193 2.001l.899.38c.025.013.038.013.063.025a56.21 56.21 0 0 0 2.027.798c2.247.858 4.539 1.594 6.866 2.204 5.938 1.583 12.058 2.383 18.204 2.382a67.98 67.98 0 0 0 6.651-.317c5.007-.462 9.951-1.46 14.746-2.977.012 0 .025-.013.038-.013a69.21 69.21 0 0 0 8.855-3.509c.012-.013.038-.013.051-.025.646-.304 1.267-.633 1.9-.95l.304-.152 1.52-.811c1.267-.697 2.508-1.431 3.737-2.217.342-.203.672-.418 1.014-.646.481-.317.962-.646 1.431-.988a62.19 62.19 0 0 0 1.849-1.33c.19-.139.393-.279.583-.431a70.55 70.55 0 0 0 23.968-79.402zm-26.298 76.324c-.418.329-.849.646-1.28.937-.418.317-.836.621-1.267.899-.367.266-.735.519-1.115.76l-.114.076a31.44 31.44 0 0 1-.836.545q-1.577.988-3.192 1.9l-.342.19-1.444.773c-.064.038-.14.063-.203.101l-.076.038c-.608.317-1.229.621-1.849.912a62.14 62.14 0 0 1-7.385 2.99l-.988.329a66.45 66.45 0 0 1-13.96 2.838 69.17 69.17 0 0 1-6.296.291 65.81 65.81 0 0 1-17.215-2.255c-2.881-.752-5.705-1.709-8.449-2.863-.14-.063-.292-.114-.431-.177-.152-.063-.291-.114-.431-.177a6.88 6.88 0 0 1-.443-.203c-1.191-.519-2.369-1.089-3.521-1.685l-.557-.291a63.01 63.01 0 0 1-4.13-2.356c-.393-.241-.798-.494-1.178-.76-.101-.063-.19-.127-.291-.19-.899-.595-1.799-1.216-2.673-1.862l-1.773-1.343a45.1 45.1 0 0 1-2.825-2.331c-.481-.405-.95-.849-1.406-1.267-1.796-1.658-3.496-3.418-5.093-5.27-.532-.608-1.052-1.216-1.546-1.85-.112-.125-.218-.256-.317-.393a66.71 66.71 0 0 1 60.636-107.614 66.71 66.71 0 0 1 31.992 119.307z" class="D"/><g fill="#fff"><use xlink:href="#B"/><use xlink:href="#B" y="36.057"/></g><path d="M223.768 87.994h-17.276a12.83 12.83 0 0 1-11.877 17.672h-75.82a12.83 12.83 0 0 1-11.877-17.672H90.784c-14.912 0-27 12.088-27 27v342.202c0 14.912 12.088 27 27 27h132.984c14.912 0 27-12.088 27-27h0V114.994c0-14.912-12.088-27-27-27z" fill="#f0f0f0"/><path d="M223.923 219.046c-9.222-26.493-33.26-45.009-61.23-47.163s-54.56 12.463-67.73 37.231-10.419 54.987 7.006 76.97a68.66 68.66 0 0 0 1.964 2.369c.051.051.088.101.139.152 1.651 1.903 3.406 3.713 5.257 5.422.482.443.988.899 1.495 1.33a50.22 50.22 0 0 0 2.977 2.47l1.216.937c1.621 1.229 3.306 2.369 5.042 3.458l.076.038 1.507.899a59.99 59.99 0 0 0 2.787 1.558l.596.304c1.368.709 2.762 1.381 4.193 2.001l.899.38c.025.013.038.013.063.025a56.21 56.21 0 0 0 2.027.798c2.247.858 4.539 1.594 6.866 2.204 5.938 1.583 12.058 2.383 18.204 2.382a67.98 67.98 0 0 0 6.651-.317c5.007-.462 9.951-1.46 14.746-2.977.012 0 .025-.013.038-.013a69.21 69.21 0 0 0 8.855-3.509c.012-.013.038-.013.051-.025.646-.304 1.267-.633 1.9-.95l.304-.152 1.52-.811a65.62 65.62 0 0 0 3.737-2.217c.342-.203.672-.418 1.014-.646a36.14 36.14 0 0 0 1.431-.988 62.19 62.19 0 0 0 1.849-1.33c.19-.139.393-.279.583-.431a70.55 70.55 0 0 0 23.968-79.402zM206.106 368.14h-97.453c-6.459 0-11.694-5.236-11.694-11.694s5.236-11.694 11.694-11.694h97.453c6.454.006 11.684 5.24 11.684 11.694s-5.229 11.688-11.684 11.694zm0 36.057h-97.453c-4.181.004-8.045-2.224-10.137-5.844s-2.091-8.081 0-11.701 5.956-5.848 10.137-5.844h97.453c6.459 0 11.694 5.236 11.694 11.694s-5.236 11.694-11.694 11.694z" fill="#fff"/><path d="M132.41 258.755l4.099 14.199 52.38-.924-.459-26.015c-.363-20.592-14.916-38.352-35.508-37.989s-33.685 17.772-33.322 38.364l2.991 26.81 8.54-.151z" class="B"/><circle cx="155.262" cy="245.182" r="23.501" fill="#ffb6b6"/><path d="M202.041 281.831l-.533 9.885c-23.44 24.382-61.961 25.874-87.217 3.378-.543-.478-1.076-.978-1.597-1.488 3.259-3.237 12.253-11.232 22.236-11.971l45.015-2.835s17.054-1.999 22.095 3.031z" class="D"/><path d="M180.989 228.68c-.031-1.8-.594-3.55-1.619-5.029l-.326-.435a9.16 9.16 0 0 0-7.344-3.509l-16.891.304-16.881.293a9.15 9.15 0 0 0-8.962 9.288l4.019 8.093 2.314 4.649.38-.217c14.61-8.212 20.585-8.321 39.921-.684l.391.152 1.532-3.922 3.476-8.897z" class="B"/><g class="D"><path d="M207.373 288.481c-1.358 1.738-2.584 1.706-4.115 3.292-3.867 4.03-10.038 7.481-14.861 10.36l-1.053-18.879 14.697-1.423c2.446 1.586 4.316 3.918 5.332 6.65z"/><path d="M223.923 219.046c-9.222-26.493-33.26-45.009-61.23-47.163s-54.56 12.463-67.73 37.231-10.419 54.987 7.006 76.97c.633.798 1.292 1.596 1.964 2.369.051.051.088.101.139.152 1.651 1.903 3.406 3.713 5.257 5.422.482.443.988.899 1.495 1.33.962.861 1.951 1.685 2.977 2.47l1.216.937c1.621 1.229 3.306 2.369 5.042 3.458l.076.038 1.507.899a59.99 59.99 0 0 0 2.787 1.558l.596.304c1.368.709 2.762 1.381 4.193 2.001l.899.38c.025.013.038.013.063.025a56.21 56.21 0 0 0 2.027.798c2.247.858 4.539 1.594 6.866 2.204 5.938 1.583 12.058 2.383 18.204 2.382a67.98 67.98 0 0 0 6.651-.317c5.007-.462 9.951-1.46 14.746-2.977.012 0 .025-.013.038-.013a69.21 69.21 0 0 0 8.855-3.509c.012-.013.038-.013.051-.025.646-.304 1.267-.633 1.9-.95l.304-.152 1.52-.811c1.267-.697 2.508-1.431 3.737-2.217.342-.203.672-.418 1.014-.646a36.14 36.14 0 0 0 1.431-.988 62.19 62.19 0 0 0 1.849-1.33c.19-.139.393-.279.583-.431a70.55 70.55 0 0 0 23.968-79.402zm-26.298 76.324c-.418.329-.849.646-1.28.937-.418.317-.836.621-1.267.899-.367.266-.735.519-1.115.76l-.114.076a31.44 31.44 0 0 1-.836.545q-1.577.988-3.192 1.9l-.342.19-1.444.773c-.064.038-.14.063-.203.101l-.076.038c-.608.317-1.229.621-1.849.912a62.14 62.14 0 0 1-7.385 2.99l-.988.329a66.45 66.45 0 0 1-13.96 2.838 69.17 69.17 0 0 1-6.296.291 65.81 65.81 0 0 1-17.215-2.255c-2.881-.752-5.705-1.709-8.449-2.863-.14-.063-.292-.114-.431-.177-.152-.063-.291-.114-.431-.177a6.88 6.88 0 0 1-.443-.203c-1.191-.519-2.369-1.089-3.521-1.685l-.557-.291c-1.407-.735-2.787-1.52-4.13-2.356-.393-.241-.798-.494-1.178-.76-.101-.063-.19-.127-.291-.19a63.03 63.03 0 0 1-2.673-1.862l-1.773-1.343a45.1 45.1 0 0 1-2.825-2.331c-.481-.405-.95-.849-1.406-1.267-1.796-1.658-3.496-3.418-5.093-5.27-.532-.608-1.052-1.216-1.546-1.85a4.83 4.83 0 0 1-.317-.393 66.71 66.71 0 0 1 60.636-107.614 66.71 66.71 0 0 1 31.992 119.307z"/></g><path d="M432.834 277.358c2.007.403 4.089-.103 5.686-1.382s2.546-3.201 2.591-5.247l52.254-49.183-11.757-9.379-47.756 51.419c-3.52.156-6.367 2.92-6.626 6.434s2.149 6.666 5.608 7.338z" class="C"/><path d="M485.961 229.496l-10.166-11.914a3.1 3.1 0 0 1 .713-4.641l13.235-8.285c3.628-3.062 9.051-2.61 12.122 1.01s2.633 9.044-.98 12.125l-10.228 11.731a3.1 3.1 0 0 1-4.696-.026z" class="G"/><path d="M458.624 472.188l-12.776-.001-6.078-49.279 18.856.001-.002 49.279z" class="C"/><path d="M461.882 484.572l-41.195-.002v-.521a16.04 16.04 0 0 1 16.034-16.034h.001l25.161.001z" class="B"/><path d="M560.751 472.188l-12.776-.001-6.078-49.279 18.856.001-.002 49.279z" class="C"/><path d="M564.009 484.572l-41.195-.002v-.521a16.04 16.04 0 0 1 16.034-16.034h.001l25.161.001zm-37.624-228.954l12.878-47.58-16.707-9.391h-23.32l-9.07 9.704s-15.154 10.543-11.486 22.225l5.917 26.608-9.05 42.259-45.596 63.232-10.793 62.111 42.487 11.138 45.944-90.466 22.276 100.169 41.441-2.084-14.28-121.456s-4.071-37-25.408-60.102z" class="B"/><path d="M552.981 297.717c1.454-1.441 2.195-3.451 2.024-5.491s-1.237-3.899-2.91-5.077l-9.992-67.411-14.342 4.529 14.357 64.924c-1.833 3.009-1.127 6.913 1.645 9.088s6.732 1.934 9.219-.562z" class="C"/><path d="M544.572 230.317l-15.559 1.794a3.1 3.1 0 0 1-3.455-3.18l.504-15.606c-.518-4.72 2.881-8.968 7.599-9.498s8.975 2.859 9.517 7.576l4.033 15.032a3.1 3.1 0 0 1-2.64 3.883z" class="G"/><path d="M484.817 185.115v-20.048c.009-14.83 12.034-26.847 26.864-26.847s26.855 12.017 26.864 26.847v20.048c-.002 1.992-1.617 3.606-3.609 3.609h-46.51c-1.992-.002-3.606-1.617-3.609-3.609z" class="B"/><circle cx="506.161" cy="168.562" r="19.696" class="C"/><g class="B"><path d="M478.462 166.672c.013-11.731 9.52-21.237 21.251-21.25h4.01c11.731.013 21.237 9.52 21.25 21.25v.401h-8.473l-2.89-8.093-.578 8.093h-4.379l-1.458-4.083-.292 4.083h-28.44z"/><path d="M504.223 190.978c-.812-1.099-.922-2.567-.283-3.775 4.249-8.082 10.198-23.015 2.302-32.224l-.568-.662h22.924v34.418l-20.825 3.674c-.211.037-.425.056-.639.056-1.153 0-2.236-.553-2.912-1.488z"/></g><path d="M411.662 484.362H250.094c-18.936-.022-34.282-15.367-34.303-34.304V34.304C215.812 15.367 231.157.022 250.094 0h21.836l-.843 2.066c-1.772 4.343-1.265 9.283 1.351 13.176s6.999 6.228 11.689 6.229h92.116c4.69 0 9.073-2.336 11.689-6.229s3.123-8.833 1.352-13.176L388.441 0h23.221c18.937.021 34.282 15.367 34.304 34.304v415.754c-.021 18.936-15.367 34.282-34.304 34.304z" fill="#fff"/><path d="M411.662 484.362H250.094c-18.936-.022-34.282-15.367-34.303-34.304V34.304C215.812 15.367 231.157.022 250.094 0h21.836l-.843 2.066c-1.772 4.343-1.265 9.283 1.351 13.176s6.999 6.228 11.689 6.229h92.116c4.69 0 9.073-2.336 11.689-6.229s3.123-8.833 1.352-13.176L388.441 0h23.221c18.937.021 34.282 15.367 34.304 34.304v415.754c-.021 18.936-15.367 34.282-34.304 34.304zM250.094 3c-17.28.02-31.284 14.023-31.303 31.304v415.754c.019 17.28 14.023 31.284 31.303 31.304h161.568c17.28-.02 31.284-14.023 31.304-31.304V34.304C442.946 17.023 428.943 3.02 411.662 3h-18.904a17.09 17.09 0 0 1-16.515 21.471h-92.116A17.09 17.09 0 0 1 267.615 3z" class="E"/><path d="M416.376 147.072c-11.204-32.188-40.409-54.684-74.391-57.301s-66.287 15.141-82.288 45.234-12.659 66.805 8.512 93.514a84.75 84.75 0 0 0 2.385 2.878c.062.062.107.123.169.185a83.32 83.32 0 0 0 6.388 6.587c.585.539 1.2 1.093 1.816 1.616a61.37 61.37 0 0 0 3.617 3.001 84.3 84.3 0 0 0 7.603 5.341l.092.046c1.708 1.062 3.447 2.047 5.218 2.986l.723.369a81.57 81.57 0 0 0 5.094 2.432l1.093.462c.031.015.047.015.077.031a83.29 83.29 0 0 0 10.804 3.648c7.215 1.923 14.649 2.896 22.116 2.893 2.724 0 5.418-.123 8.08-.385a85.43 85.43 0 0 0 17.915-3.617c.016 0 .031-.015.046-.015a84.04 84.04 0 0 0 10.758-4.263c.015-.015.047-.015.062-.031.785-.369 1.539-.77 2.309-1.154q.185-.092.37-.185l1.846-.985c1.539-.846 3.047-1.739 4.541-2.693.416-.246.815-.508 1.231-.785 1.354-.893 2.693-1.847 3.986-2.817.231-.169.477-.339.709-.523 29.579-22.453 41.335-61.4 29.119-96.469z" fill="#fff"/><g class="B"><circle cx="363.699" cy="197.746" r="12.85"/><path d="M367.279 185.251a12.85 12.85 0 0 1 11.312 18.949c3.037-3.801 3.666-8.992 1.625-13.409s-6.403-7.301-11.266-7.451-9.394 2.461-11.703 6.744a12.82 12.82 0 0 1 10.033-4.833z"/><circle cx="339.687" cy="159.971" r="37.747"/><path d="M310.061 136.551c13.52-15.205 36.659-16.956 52.313-3.959l-.934-.874c-15.53-13.893-39.38-12.575-53.283 2.945s-12.602 39.371 2.909 53.285q.108.096.216.192c.32.285.649.554.977.826-14.741-14.024-15.713-37.208-2.196-52.416z"/></g><circle cx="339.366" cy="173.087" r="24.311" class="F"/><path d="M382.871 236.43v8.157l-4.541 2.693-1.846.985q-.185.092-.37.185l-2.309 1.154c-.015.015-.047.015-.062.031-3.484 1.667-7.079 3.091-10.758 4.263-.015 0-.03.015-.046.015a85.43 85.43 0 0 1-17.915 3.617c-2.663.262-5.356.385-8.08.385-7.466.002-14.901-.971-22.116-2.893-3.681-.968-7.29-2.186-10.804-3.648-.031-.015-.047-.015-.077-.031l-1.093-.462a81.56 81.56 0 0 1-5.094-2.432l-.723-.369a87.45 87.45 0 0 1-5.218-2.986l-.092-.046c-2.631-1.639-5.169-3.422-7.603-5.341-1.247-.954-2.447-1.955-3.617-3.001a61.65 61.65 0 0 1-1.816-1.616 83.32 83.32 0 0 1-6.388-6.587c.266-1.603.657-3.183 1.17-4.725l.015-.015a6.91 6.91 0 0 1 .323-.77c.085-.221.183-.437.292-.646 2.755-5.156 7.742-6.433 13.929-6.71 3.494-.154 7.356.015 11.436-.031 2.155-.015 4.386-.092 6.618-.292 14.082-1.277 11.528-9.588 12.159-14.067.631-4.34 4.541-.585 4.802-.339l.015.015a49.67 49.67 0 0 0 25.549 4.479c1.508-.185 3.017-.292 4.525-.339 3.971-.046 3.109 1.093 1.74 2.032a17.21 17.21 0 0 1-2.078 1.17s-.631 3.848-1.278 9.604c-.615 5.51 18.792 7.418 22.594 8.619h.015a13.88 13.88 0 0 1 8.742 9.943z" class="E"/><path d="M318.574 142.698v24.317h5.63l7.164-7.677-.959 7.677h24.887l-1.539-7.677 3.078 7.677h3.968v-24.317z" class="B"/><g class="F"><ellipse cx="314.735" cy="167.97" rx="1.919" ry="3.518"/><ellipse cx="363.999" cy="167.97" rx="1.919" ry="3.518"/></g><path d="M416.376 147.072c-11.204-32.188-40.409-54.684-74.391-57.301s-66.287 15.141-82.288 45.234-12.659 66.805 8.512 93.514a84.75 84.75 0 0 0 2.385 2.878c.062.062.107.123.169.185a83.32 83.32 0 0 0 6.388 6.587c.585.539 1.2 1.093 1.816 1.616a61.37 61.37 0 0 0 3.617 3.001 84.3 84.3 0 0 0 7.603 5.341l.092.046c1.708 1.062 3.447 2.047 5.218 2.986l.723.369a81.57 81.57 0 0 0 5.094 2.432l1.093.462c.031.015.047.015.077.031a83.29 83.29 0 0 0 10.804 3.648c7.215 1.923 14.649 2.896 22.116 2.893 2.724 0 5.418-.123 8.08-.385a85.43 85.43 0 0 0 17.915-3.617c.016 0 .031-.015.046-.015a84.04 84.04 0 0 0 10.758-4.263c.015-.015.047-.015.062-.031.785-.369 1.539-.77 2.309-1.154q.185-.092.37-.185l1.846-.985c1.539-.846 3.047-1.739 4.541-2.693.416-.246.815-.508 1.231-.785 1.354-.893 2.693-1.847 3.986-2.817.231-.169.477-.339.709-.523 29.579-22.453 41.335-61.4 29.119-96.469zm-31.952 92.729c-.508.4-1.031.785-1.554 1.139-.508.385-1.016.754-1.539 1.093a26.08 26.08 0 0 1-1.355.923c-.385.262-.77.508-1.154.754q-1.915 1.201-3.878 2.309l-.416.231-1.754.939c-.077.046-.17.077-.246.123l-.092.046a60.6 60.6 0 0 1-2.247 1.108c-2.91 1.402-5.907 2.615-8.973 3.632l-1.2.4c-5.514 1.754-11.2 2.909-16.961 3.448-2.524.231-5.079.354-7.65.354a79.96 79.96 0 0 1-20.916-2.739c-3.5-.914-6.931-2.076-10.266-3.478-.354-.139-.708-.292-1.047-.431a8.54 8.54 0 0 1-.539-.246c-1.447-.631-2.878-1.324-4.278-2.047l-.677-.354a76.82 76.82 0 0 1-5.018-2.863c-.6-.369-1.2-.754-1.785-1.154-1.847-1.216-3.648-2.524-5.403-3.894-1.185-.893-2.324-1.847-3.432-2.832-.585-.492-1.154-1.031-1.708-1.539a78.31 78.31 0 0 1-6.187-6.403c-.646-.739-1.278-1.478-1.878-2.247a5.85 5.85 0 0 1-.385-.477A81.05 81.05 0 0 1 345.557 94.85a81.05 81.05 0 0 1 38.868 144.95z" class="E"/><g class="G"><use xlink:href="#C"/><use xlink:href="#C" y="43.808"/></g><g class="E"><circle cx="331.232" cy="419.845" r="14.208"/><path d="M400.855 419.844c-6.725-2.493-15.068-6.75-20.24-11.26l3.645 10.076h-25.796v2.368h25.796l-3.645 10.078c5.172-4.509 13.515-8.767 20.24-11.262zm-139.245 0c6.725-2.493 15.068-6.75 20.24-11.26l-3.645 10.076H304v2.368h-25.796l3.645 10.078c-5.172-4.509-13.515-8.767-20.24-11.262zM727 485.494l-726 1a1 1 0 1 1 0-2l726-1a1 1 0 1 1 0 2z"/></g><defs><path id="B" d="M639.31 366.14h-97.453c-6.454-.006-11.684-5.24-11.684-11.694s5.229-11.688 11.684-11.694h97.453c6.459 0 11.694 5.236 11.694 11.694s-5.236 11.694-11.694 11.694z"/><path id="C" d="M394.576 328.086H276.176a14.21 14.21 0 0 1-14.196-14.208 14.21 14.21 0 0 1 14.196-14.208h118.399a14.21 14.21 0 0 1 12.314 21.315 14.21 14.21 0 0 1-12.314 7.101z"/></defs></svg>
