<svg id="Layer_1" data-name="Layer 1" xmlns="http://www.w3.org/2000/svg" viewBox="0 0 435.2 484.6"><defs><style>.cls-1{fill:#fff;}.cls-2{fill:#ffb7b7;}.cls-3{fill:#ff4040;}.cls-4{fill:#2f2e41;}.cls-5{fill:#3f3d56;}.cls-6{fill:#a0616a;}</style></defs><path id="B" class="cls-1" d="M639.3,366.1H541.8a11.7,11.7,0,1,1,0-23.4h97.5a11.7,11.7,0,1,1,0,23.4Z" transform="translate(-215.8)"/><path id="B-2" data-name="B" class="cls-1" d="M639.3,402.2H541.8a11.7,11.7,0,1,1,0-23.4h97.5a11.7,11.7,0,1,1,0,23.4Z" transform="translate(-215.8)"/><path class="cls-2" d="M432.8,277.4a6.9,6.9,0,0,0,5.7-1.4,7.12,7.12,0,0,0,2.6-5.2l52.3-49.2-11.8-9.4-47.8,51.4a6.91,6.91,0,0,0-6.6,6.4A7.15,7.15,0,0,0,432.8,277.4Z" transform="translate(-215.8)"/><path class="cls-3" d="M486,229.5l-10.2-11.9a3.14,3.14,0,0,1,.3-4.4,1.38,1.38,0,0,1,.4-.3l13.2-8.3a8.57,8.57,0,0,1,12.1,1,8.66,8.66,0,0,1-1,12.1l-10.2,11.7a3.14,3.14,0,0,1-4.4.3l-.2-.2Z" transform="translate(-215.8)"/><path class="cls-2" d="M458.6,472.2H445.8l-6.1-49.3h18.9v49.3Z" transform="translate(-215.8)"/><path class="cls-4" d="M461.9,484.6H420.7V484a16,16,0,0,1,16-16h25.2Z" transform="translate(-215.8)"/><path class="cls-2" d="M560.8,472.2H548l-6.1-49.3h18.9Z" transform="translate(-215.8)"/><path class="cls-4" d="M564,484.6H522.8V484a16,16,0,0,1,16-16H564Zm-37.6-229L539.3,208l-16.7-9.4H499.3l-9.1,9.7s-15.2,10.5-11.5,22.2l5.9,26.6-9,42.3L430,362.7l-10.8,62.1,42.5,11.1,45.9-90.5,22.3,100.2,41.4-2.1L557,322.1s-4.1-37-25.4-60.1Z" transform="translate(-215.8)"/><path class="cls-2" d="M553,297.7a6.67,6.67,0,0,0,2-5.5,7.07,7.07,0,0,0-2.9-5.1l-10-67.4-14.3,4.5,14.4,64.9a7.08,7.08,0,0,0,1.6,9.1,6.9,6.9,0,0,0,9.2-.5Z" transform="translate(-215.8)"/><path class="cls-3" d="M544.6,230.3,529,232.1a3,3,0,0,1-3.4-2.7v-.5l.5-15.6a8.6,8.6,0,0,1,17.1-1.9l4,15a3.07,3.07,0,0,1-2.2,3.8.6.6,0,0,1-.4.1Z" transform="translate(-215.8)"/><path class="cls-4" d="M484.8,185.1v-20a26.9,26.9,0,0,1,53.8,0v20a3.59,3.59,0,0,1-3.6,3.6H488.5a3.61,3.61,0,0,1-3.7-3.6Z" transform="translate(-215.8)"/><circle class="cls-2" cx="290.4" cy="168.6" r="19.7"/><path class="cls-4" d="M478.5,166.7a21.23,21.23,0,0,1,21.3-21.2h4A21.21,21.21,0,0,1,525,166.7v.4h-8.5l-2.9-8.1-.6,8.1h-4.4l-1.5-4.1-.3,4.1H478.4Z" transform="translate(-215.8)"/><path class="cls-4" d="M504.2,191a3.71,3.71,0,0,1-.3-3.8c4.2-8.1,10.2-23,2.3-32.2l-.6-.7h22.9v34.4l-20.8,3.7c-.2,0-.4.1-.6.1a3.8,3.8,0,0,1-2.9-1.5Z" transform="translate(-215.8)"/><path class="cls-1" d="M411.7,484.4H250.1a34.36,34.36,0,0,1-34.3-34.3V34.3A34.36,34.36,0,0,1,250.1,0h21.8l-.8,2.1a13.85,13.85,0,0,0,1.4,13.2,14.16,14.16,0,0,0,11.7,6.2h92.1A14,14,0,0,0,388,15.3a14.38,14.38,0,0,0,1.4-13.2l-1-2.1h23.2a34.36,34.36,0,0,1,34.3,34.3V450.1A34.33,34.33,0,0,1,411.7,484.4Z" transform="translate(-215.8)"/><path class="cls-5" d="M411.7,484.4H250.1a34.36,34.36,0,0,1-34.3-34.3V34.3A34.36,34.36,0,0,1,250.1,0h21.8l-.8,2.1a13.85,13.85,0,0,0,1.4,13.2,14.16,14.16,0,0,0,11.7,6.2h92.1A14,14,0,0,0,388,15.3a14.38,14.38,0,0,0,1.4-13.2l-1-2.1h23.2a34.36,34.36,0,0,1,34.3,34.3V450.1A34.33,34.33,0,0,1,411.7,484.4ZM250.1,3a31.28,31.28,0,0,0-31.3,31.3V450.1a31.28,31.28,0,0,0,31.3,31.3H411.7A31.28,31.28,0,0,0,443,450.1V34.3A31.28,31.28,0,0,0,411.7,3H392.8a17.1,17.1,0,0,1-12.1,20.9,16.11,16.11,0,0,1-4.4.6H284.2A17.16,17.16,0,0,1,267.1,7.4a16.66,16.66,0,0,1,.6-4.4Z" transform="translate(-215.8)"/><path class="cls-1" d="M416.4,147.1a85.74,85.74,0,1,0-148.2,81.4c.8,1,1.6,1.9,2.4,2.9l.2.2a79.52,79.52,0,0,0,6.4,6.6c.6.5,1.2,1.1,1.8,1.6l3.6,3a79.45,79.45,0,0,0,7.6,5.3h.1c1.7,1.1,3.4,2,5.2,3l.7.4q2.55,1.35,5.1,2.4l1.1.5h.1a68.42,68.42,0,0,0,10.8,3.6,86.48,86.48,0,0,0,22.1,2.9,73.22,73.22,0,0,0,8.1-.4,90.17,90.17,0,0,0,17.9-3.6h0a83.74,83.74,0,0,0,10.8-4.3h.1c.8-.4,1.5-.8,2.3-1.2.1-.1.2-.1.4-.2l1.8-1q2.25-1.2,4.5-2.7a8.34,8.34,0,0,0,1.2-.8c1.4-.9,2.7-1.8,4-2.8.2-.2.5-.3.7-.5a85.46,85.46,0,0,0,29.2-96.3Z" transform="translate(-215.8)"/><circle class="cls-4" cx="147.9" cy="197.7" r="12.9"/><path class="cls-4" d="M367.3,185.3a12.91,12.91,0,0,1,12.9,12.8,13.1,13.1,0,0,1-1.5,6.1,12.78,12.78,0,0,0,1.6-13.4,13.09,13.09,0,0,0-11.3-7.5,12.82,12.82,0,0,0-11.7,6.7,12.46,12.46,0,0,1,10-4.7Z" transform="translate(-215.8)"/><circle class="cls-4" cx="123.9" cy="160" r="37.7"/><path class="cls-4" d="M310.1,136.6a37.73,37.73,0,0,1,52.3-4l-.9-.9a37.74,37.74,0,1,0-50.4,56.2l.2.2a3.92,3.92,0,0,0,1,.8,37.46,37.46,0,0,1-2.2-52.3Z" transform="translate(-215.8)"/><circle class="cls-6" cx="123.6" cy="173.1" r="24.3"/><path class="cls-5" d="M382.9,236.4v8.2l-4.5,2.7-1.8,1c-.1.1-.2.1-.4.2l-2.3,1.2h-.1A83.74,83.74,0,0,1,363,254h0a83.57,83.57,0,0,1-17.9,3.6,73.22,73.22,0,0,1-8.1.4,86.48,86.48,0,0,1-22.1-2.9,97.66,97.66,0,0,1-10.8-3.6H304l-1.1-.5-5.1-2.4-.7-.4a53.86,53.86,0,0,1-5.2-3h-.1a79.45,79.45,0,0,1-7.6-5.3l-3.6-3c-.6-.5-1.2-1.1-1.8-1.6-2.2-2.1-4.4-4.3-6.4-6.6a35.93,35.93,0,0,1,1.2-4.7h0c.1-.3.2-.5.3-.8l.3-.6c2.8-5.2,7.7-6.4,13.9-6.7,3.5-.2,7.4,0,11.4,0q3.3,0,6.6-.3c14.1-1.3,11.5-9.6,12.2-14.1.6-4.3,4.5-.6,4.8-.3h0a49.94,49.94,0,0,0,25.5,4.5,34,34,0,0,1,4.5-.3c4,0,3.1,1.1,1.7,2l-2.1,1.2s-.6,3.8-1.3,9.6c-.6,5.5,18.8,7.4,22.6,8.6h0a13.11,13.11,0,0,1,8.9,9.6Z" transform="translate(-215.8)"/><path class="cls-4" d="M318.6,142.7V167h5.6l7.2-7.7-1,7.7h24.9l-1.5-7.7,3.1,7.7h4V142.7Z" transform="translate(-215.8)"/><ellipse class="cls-6" cx="98.9" cy="168" rx="1.9" ry="3.5"/><ellipse class="cls-6" cx="148.2" cy="168" rx="1.9" ry="3.5"/><path class="cls-5" d="M416.4,147.1a85.74,85.74,0,1,0-148.2,81.4c.8,1,1.6,1.9,2.4,2.9l.2.2a79.52,79.52,0,0,0,6.4,6.6c.6.5,1.2,1.1,1.8,1.6l3.6,3a79.45,79.45,0,0,0,7.6,5.3h.1c1.7,1.1,3.4,2,5.2,3l.7.4q2.55,1.35,5.1,2.4l1.1.5h.1a68.42,68.42,0,0,0,10.8,3.6,86.48,86.48,0,0,0,22.1,2.9,73.22,73.22,0,0,0,8.1-.4,90.17,90.17,0,0,0,17.9-3.6h0a83.74,83.74,0,0,0,10.8-4.3h.1c.8-.4,1.5-.8,2.3-1.2.1-.1.2-.1.4-.2l1.8-1q2.25-1.2,4.5-2.7a8.34,8.34,0,0,0,1.2-.8c1.4-.9,2.7-1.8,4-2.8.2-.2.5-.3.7-.5a85.46,85.46,0,0,0,29.2-96.3Zm-32,92.7a9.06,9.06,0,0,1-1.6,1.1,14.31,14.31,0,0,1-1.5,1.1c-.4.3-.9.6-1.4.9s-.8.5-1.2.8c-1.3.8-2.6,1.6-3.9,2.3l-.4.2-1.8.9a.35.35,0,0,0-.2.1h-.1a22.56,22.56,0,0,1-2.2,1.1,70.36,70.36,0,0,1-9,3.6l-1.2.4a75.38,75.38,0,0,1-17,3.4c-2.5.2-5.1.4-7.6.4a81.52,81.52,0,0,1-20.9-2.7,78.11,78.11,0,0,1-10.3-3.5,10.37,10.37,0,0,1-1-.4,1.69,1.69,0,0,0-.5-.2c-1.4-.6-2.9-1.3-4.3-2l-.7-.4a49.94,49.94,0,0,1-5-2.9l-1.8-1.2q-2.7-1.8-5.4-3.9c-1.2-.9-2.3-1.8-3.4-2.8-.6-.5-1.2-1-1.7-1.5-2.2-2-4.2-4.2-6.2-6.4l-1.9-2.2c-.1-.2-.3-.3-.4-.5a81,81,0,1,1,112.6,14.3Z" transform="translate(-215.8)"/><path id="C" class="cls-3" d="M394.6,328.1H276.2a14.2,14.2,0,1,1,0-28.4H394.6a14.25,14.25,0,0,1,14.2,14.2,14.5,14.5,0,0,1-1.9,7.1,14.23,14.23,0,0,1-12.3,7.1Z" transform="translate(-215.8)"/><path id="C-2" data-name="C" class="cls-3" d="M394.6,371.9H276.2a14.2,14.2,0,0,1,0-28.4H394.6a14.25,14.25,0,0,1,14.2,14.2,14.5,14.5,0,0,1-1.9,7.1,14.23,14.23,0,0,1-12.3,7.1Z" transform="translate(-215.8)"/></svg>