<svg id="Layer_1" data-name="Layer 1" xmlns="http://www.w3.org/2000/svg" viewBox="0 0 99.78066 164.65069">
  <defs>
    <style>
      .cls-1 {
        fill: #46738c;
      }

      .cls-2 {
        fill: #3c5a73;
      }

      .cls-3 {
        fill: #c8e6eb;
      }

      .cls-4 {
        fill: #a5c8cd;
      }

      .cls-5 {
        fill: #6c9baa;
      }

      .cls-6 {
        fill: #87afb9;
      }

      .cls-7 {
        fill: #ff4040;
      }

      .cls-8 {
        fill: #fab9af;
      }

      .cls-9 {
        fill: #5e4d2c;
      }

      .cls-10 {
        fill: #fbff43;
      }

      .cls-11 {
        fill: #302c25;
      }
    </style>
  </defs>
  <title>phone</title>
  <g>
    <rect class="cls-1" x="3.92483" y="114.11003" width="5.77605" height="30.8949"/>
    <rect class="cls-1" x="90.42042" y="66.54654" width="5.78171" height="78.45839"/>
    <path class="cls-1" d="M9.70088,19.684H9.69019V10.887H90.40972v.02574h.0107V48.08151h5.7817V5.28332A5.287,5.287,0,0,0,90.9188,0H9.20838A5.27755,5.27755,0,0,0,3.92483,5.28332V95.645H9.70088Z"/>
    <path class="cls-2" d="M90.42042,145.01188H9.70088v-.00695h-5.776v9.95955a9.70206,9.70206,0,0,0,9.67124,9.68621H86.53142a9.701,9.701,0,0,0,9.6707-9.68621v-9.95955h-5.7817ZM50.06061,160.65077a5.78469,5.78469,0,1,1,5.78476-5.78461A5.78463,5.78463,0,0,1,50.06061,160.65077Z"/>
    <path class="cls-3" d="M90.40972,10.9127V19.684H83.02361V43.5712H17.09776V19.684H9.70088V95.645h7.396V79.98616H83.0227v26.3681H23.202v4.94941H83.0227v10.70926H17.09684V114.11h-7.396v30.90185H90.42042V66.54654H83.02361v8.34209H17.09776V64.17936H76.57851V59.22988H17.09776V48.52061H76.57851v-.4391H90.42042V10.9127ZM17.09684,126.96242H83.0227v10.70927H17.09684Z"/>
    <polygon class="cls-4" points="17.098 26.227 17.098 27.912 17.098 43.571 83.024 43.571 83.024 27.912 83.024 26.227 83.024 19.684 17.098 19.684 17.098 26.227"/>
    <path class="cls-2" d="M83.02361,19.684h7.38611V10.887H9.69019v8.797H83.02361Zm-8.03895-2.96534V14.25534h2.63845v2.46328Zm5.27782,0V14.25534h2.63845v2.46328Zm7.917,0H85.54106V14.25534h2.63845ZM15.25242,14.78344H45.866v1.05522H15.25242Z"/>
    <path class="cls-5" d="M55.84537,154.86616a5.78469,5.78469,0,1,0-5.78476,5.78461A5.78468,5.78468,0,0,0,55.84537,154.86616Z"/>
    <rect class="cls-1" x="15.25242" y="14.78344" width="30.61362" height="1.05521"/>
    <rect class="cls-1" x="85.54106" y="14.25534" width="2.63845" height="2.46328"/>
    <rect class="cls-1" x="80.26248" y="14.25534" width="2.63845" height="2.46328"/>
    <rect class="cls-1" x="74.98466" y="14.25534" width="2.63845" height="2.46328"/>
    <polygon class="cls-6" points="83.023 90.695 83.023 79.986 17.097 79.986 17.097 90.695 17.097 95.645 23.202 95.645 23.202 106.354 83.023 106.354 83.023 90.695"/>
    <polygon class="cls-4" points="83.023 122.013 83.023 111.304 23.202 111.304 23.202 117.942 18.465 114.11 17.097 114.11 17.097 122.013 83.023 122.013"/>
    <rect class="cls-6" x="17.09684" y="126.96242" width="65.92585" height="10.70927"/>
    <rect class="cls-6" x="17.09776" y="48.52061" width="59.48075" height="10.70927"/>
    <polygon class="cls-4" points="17.098 74.889 83.024 74.889 83.024 66.547 81.316 66.547 76.579 70.378 76.579 64.179 17.098 64.179 17.098 74.889"/>
    <path class="cls-7" d="M99.78066,48.08151H76.57851V70.37833l4.73712-3.83179h18.465ZM92.91418,53.028a2.28534,2.28534,0,0,1-1.31548,1.813l-.08556.55255-.00031-.00252c.08281.647.1482,1.31495.17387,1.93831.00016-.04507.00978-.07838.009-.12452a21.38156,21.38156,0,0,1,.35522,3.946c.03927,1.80188-.56148,2.82829-1.5963,3.05839a3.89537,3.89537,0,0,1-4.54628-3.10109l-.36424-1.7607A2.07413,2.07413,0,0,1,84.316,57.88384L83.605,54.686h0l-.05042-.22643-.09992-.44911.015-.00329A2.52057,2.52057,0,0,1,85.40691,51.141l2.26856-.5035a3.95768,3.95768,0,0,0,.4414-.12506,2.83017,2.83017,0,0,1,1.82411-.01489,7.47672,7.47672,0,0,1,1.11472.01184A2.21482,2.21482,0,0,1,92.91418,53.028Z"/>
    <path class="cls-8" d="M90.49864,55.01865a14.52991,14.52991,0,0,1-3.34417-1.11655,1.31693,1.31693,0,0,0-.92374,1.55482.83509.83509,0,0,1-.64414.94383l-.08877.01979-.548-.95461-.34667-.20106.0466.21008a.994.994,0,0,0-.58761,1.26728,2.53123,2.53123,0,0,0,1.3002,1.72571l-.00886-.04286.02078-.00466a.96365.96365,0,0,1,.96713.368,4.05945,4.05945,0,0,0,.51489.5482,1.47462,1.47462,0,0,0,2.20011-.23193.81443.81443,0,0,1,1.20059-.25286.8775.8775,0,0,0,1.35948-.5514,5.78424,5.78424,0,0,0,.07028-.97111c-.02567-.62336-.09106-1.29134-.17387-1.93831l-.06753-.4857A2.04269,2.04269,0,0,1,90.49864,55.01865Z"/>
    <path class="cls-9" d="M91.0557,50.50942a7.47672,7.47672,0,0,0-1.11472-.01184,2.83017,2.83017,0,0,0-1.82411.01489,3.95768,3.95768,0,0,1-.4414.12506l-2.26856.5035a2.52057,2.52057,0,0,0-1.93731,2.86618l-.015.00329.09992.44911.05042.22643h0l.71107,3.1978a2.07413,2.07413,0,0,0,1.22809,1.46353l.36424,1.7607a3.89537,3.89537,0,0,0,4.54628,3.10109c1.03482-.2301,1.63557-1.25651,1.5963-3.05839a21.38156,21.38156,0,0,0-.35522-3.946c.00076.04614-.00886.07945-.009.12452a5.78424,5.78424,0,0,1-.07028.97111.8775.8775,0,0,1-1.35948.5514.81443.81443,0,0,0-1.20059.25286,1.47462,1.47462,0,0,1-2.20011.23193,4.05945,4.05945,0,0,1-.51489-.5482.96365.96365,0,0,0-.96713-.368l-.02078.00466.00886.04286a2.53123,2.53123,0,0,1-1.3002-1.72571.994.994,0,0,1,.58761-1.26728l-.0466-.21008.34667.20106.548.95461.08877-.01979a.83509.83509,0,0,0,.64414-.94383,1.31693,1.31693,0,0,1,.92374-1.55482,14.52991,14.52991,0,0,0,3.34417,1.11655,2.04269,2.04269,0,0,0,.94666-.11336l.06753.4857.00031.00252.08556-.55255a2.28534,2.28534,0,0,0,1.31548-1.813A2.21482,2.21482,0,0,0,91.0557,50.50942Z"/>
    <path class="cls-10" d="M14.61492,103.67891l.00863.05775-.00756-.05431Z"/>
    <path class="cls-10" d="M17.09684,114.11H18.465l4.737,3.83178V95.645H0V114.11H17.09684Zm-9.744-7.02217-.26936-1.21106-.00023-.00084v-.00038l-.46913-2.10935h0l-.00917-.04118-.145-.652.0152-.00336a2.58653,2.58653,0,0,1,1.988-2.94089l1.59661-.35439a8.40236,8.40236,0,0,1,1.62106-.40022c.0867-.01627.17241-.02521.259-.03377.05569-.00481.1081-.008.161-.01062a2.89026,2.89026,0,0,1,.35186.00466c.03094.00237.07158-.00221.10061.00138.076.0094.15638.02192.24.03758l.03843.00833c1.24856.245,3.16159,1.17011,2.18269,2.73624-.00863.01382-.02528.02238-.03445.0359a3.94487,3.94487,0,0,1,.02666.54048l-.27807,1.79744a21.43551,21.43551,0,0,1,.19007,2.43479c.0168,1.85413-.65324,2.91912-1.78515,3.17091a4.10322,4.10322,0,0,1-4.0482-1.39913A2.08918,2.08918,0,0,1,7.35288,107.08786Z"/>
    <path class="cls-11" d="M7.68633,104.57568l-.048-.2155.35568.20626.5624.97951.09122-.02025a.85731.85731,0,0,0,.66095-.9685,1.37271,1.37271,0,0,1,.72091-1.49165,9.58069,9.58069,0,0,0,4.07884-.26775,1.59939,1.59939,0,0,1,.50656.88111l.00107.00344.00756.05431.105.75553.00008-.00039.27807-1.79744a3.94487,3.94487,0,0,0-.02666-.54048c.00917-.01352.02582-.02208.03445-.0359.9789-1.56613-.93413-2.49125-2.18269-2.73624l-.03843-.00833c-.08357-.01566-.16394-.02818-.24-.03758-.029-.00359-.06967.001-.10061-.00138a2.89026,2.89026,0,0,0-.35186-.00466c-.05294.0026-.10535.00581-.161.01062-.08663.00856-.17234.0175-.259.03377a8.40236,8.40236,0,0,0-1.62106.40022l-1.59661.35439a2.58653,2.58653,0,0,0-1.988,2.94089L6.46,103.073l.145.652.00917.04118h0l.46913,2.10935A1.01991,1.01991,0,0,1,7.68633,104.57568Z"/>
    <path class="cls-11" d="M7.08352,105.8768l.26936,1.21106a2.08918,2.08918,0,0,0,1.73251,1.61051,4.06015,4.06015,0,0,1-.64277-1.05078A2.537,2.537,0,0,1,7.08352,105.8768Z"/>
    <path class="cls-8" d="M13.13359,110.0975c1.13191-.25179,1.80195-1.31678,1.78515-3.17091a21.43551,21.43551,0,0,0-.19007-2.43479l-.00008.00039-.105-.75553-.00863-.05775a1.59939,1.59939,0,0,0-.50656-.88111,9.58069,9.58069,0,0,1-4.07884.26775,1.37271,1.37271,0,0,0-.72091,1.49165.85731.85731,0,0,1-.66095.9685l-.09122.02025-.5624-.97951-.35568-.20626.048.2155a1.01991,1.01991,0,0,0-.603,1.2999v.00038l.00023.00084a2.537,2.537,0,0,0,1.3591,1.77079,4.06015,4.06015,0,0,0,.64277,1.05078A4.10322,4.10322,0,0,0,13.13359,110.0975Z"/>
  </g>
</svg>
